<svg version="1.1" viewBox="0.0 0.0 575.7060367454068 443.24146981627297" fill="none" stroke="none" stroke-linecap="square" stroke-miterlimit="10" xmlns:xlink="http://www.w3.org/1999/xlink" xmlns="http://www.w3.org/2000/svg"><clipPath id="p.0"><path d="m0 0l575.70605 0l0 443.24146l-575.70605 0l0 -443.24146z" clip-rule="nonzero"/></clipPath><g clip-path="url(#p.0)"><path fill="#000000" fill-opacity="0.0" d="m0 0l575.70605 0l0 443.24146l-575.70605 0z" fill-rule="evenodd"/><path fill="#301907" d="m303.79697 335.39343c1.3467102 0.34979248 2.7458801 0.5246887 4.1275635 0.5246887c1.1368103 0 2.2736511 -0.10491943 3.3930054 -0.3323059c0.15737915 0 0.31478882 -0.06994629 0.43722534 -0.06994629c0.19238281 1.066864 0.36727905 2.1512146 0.5246887 3.2180786c0.08746338 0.31481934 0.034973145 0.64712524 -0.15740967 0.92697144c-0.19238281 0.15740967 -0.41973877 0.27981567 -0.6820984 0.27981567c-0.034973145 0 -0.06994629 -0.017486572 -0.122406006 -0.017486572c-4.529846 0.34979248 -9.077148 0.5246887 -13.624451 0.5246887c-3.3930054 0 -6.7860107 -0.08743286 -10.178986 -0.29730225l16.282867 -4.757202z" fill-rule="evenodd"/><path fill="#301907" d="m299.65192 324.89963l13.974243 0.24487305l-1.6090393 13.554474c-0.69958496 0.06997681 -1.3816833 0.15740967 -2.0462952 0.26235962c-0.71707153 0.034973145 -1.4166565 0.122406006 -2.098755 0.15740967l-6.383728 -2.4135742l-1.8364258 -11.805542z" fill-rule="evenodd"/><path fill="#301907" d="m340.63254 334.36234c-1.5045166 0.60076904 -3.0687256 0.8859253 -4.6367188 0.90011597c-1.0145569 0.009185791 -2.0307007 -0.09454346 -3.048706 -0.33374023c-0.1822815 1.492157 -0.364563 2.984314 -0.50994873 4.4761353c-0.0675354 0.4522705 -0.02468872 0.88098145 0.14758301 1.3310852c0.24325562 0.24621582 0.57748413 0.40127563 0.89108276 0.3984375c5.580597 0.64959717 11.211853 0.95999146 16.838135 0.90908813c2.7669983 -0.025024414 5.532776 -0.14038086 8.297272 -0.34603882l-17.978699 -7.335083z" fill-rule="evenodd"/><path fill="#301907" d="m331.5539 324.1168l0.5109558 16.079712l0 0l10.045868 -3.2659302l5.552368 -15.596832l-16.109192 2.7830505z" fill-rule="evenodd"/><path fill="#d0e0e3" d="m261.93588 160.30824l-7.587433 6.4019775l-4.4254 10.719452l-9.800171 11.760437l-9.493423 3.5093231l-12.186539 -4.5763397l-13.05397 -12.017151l10.387482 4.6765747l13.8255005 -0.0044403076l12.333191 -8.155319l12.853531 -10.428192z" fill-rule="evenodd"/><path fill="#d0e0e3" d="m223.14833 168.40494l-11.55954 -3.863861l-16.574234 -9.581329l-15.041931 -17.147446l-9.106567 -2.4990082l9.240036 6.2344666l15.642319 17.114838l11.172745 9.87471l10.961166 3.8963776z" fill-rule="evenodd"/><path fill="#d0e0e3" d="m272.42764 134.28847l-2.7063599 8.378937l-15.226288 11.308655l-19.58725 7.0512543l-15.079727 -1.4255219l-17.17453 -9.546204l15.602081 -0.8474579l15.9313965 -8.353287l12.9869995 -6.692749l11.975052 -1.3995056z" fill-rule="evenodd"/><path fill="#d0e0e3" d="m275.05377 123.66423l-5.119446 -8.705429l-25.987442 -3.8266983l-22.04013 5.6889114l-17.946274 2.4703674l-7.907791 -2.564125l9.453629 12.212715l10.494247 7.6644287l10.854309 0.9059906l13.612076 -5.977646l9.440002 -5.004509l13.200531 -0.71702576l7.3341064 3.3443375z" fill-rule="evenodd"/><path fill="#d0e0e3" d="m144.11751 93.349304l11.281418 12.859955l9.813812 5.4567795l8.773102 10.002541l2.6664886 7.340576l-14.612793 -5.1935883l-7.440979 -6.334717z" fill-rule="evenodd"/><path fill="#d0e0e3" d="m163.9716 93.76645l13.547607 8.996674l5.1460724 9.450508l6.4804077 13.123253l8.1480255 9.287445l9.840515 6.204376l-10.74765 2.079361l-13.000534 -10.521973l-9.934082 -25.65934z" fill-rule="evenodd"/><path fill="#d0e0e3" d="m167.25157 84.60479l-10.080643 -12.925179l-26.521423 -18.771042l17.108124 24.523148l11.692902 7.5968018z" fill-rule="evenodd"/><path fill="#d0e0e3" d="m209.58665 108.506714l-14.121277 -8.216469l-12.613754 -16.532814l-14.655151 -23.158295l-10.467514 -6.9168434l8.201538 10.785152l7.107422 13.835724l4.0274506 11.7584l13.294189 18.740463l8.532883 3.2792206z" fill-rule="evenodd"/><path fill="#d0e0e3" d="m208.91629 22.458368l6.4803314 13.120737l16.73433 14.061855l25.187164 15.100807l12.722534 19.520569l5.9067383 13.903458l-9.213409 -5.489395l-11.588272 -4.611351l-12.266663 -6.8191147l-12.506912 -13.542435l-13.34761 -20.235653z" fill-rule="evenodd"/><path fill="#d0e0e3" d="m216.17082 57.246765l-13.427673 -22.475925l-39.41519 -26.30514l14.708496 24.650965l19.89444 18.381958z" fill-rule="evenodd"/><path fill="#d0e0e3" d="m237.77321 89.75773l-10.841217 -17.375618l-27.455261 -11.234905l-14.746353 -8.9315605l-25.454102 -22.571724l20.535172 36.314163l21.693604 18.284233l20.50792 1.879715z" fill-rule="evenodd"/><path fill="#d0e0e3" d="m160.46194 46.04843l-26.759628 -25.494467l10.892624 18.870913z" fill-rule="evenodd"/><path fill="#d0e0e3" d="m198.17166 91.90878l12.760315 3.798645l28.827286 -0.8167801l17.561417 3.537857l12.867065 6.7865067l8.119385 8.542473l-17.065765 -6.558441l-8.481567 -1.786438l-19.200378 1.042923l-16.905579 -2.0753937l-14.014526 -5.228607z" fill-rule="evenodd"/><path fill="#d0e0e3" d="m260.07022 175.38042l-6.0260468 33.265137l-5.812973 5.556549l-14.428009 0.03465271l9.333252 -7.9923706l8.3077545 -19.913834z" fill-rule="evenodd"/><path fill="#d0e0e3" d="m265.40427 191.62265l3.0752258 23.484634l-5.0811768 14.190094l-17.8936 -0.42022705l13.037216 -10.445755z" fill-rule="evenodd"/><path fill="#d0e0e3" d="m353.32227 157.48254l7.7672424 6.184265l4.731262 10.590836l10.132874 11.478409l9.588898 3.2379608l12.047791 -4.9225616l12.700623 -12.386353l-10.246887 4.9714966l-13.817627 0.38955688l-12.560699 -7.801941l-13.146118 -10.059479z" fill-rule="evenodd"/><path fill="#d0e0e3" d="m392.3203 164.47198l11.44165 -4.192398l16.28894 -10.051407l14.539825 -17.572113l9.029358 -2.7579498l-9.055267 6.496338l-15.140808 17.55661l-10.882141 10.190826l-10.842712 4.2078247z" fill-rule="evenodd"/><path fill="#d0e0e3" d="m342.08792 131.76782l2.9458923 8.29985l15.542816 10.872101l19.778809 6.4914093l15.029938 -1.8549194l16.889923 -10.033417l-15.617432 -0.40263367l-16.162506 -7.897339l-13.172058 -6.3210754l-12.008362 -1.0579071z" fill-rule="evenodd"/><path fill="#d0e0e3" d="m339.1576 121.220894l4.8659973 -8.849297l25.862274 -4.566391l22.19104 5.059494l18.006958 1.9583588l7.8294373 -2.788887l-9.096771 12.479271l-10.267609 7.9617157l-10.82196 1.2151031l-13.776184 -5.588333l-9.578522 -4.734329l-13.213501 -0.34066772l-7.2336426 3.5525665z" fill-rule="evenodd"/><path fill="#d0e0e3" d="m469.14572 87.181625l-10.904877 13.178452l-9.651093 5.7351837l-8.480225 10.250221l-2.4537354 7.414856l14.454895 -5.6088104l7.2543945 -6.5452957z" fill-rule="evenodd"/><path fill="#d0e0e3" d="m449.31512 88.16447l-13.280884 9.380661l-4.871155 9.594955l-6.09906 13.304878l-7.8760986 9.517487l-9.6562805 6.4833527l10.801239 1.7725983l12.690247 -10.890007l9.190033 -25.93647z" fill-rule="evenodd"/><path fill="#d0e0e3" d="m445.77344 79.09841l9.702911 -13.209442l25.965942 -19.522472l-16.392578 25.004978l-11.46756 7.928261z" fill-rule="evenodd"/><path fill="#d0e0e3" d="m404.15063 104.20123l13.876678 -8.6169815l12.130737 -16.888428l13.980316 -23.570541l10.262451 -7.2135315l-7.8864746 11.016365l-6.7052 14.035042l-3.686798 11.870438l-12.747253 19.11496l-8.433594 3.5216293z" fill-rule="evenodd"/><path fill="#d0e0e3" d="m402.34473 18.15383l-6.0990295 13.302357l-16.320038 14.535471l-24.738068 15.815075l-12.153473 19.878586l-5.5032654 14.06855l9.05011 -5.750679l11.448853 -4.9405212l12.0633545 -7.167099l12.110016 -13.895699l12.757629 -20.611324z" fill-rule="evenodd"/><path fill="#d0e0e3" d="m396.0954 53.14086l12.773163 -22.85335l38.635468 -27.422262l-13.990692 25.064384l-19.354004 18.944626z" fill-rule="evenodd"/><path fill="#d0e0e3" d="m375.44095 86.25987l10.334991 -17.68052l27.116089 -12.014706l14.480804 -9.349724l24.789886 -23.291851l-19.478394 36.89091l-21.154938 18.89819l-20.441925 2.4637222z" fill-rule="evenodd"/><path fill="#d0e0e3" d="m451.44974 40.35755l26.01056 -26.251123l-10.343323 19.176935z" fill-rule="evenodd"/><path fill="#d0e0e3" d="m415.08145 87.28187l-12.643616 4.1614l-28.834076 0.004928589l-17.449432 4.0374985l-12.664337 7.1516037l-7.8688965 8.771873l16.867157 -7.043251l8.425262 -2.0277252l19.219238 0.49549866l16.83606 -2.5566788l13.855957 -5.6267776z" fill-rule="evenodd"/><path fill="#d0e0e3" d="m355.6205 172.49803l6.979706 33.085663l5.9694824 5.3896027l14.420624 -0.37654114l-9.5578 -7.724518l-8.875916 -19.67244z" fill-rule="evenodd"/><path fill="#d0e0e3" d="m350.7569 188.88849l-2.397705 23.566803l5.4865417 14.041977l17.871124 -0.9300537l-13.330231 -10.071777z" fill-rule="evenodd"/><path fill="#301907" d="m306.41608 66.394806c-2.0885315 0 -4.012787 1.1627884 -5.702362 4.434799c-4.1770325 8.139481 -7.2980957 16.819786 -11.639374 24.82405c-2.5813293 4.7593 -5.3034363 9.4374695 -6.805298 14.791679c-1.5018616 5.273079 -1.5487976 11.465569 1.1264038 16.143745c2.698639 4.651123 7.4858093 6.949646 12.226044 7.4364014c0.79785156 0.08111572 1.5957031 0.13520813 2.3935852 0.13520813c3.9188843 0 7.884735 -0.9734955 11.733246 -1.9199524l29.121918 -7.0578156c3.2853088 -0.83828735 6.89917 -1.7847366 9.011139 -4.8133774c3.660797 -5.056755 1.2906799 -12.70948 -1.7599792 -18.225937c-7.5796814 -13.791138 -18.280396 -24.82405 -30.905396 -32.07116c-3.1914368 -1.8388214 -6.148224 -3.6776428 -8.799927 -3.6776428z" fill-rule="evenodd"/><path fill="#e7b790" d="m304.17944 69.06083c1.9613342 -0.12666321 4.1753845 -0.030967712 6.833069 0.75997925c2.6576843 0.79093933 7.151703 3.1316833 9.113007 3.985672c1.9613342 0.8539963 1.5160217 0.6321945 2.6548767 1.1382828c1.138855 0.50608826 3.893341 0.7594147 4.178192 1.898262c0.28485107 1.1388474 -2.0575562 3.3844452 -2.4690857 4.934807c-0.41149902 1.550354 0.47457886 4.620117 0 4.3673477c-0.47454834 -0.25276184 -2.2782593 -5.4093704 -2.8473816 -5.883934c-0.56915283 -0.4745636 -0.75717163 1.6128464 -0.56747437 3.0365448c0.18972778 1.4236984 2.2124023 3.607376 1.7057495 5.505638c-0.50665283 1.898262 -3.5752869 4.5238495 -4.7456665 5.883934c-1.1703491 1.3600845 -0.44189453 1.5452957 -2.2765503 2.2765656c-1.8346558 0.73126984 -8.098572 1.6325455 -8.731323 2.1110535c-0.63275146 0.478508 5.7257385 0.8900223 4.934784 0.75997925c-0.7909241 -0.13004303 -7.529419 -0.90353394 -9.68045 -1.5402222c-2.1510315 -0.63669586 -2.3395996 -1.4253922 -3.2256775 -2.2799454c-0.8861084 -0.8545532 -1.6162415 -1.7721634 -2.0907898 -2.8473892c-0.47457886 -1.0752335 -0.6305237 -2.1487732 -0.7566223 -3.6039963c-0.12609863 -1.4552231 -0.1581726 -3.418785 0 -5.1273346c0.15820312 -1.7085495 0.50665283 -3.4474945 0.9491272 -5.123955c0.44247437 -1.6764603 0.82022095 -3.163208 1.7057495 -4.934807c0.88549805 -1.7715988 3.5437622 -5.0620346 3.6073608 -5.694786c0.06362915 -0.63275146 -3.5105286 1.8352127 -3.2256775 1.898262c0.28485107 0.06304932 2.9734802 -1.3932953 4.934784 -1.5199585z" fill-rule="evenodd"/><path fill="#000000" fill-opacity="0.0" d="m285.6787 169.73184c6.616333 0.5899811 33.081665 2.9498596 39.697998 3.5398254" fill-rule="evenodd"/><path stroke="#8b5a32" stroke-width="1.0" stroke-linejoin="round" stroke-linecap="butt" d="m285.6787 169.73184c6.616333 0.5899811 33.081665 2.9498596 39.697998 3.5398254" fill-rule="evenodd"/><path fill="#e7b790" d="m322.80093 151.77267l-34.118347 4.973358l-6.0775757 24.342102c0 0 11.791931 12.456223 24.96701 12.456223c0.60079956 0 1.2155457 -0.02281189 1.8302917 -0.06843567c13.929565 -1.2547455 17.939362 -6.6159363 17.939362 -6.6159363l-4.540741 -35.08731z" fill-rule="evenodd"/><path fill="#e7b790" d="m304.16623 105.919426l-5.458374 14.460136l10.931824 7.0868225l12.545166 -2.1411285l-2.2466736 -19.34552l-15.771942 -0.060310364z" fill-rule="evenodd"/><path fill="#e7b790" d="m319.00333 87.79525l-13.4800415 4.6139755l-0.3015747 2.3522263l-0.4975891 4.297325l-0.22616577 1.8847961l-0.1960144 1.8546371l-0.030151367 0.13570404l-0.3015747 2.4125366l-0.3015747 2.5482407l-0.5277405 4.508423l16.797272 -6.423378l-0.21109009 -3.5735626l-0.7237549 -14.610924z" fill-rule="evenodd"/><path fill="#ba68b3" d="m323.6173 152.7377c-0.55792236 0 -0.9499512 0.48249817 -1.176117 1.0253143l0.96499634 -0.030151367c0.075408936 0.13571167 0.15078735 0.18093872 0.22619629 0.18093872c0.36187744 0 0.6936035 -1.115799 0.04522705 -1.1761017c-0.030151367 0 -0.04522705 0 -0.060302734 0z" fill-rule="evenodd"/><path fill="#e7b790" d="m286.223 113.76017c0 0 0 0.030151367 0 0.030151367c0.030151367 0 0.030151367 -0.030151367 0 -0.030151367z" fill-rule="evenodd"/><path fill="#e7b790" d="m286.223 117.54483c-0.030151367 0 -0.030151367 0.030158997 0 0.030158997c0.030151367 0 0.030151367 -0.030158997 0 -0.030158997z" fill-rule="evenodd"/><path fill="#e7b790" d="m261.94687 191.68506l-2.7442627 0.5579071c0.22616577 1.1911926 -0.6936035 2.2466736 -1.4927673 3.1815338c-1.2967224 1.4927521 -2.216507 3.2418365 -2.714096 5.1266327c-0.4674225 1.9300232 -0.16586304 3.950531 0.79914856 5.669464c0.16586304 0.2563324 0.4222107 0.55789185 0.7237549 0.55789185c0.1960144 -0.030151367 0.36187744 -0.13569641 0.4975891 -0.2563324c0.46743774 -0.37695312 0.7991638 -0.9046936 0.9951782 -1.4626007c0.45236206 0.42219543 0.3920288 1.3269043 0.9951782 1.5832367c0.0904541 0.030151367 0.1960144 0.04522705 0.2864685 0.04522705c0.33172607 0 0.64837646 -0.15078735 0.7991638 -0.43727112c0.22616577 -0.3920288 0.33172607 -0.79914856 0.36187744 -1.221344c0.33172607 0.3920288 0.5277405 0.9499359 0.9951782 1.1911926c0.07537842 0.030151367 0.16586304 0.04522705 0.24124146 0.04522705c0.43728638 0 0.8896179 -0.43727112 0.58807373 -0.7840729l0 0c0.46740723 0.24125671 1.0253296 0.4523468 1.5228882 0.4523468c0.36190796 0 0.67852783 -0.105545044 0.9348755 -0.37695312c0.1960144 -0.22618103 0.28649902 -0.5277405 0.36187744 -0.8293152c0.4975891 -2.216507 0.060302734 -4.538574 -0.66345215 -6.6947784c-0.73883057 -2.1411285 -1.7641602 -4.2068634 -2.487915 -6.347992z" fill-rule="evenodd"/><path fill="#e7b790" d="m261.50958 192.21281l1.2666016 7.4185333c0.24124146 -0.12062073 0.4824829 -0.18093872 0.7237549 -0.18093872c0.9046936 0 1.8244629 0.72377014 2.4276123 1.507843c0.75390625 0.9499359 1.5229187 2.1411285 2.774414 2.3069763c0.060302734 -1.7189178 0.8293152 -3.4680176 0.13571167 -5.1266327c-0.7237854 -1.6586151 -2.6538086 -2.3220673 -4.2068787 -3.2116852c-1.221344 -0.6936035 -2.2919006 -1.6284637 -3.1212158 -2.714096z" fill-rule="evenodd"/><path fill="#e7b790" d="m291.62103 113.03641c0 0 -26.492645 12.288849 -38.223602 28.648865c-11.715866 16.344925 4.116394 54.29712 4.116394 54.29712l6.2575073 -1.387207c0 0 -9.273178 -38.751358 14.203796 -49.38159c23.446838 -10.615143 40.364746 -31.649445 13.645905 -32.177185z" fill-rule="evenodd"/><path fill="#e7b790" d="m324.0395 110.47308c-3.3926392 0 -6.6344604 3.3323212 -9.10733 11.36908c0 0 4.5386047 28.814713 17.023468 44.601746c7.780426 9.831085 26.522797 11.685715 39.565582 11.685715c7.946289 0 13.781616 -0.6936035 13.781616 -0.6936035l0.42218018 -6.393219c0 0 -39.836975 -1.7490845 -43.576416 -27.246567c-2.5934753 -17.460724 -10.720703 -33.32315 -18.1091 -33.32315z" fill-rule="evenodd"/><path fill="#ba68b3" d="m304.16623 103.360825c-19.375671 1.6435394 -14.203796 20.461319 -13.645905 28.377457c0.5277405 7.9161224 -7.9161377 25.135605 -7.9161377 25.135605l7.6598206 2.442688c0 0 11.987274 -1.387207 16.616333 -1.6586151c0.5729675 -0.030166626 1.100708 -0.04524231 1.6133728 -0.04524231c3.6489563 0 5.971039 0.85946655 9.31842 2.8045807c2.1712952 1.2364197 5.3678894 1.5078278 7.735199 1.5078278c1.7943115 0 3.0910645 -0.15078735 3.0910645 -0.15078735c0 0 0.07537842 -17.490875 -0.1960144 -21.833435c-0.27142334 -4.3576508 3.2720032 -7.901062 3.2720032 -10.916733c0 -3.0156631 -11.776215 -25.603027 -11.776215 -25.603027l-0.76898193 10.856407l-15.00296 -10.916725z" fill-rule="evenodd"/><path fill="#ba68b3" d="m297.5448 104.99423c-2.9855042 1.4324417 -9.303345 3.2870789 -13.902252 5.940872c-4.6441345 2.6688614 -8.413696 4.7949142 -8.413696 4.7949142c0 0 3.2720032 20.793037 15.756866 24.969734c1.6585999 0.5579071 3.1212158 0.7991638 4.417938 0.7991638c8.57959 0 10.117584 -10.404068 10.117584 -10.404068l-7.9764404 -26.100616z" fill-rule="evenodd"/><path fill="#ba68b3" d="m319.93817 105.97974l4.7647705 33.021576l16.887756 -8.911301c0 0 -0.9348755 -5.3377304 -6.3630676 -14.445053c-5.4282227 -9.107323 -15.289459 -9.665222 -15.289459 -9.665222z" fill-rule="evenodd"/><path fill="#301907" d="m309.24142 82.62341c-2.0205078 0 -2.0205078 3.1061401 0 3.1061401c1.9903564 0 1.9903564 -3.1061401 0 -3.1061401z" fill-rule="evenodd"/><path fill="#301907" d="m300.69754 81.0072c-1.7189331 0 -1.7189331 2.6839447 0 2.6839447c1.7189331 0 1.7189331 -2.6839447 0 -2.6839447z" fill-rule="evenodd"/><path fill="#301907" d="m304.10162 83.00317c-0.1116333 0 -0.23721313 0.06276703 -0.26513672 0.18131256c-0.09069824 0.3486786 -0.13952637 0.7043381 -0.18835449 1.0530167c-0.05581665 0.3207779 -0.16744995 0.61367035 -0.32092285 0.885643c-0.15350342 0.2789383 -0.38372803 0.49512482 -0.6418457 0.6485443c-0.2930298 0.11854553 -0.5651245 0.27196503 -0.8302307 0.4741974c-0.23022461 0.18131256 -0.33486938 0.47420502 -0.28604126 0.7670975c0.05581665 0.2859192 0.30697632 0.47420502 0.55114746 0.6555176c0.50231934 0.38354492 1.116272 0.7810364 1.7581177 0.80892944c0.09069824 0 0.1534729 -0.11854553 0.07675171 -0.18131256l0 -0.013946533c-0.42556763 -0.39749146 -0.9767456 -0.6415634 -1.4232483 -1.0111694c-0.12557983 -0.07670593 -0.23022461 -0.18131256 -0.33486938 -0.29288483c-0.07675171 -0.11855316 -0.020935059 -0.21618652 0.09069824 -0.32078552c0.23022461 -0.1952591 0.565094 -0.27197266 0.80929565 -0.42539215c0.4465027 -0.306839 0.7813721 -0.7391968 0.9697571 -1.2273483c0.23022461 -0.5857773 0.32092285 -1.2134018 0.24417114 -1.8201065c-0.013946533 -0.1255188 -0.1116333 -0.18131256 -0.20928955 -0.18131256z" fill-rule="evenodd"/><path fill="#301907" d="m308.7718 78.17083c-0.33035278 0 -0.6463318 0.033607483 -0.9623108 0.10081482c-0.6893921 0.14562988 -0.6893921 0.8849716 0 1.0642014l0 0.022407532c0.4739685 0.10081482 0.947937 0.16802979 1.3931885 0.29125214l0.3734131 0.10082245l0.1579895 0.06720734c0.028747559 0.011207581 0.028747559 0.011207581 0.04309082 0.011207581c0 0 0 0 0 0l0 0c0.2154541 0.06720734 0.44525146 0.16802979 0.66067505 0.26885223c0.08618164 0.044807434 0.18673706 0.08961487 0.27288818 0.14562225l0.14364624 0.067214966l0 0c0.014343262 0 0.057434082 0.033607483 0.17233276 0.10081482l0.0574646 0.033607483l0 0c0 0 0 0 0 0l0 0c-0.014373779 0 0.0574646 0.044807434 0.07180786 0.044807434c0.10055542 0.067214966 0.18670654 0.14562988 0.28726196 0.2240448c0.33032227 0.23524475 0.70376587 0.6609268 1.1490173 0.7953491l0 0c0.1579895 0.10082245 0.33032227 0.19043732 0.5314026 0.19043732c0.04309082 0 0.08618164 -0.011199951 0.14361572 -0.011199951l0 0c0 0 0 0 0.014373779 0c0.11489868 0 0.22979736 -0.067214966 0.30160522 -0.14562988c0.04309082 -0.022407532 0.07180786 -0.067214966 0.10055542 -0.10081482c0.1005249 -0.12322998 0.1005249 -0.21284485 0.1005249 -0.3360672c-0.028717041 -0.067214966 -0.04309082 -0.12322235 -0.057434082 -0.17923737l0 0c0.04309082 -0.48168945 -0.4739685 -0.97457886 -0.8617554 -1.2994385c-0.44525146 -0.34726715 -0.91922 -0.6385193 -1.4506226 -0.8625641c-0.7899475 -0.34726715 -1.7378845 -0.59371185 -2.6427307 -0.59371185z" fill-rule="evenodd"/><path fill="#301907" d="m305.2306 60.36154c-4.0148315 0.29824066 -7.282196 0.88871 -8.44046 1.5795441c-0.53848267 0.28191757 -0.97558594 0.70750046 -1.2996216 1.2305222c1.2202148 -0.060401917 2.430481 0.15208817 3.5393982 0.62914276c1.2649231 0.54106903 1.9445801 1.5489655 3.1109009 2.1880722c0.68011475 0.40307617 1.2164307 0.49931335 1.757782 0.45909882c0.5413208 -0.04021454 1.087616 -0.21687317 1.7737122 -0.3434372c0.20828247 -0.045715332 0.43273926 -0.07750702 0.6733093 -0.09537506c2.4961243 -0.1854248 6.648773 0.76103973 6.07959 3.4795227l0.13757324 0.020019531c0 0 0.39559937 6.1394806 2.4950562 8.145653c2.0844421 2.007286 5.050415 0.8192978 3.6947632 5.773445c-1.2192688 4.550911 -0.18026733 6.121788 0.79711914 6.049179c0.09020996 -0.0066986084 0.17932129 -0.028442383 0.26843262 -0.050178528c0.39593506 -0.1654892 0.57232666 -0.84386444 0.7838135 -1.6609192c0.023284912 -0.50068665 0.15405273 -0.9791107 0.39343262 -1.4202499c0.26937866 -0.85160065 0.7387085 -1.6575699 1.6213989 -1.7836227l0.13534546 -0.010047913c0.36361694 -0.19332886 0.7489929 -0.29756165 1.1098633 -0.3243637c1.4134827 -0.10500336 2.6712341 0.95066833 3.1042786 2.506073c0.7674866 2.8006287 -0.4326172 5.7776566 -2.9240112 7.2479095c-1.056366 0.6379013 -2.2219238 1.026886 -3.439911 1.117363c-0.16540527 0.012283325 -0.34695435 0.010650635 -0.5285034 0.009017944l-0.030090332 0.0022354126c-0.3788452 2.0239487 -0.69976807 4.0133667 -0.5456238 6.08844c2.169098 -0.72055817 5.308258 -1.8155823 6.8072815 -2.8038788c2.4384766 -1.5721588 10.522614 -7.9484406 10.125549 -18.381836c-0.44104004 -10.415001 -3.2731018 -13.530975 -9.99823 -17.355656c-4.323395 -2.4306412 -13.984497 -2.831833 -21.202148 -2.2956734z" fill-rule="evenodd"/><path fill="#ffffff" d="m300.60684 89.60733c0 0 0 3.5434113 2.3823853 4.8250732c0.37695312 0.1960144 0.7237549 0.28648376 1.055481 0.28648376c1.8847961 0 3.2267761 -2.5331573 3.2267761 -2.5331573l-6.6646423 -2.5783997z" fill-rule="evenodd"/><path fill="#301907" d="m316.60587 65.856255c-0.07537842 0 -0.15078735 0.04523468 -0.18093872 0.12062836c-0.6031189 1.7189331 -1.6887817 3.2418442 -3.1212158 4.372719c-0.6936035 0.5578995 -1.4475098 1.0253296 -2.2466736 1.3872147c-0.3920288 0.16585541 -0.7991638 0.33171844 -1.1911926 0.4674225c-0.43725586 0.13571167 -0.934845 0.22618103 -1.3570557 0.39203644c-0.27139282 0.07539368 -0.1960144 0.4674301 0.060333252 0.4975891c0.96499634 0 1.9300232 -0.19602203 2.7894897 -0.61820984c0.8896179 -0.40711975 1.7189331 -0.9348602 2.4728394 -1.5681534c1.4324341 -1.251503 2.487915 -2.940277 2.9553528 -4.7949142c0.04522705 -0.16586304 -0.060302734 -0.2563324 -0.18093872 -0.2563324z" fill-rule="evenodd"/><path fill="#e79e5f" d="m314.35687 97.58257c-0.11013794 0 -0.2753296 0.060317993 -0.5093689 0.19602966c-1.3215637 0.8142624 -3.7444763 1.010292 -5.7406006 1.010292c-1.555603 0 -2.8634338 -0.12063599 -3.1525269 -0.15078735l-0.20648193 1.8547134l0 0.13571167l-0.2753296 2.4126434c0.05505371 0 0.11013794 0 0.16519165 0c6.6767273 0 10.7378235 -5.458603 9.719116 -5.458603z" fill-rule="evenodd"/><path fill="#ba68b3" d="m328.61887 86.29983l-0.015075684 0.030158997l0 0c0 0 0.015075684 -0.015075684 0.015075684 -0.030158997zm0.13571167 0.30156708l-0.04522705 0.030158997l0 0c0.015075684 -0.015075684 0.030151367 -0.015075684 0.04522705 -0.030158997zm-0.6031189 -0.060310364l0.060302734 0.12062836l0 0c-0.030151367 -0.04523468 -0.04522705 -0.07539368 -0.060302734 -0.12062836zm0.85946655 0.39203644l-0.075408936 0.015075684l0 0c0.030151367 0 0.04522705 -0.015075684 0.075408936 -0.015075684zm0.060302734 0.15077972c0.04522705 0.015083313 0.07537842 0.015083313 0.1055603 0.015083313l-0.1055603 -0.015083313zm0.07537842 -11.293678c-1.266571 0 -2.5180664 0.2261734 -3.6791077 0.67852783c-2.2466736 0.9046936 -4.206848 2.2919083 -5.428192 4.4481125c-1.1911926 2.110962 -1.5530701 4.598892 -0.9951782 6.951111c0 0.015083313 0.015075684 0.04524231 0.015075684 0.060317993l0 0c0.27142334 2.1109695 1.1459656 4.1314697 2.608551 5.7297745c1.9149475 2.1561966 4.6441345 3.3323135 7.4185486 3.3323135c1.34198 0 2.7141113 -0.2714157 3.995758 -0.84439087c3.950531 -1.7189331 6.302765 -5.8353195 5.8654785 -10.102493c-0.1960144 -2.0205002 -0.55789185 -4.538582 -1.7490845 -6.257515c-1.7792358 -2.608551 -4.9155273 -3.995758 -8.051849 -3.995758z" fill-rule="evenodd"/><path fill="#e79e5f" d="m329.76926 82.36705c-0.66345215 0 -1.2967224 0.16586304 -1.8847961 0.49758148l-0.73883057 0.60313416c-0.45236206 0.42219543 -0.7840576 1.0253296 -0.94992065 1.6435394l0 -0.030151367l0 0c-0.24127197 0.9650116 -0.1055603 1.9903412 0.36187744 2.8498077c0.5277405 0.82930756 1.3268738 1.4324417 2.2165222 1.7189255l0.9951477 0.13570404c0.66345215 0 1.2816772 -0.1960144 1.8546448 -0.5277405l0.75390625 -0.5578995c0.46743774 -0.4674301 0.7991638 -1.025322 0.96502686 -1.6284561c0.13571167 -0.4975891 0.16586304 -0.9951706 0.060302734 -1.4927597c-0.22616577 -1.4475174 -1.2514954 -2.63871 -2.6387024 -3.0759811l-0.9951782 -0.13570404z" fill-rule="evenodd"/><path fill="#e79e5f" d="m309.8903 58.13127c-1.2666931 0 -2.5484314 0.067920685 -3.6793823 0.31243515c-1.4476013 0.2988472 -2.850006 1.2904854 -2.3222046 2.784729c0.16586304 0.52978134 0.648407 0.774292 1.1309509 0.774292c0.58807373 0 1.176178 -0.36676788 1.1912537 -1.0459709l0 -0.027168274c0.015075684 -0.16300964 0.39205933 -0.23093033 0.99523926 -0.23093033c2.5333252 0 9.062683 1.154644 9.876984 1.2769012c1.9452515 0.3260193 3.905548 0.7063713 5.8206177 1.1818123c0.5278015 0.1494255 1.8547668 0.27168274 2.2920837 0.6656189c0 0 0.12063599 1.4942474 0.16586304 1.8202667c0.39205933 3.5454407 1.3119202 7.009369 1.6889038 10.55481l1.1158752 11.125343c0.105529785 0.9916382 1.0404663 1.4942474 1.9150696 1.4942474c0.8746033 0 1.6888733 -0.48902893 1.5682373 -1.4942474c-0.49761963 -4.713669 -1.1912537 -9.386581 -1.4928589 -14.10025c-0.16586304 -2.3636246 -0.030151367 -4.6865005 -0.22616577 -7.050125c-0.16589355 -2.024025 0 -4.61858 -2.2619019 -5.8139763c-1.9452515 -1.0188065 -4.7349243 -1.1003113 -6.87619 -1.4263268c-2.5182495 -0.42110443 -5.111908 -0.6656189 -7.6603394 -0.7471237c-1.010315 0 -2.1261902 -0.054336548 -3.242035 -0.054336548z" fill-rule="evenodd"/><path fill="#e7b790" d="m391.0929 168.8263c-0.04522705 0 -0.105529785 0 -0.16586304 0c-2.2466736 0.04522705 -4.433014 0.99516296 -6.3630676 2.1863556c-1.9149475 1.1911926 -3.664032 2.6839447 -5.6242065 3.8751373l1.221344 2.548233c0.28649902 -0.13569641 0.5729675 -0.18093872 0.85946655 -0.18093872c0.85946655 0 1.7792358 0.48251343 2.5934753 0.87454224c1.7189331 0.9348602 3.6338806 1.4324493 5.594055 1.4626007c0.04525757 0 0.075408936 0 0.12063599 0c1.9450989 0 3.8148193 -0.75390625 5.217102 -2.050644c0.25634766 -0.19602966 0.39205933 -0.5277405 0.36187744 -0.8293152c-0.07537842 -0.16586304 -0.21109009 -0.33172607 -0.33172607 -0.43727112c-0.4975586 -0.36187744 -1.0705566 -0.55789185 -1.6585999 -0.61820984c0.3015747 -0.5729828 1.1911926 -0.6936035 1.2967224 -1.3269043c0.060333252 -0.43727112 -0.24124146 -0.8594513 -0.63327026 -0.99516296c-0.25634766 -0.060317993 -0.4975891 -0.09046936 -0.75393677 -0.09046936c-0.16586304 0 -0.34680176 0.015075684 -0.5126648 0.060317993c0.3015747 -0.43727112 0.8293152 -0.7689972 0.9348755 -1.2665863c0.07537842 -0.37695312 -0.33172607 -0.79914856 -0.64837646 -0.79914856c-0.09048462 0 -0.18093872 0.04522705 -0.24124146 0.13569641c0.16586304 -0.85946655 0.25631714 -1.9450989 -0.4975891 -2.38237c-0.25634766 -0.1055603 -0.4975891 -0.16586304 -0.76901245 -0.16586304z" fill-rule="evenodd"/><path fill="#713f6d" d="m390.339 165.65984c-1.6887817 0.3166504 -5.2020264 -0.04522705 -6.6646423 1.055481c-1.4173584 1.0554962 -1.6133728 3.1061401 -2.156189 4.8250732c-0.3920288 1.3269043 -1.055481 2.563324 -1.9450989 3.6489563l6.951111 -2.9101105c-0.8293152 -0.9650116 -0.22616577 -2.4276123 0.55789185 -3.3775482c0.76901245 -0.9951782 3.3775635 -1.9903412 3.2569275 -3.2418518z" fill-rule="evenodd"/><path fill="#301907" d="m387.24792 162.8251c-0.060302734 0 -0.1055603 0 -0.16586304 0.015075684c-4.040985 0.060317993 -8.036743 0.85946655 -11.776184 2.3220673l3.4077148 20.521637c4.598877 -0.9499359 9.273163 -1.4927521 13.977631 -1.5832214c-1.5379944 -6.83049 -3.0910645 -13.645905 -4.6441345 -20.461319c0 -0.45236206 -0.37698364 -0.8142395 -0.7991638 -0.8142395z" fill-rule="evenodd"/><path fill="#e79e5f" d="m386.9162 164.33295l-9.635071 1.9450989c0 0 2.5482483 16.390167 2.5482483 16.601257l11.0373535 -1.100708l-3.950531 -17.445648z" fill-rule="evenodd"/><path fill="#e7b790" d="m390.95718 168.79613c0 0 -7.1772766 2.623642 -6.619385 4.3727264c0.1055603 0.36187744 0.45236206 0.5126648 0.9348755 0.5126648c0.24124146 0 0.54281616 -0.04524231 0.85946655 -0.12062073l0 0c-0.45236206 0.28648376 -0.7388611 0.55789185 -0.7388611 0.76898193c0 0.21110535 0.3015747 0.28649902 0.76901245 0.28649902c0.63327026 0 1.6133728 -0.15078735 2.5482178 -0.34680176l0 0c-0.96499634 0.30155945 -1.7943115 0.67852783 -1.7943115 1.0856323c0 0.37696838 0.6936035 0.48251343 1.5229187 0.48251343c1.3269043 0 3.0458374 -0.28648376 3.0458374 -0.28648376l0 0c0 0 -2.8799744 0.6936035 -2.6085815 1.4324341c0.15078735 0.36187744 1.1911926 0.46743774 2.231598 0.46743774c1.0705872 0 2.1411438 -0.1055603 2.1411438 -0.1055603l-0.66345215 -2.6839447c-0.33172607 -0.79914856 -0.6333008 -1.6284637 -0.8896179 -2.4577637c0.030151367 -0.2563324 -0.7388611 -3.4077148 -0.7388611 -3.4077148z" fill-rule="evenodd"/><path fill="#e79e5f" d="m306.2169 138.05139c-0.42218018 0 -0.8142395 0.33171082 -0.66345215 0.8443756l-0.030151367 0c2.9553528 10.630234 13.088013 17.159164 23.612701 18.576523c1.8998718 0.27140808 3.8148193 0.39204407 5.714691 0.39204407c4.417938 0 8.820831 -0.66345215 13.087982 -1.7490845c6.6043396 -1.6586304 13.072937 -4.237015 19.97882 -4.237015c0.13571167 0 0.27142334 0 0.3920288 0c7.056671 0.13569641 14.535553 3.8449707 15.771973 11.429382c0.07537842 0.48249817 0.5126648 0.7086792 0.94992065 0.7086792c0.54281616 0 1.1007385 -0.36187744 1.0253296 -0.9800873c-0.5277405 -4.9306183 -3.709259 -8.971619 -8.112152 -11.188141c-2.9101257 -1.4927521 -6.1368713 -2.0657349 -9.393799 -2.0657349c-2.8196716 0 -5.6543884 0.42219543 -8.353424 1.0404053c-6.9209595 1.5530701 -13.540344 4.1616364 -20.657318 4.8250732c-1.4475403 0.13571167 -2.9252014 0.21110535 -4.3878174 0.21110535c-5.2321777 0 -10.479431 -0.9348602 -15.153717 -3.3172455c-5.89563 -2.9553528 -10.765961 -7.7502594 -13.118164 -14.007782c-0.12063599 -0.33172607 -0.3920288 -0.48249817 -0.66345215 -0.48249817z" fill-rule="evenodd"/><path fill="#e79e5f" d="m328.95505 96.38991c-0.13571167 0 -0.27142334 0.09046936 -0.24127197 0.2864914c0.3166504 4.3425674 -0.16586304 8.94146 -2.6236267 12.680893c-0.43728638 0.6332855 -1.0253296 1.161026 -1.4173584 1.7943192c-1.1308899 1.6887741 -1.628479 3.6037292 -3.015686 5.2321854c-3.3172302 3.8751373 -7.6899414 6.6194 -11.565094 9.891396c-1.7189331 1.4626007 -3.3473816 3.1212158 -4.1314697 5.2623444c-0.18093872 0.4975891 -0.31661987 0.9951782 -0.4071045 1.507843l0 0c-5.217102 -11.534943 -16.812347 -22.225494 -9.167633 -34.951614c0.3166504 -0.5428238 -0.1960144 -1.1610336 -0.7086792 -1.1610336c-0.16586304 0 -0.34680176 0.07539368 -0.48251343 0.24125671l0.030151367 -0.030158997l0 0c-4.65921 5.1567917 -3.2720032 13.374489 -0.7237549 19.164581c3.332306 7.614563 9.333496 13.947464 11.278595 22.180252l0 0c0.04525757 0.2563324 0.09048462 0.51264954 0.15078735 0.76898193l0.030151367 0l0 0c0 0 0 0 0 0c0.09048462 0.40711975 0.39205933 0.5880585 0.7087097 0.5880585c0.46740723 0 0.980072 -0.3920288 0.87454224 -1.0102386c-0.66345215 -3.5886536 -0.7237854 -6.8003387 1.7943115 -9.7104645c1.6133728 -1.8546371 3.6791077 -3.3473892 5.563904 -4.8703003c3.7997437 -3.0759888 7.509033 -6.317833 9.635071 -10.826256c0.3015747 -0.7991562 0.6936035 -1.5832291 1.1911926 -2.3220673c0.6333008 -0.7840729 1.1911926 -1.6435394 1.6586304 -2.5783997c1.8847656 -3.6791153 2.3069763 -7.780426 1.8847656 -11.851578c-0.015075684 -0.18093872 -0.18093872 -0.2864914 -0.31661987 -0.2864914z" fill-rule="evenodd"/><path fill="#301907" d="m300.00912 60.912685c-0.98776245 0.11945343 -1.9501648 0.31494522 -2.913391 0.63710403c-3.7114868 1.2557144 -6.9801025 4.435524 -7.194763 8.274376c-0.014892578 0.14419556 0.0020751953 0.28453064 0.04901123 0.40542603c0.1322937 0.15803528 0.27670288 0.28295898 0.5091858 0.33395386c2.134552 0.6753082 4.4393616 0.8870392 6.6856995 0.61538696c0.84439087 -0.10211182 1.6971436 -0.26852417 2.508606 -0.50904846l0 0c-0.55181885 1.5855637 -3.106903 1.3091736 -4.1087646 2.6485596c1.6715088 0.5889206 3.4233093 0.77259827 5.1279907 0.566452c2.0233154 -0.24468231 3.9806213 -1.0351257 5.6348267 -2.3268356l0 0c-0.286438 1.774971 -2.1517334 2.791603 -3.83255 3.5960693c0.9965515 0.35411835 2.05661 0.43160248 3.1240234 0.30251312c1.035553 -0.12522888 2.0466003 -0.45317078 2.9788208 -0.8981476c1.8765869 -0.9230728 3.442566 -2.40979 4.8951416 -3.8986053c1.0544739 -1.1717148 2.1838074 -2.5265198 2.152649 -4.1206894l5.5100403 -1.2200775c-4.044403 -1.6309395 -8.242279 -2.9268951 -12.5026245 -3.8039398c-2.831787 -0.5593529 -5.788086 -0.9454346 -8.623901 -0.6024971z" fill-rule="evenodd"/><path fill="#301907" d="m303.54965 78.64022c0.21374512 0.1531601 0.40124512 0.32330322 0.5718384 0.5170822c0.37265015 0.422081 -9.1552734E-5 0.9421692 -0.53652954 0.74861145l-0.011291504 0.01576233c-0.35751343 -0.1488266 -0.6980591 -0.3212967 -1.0482788 -0.44104767l-0.29244995 -0.10221863l-0.13613892 -0.025970459c-0.024230957 -0.005432129 -0.024230957 -0.005432129 -0.0335083 -0.01209259c0 0 0 0 0 0l0 0c-0.17327881 -0.052604675 -0.37280273 -0.08823395 -0.5630493 -0.11719513c-0.07833862 -0.00843811 -0.1659851 -0.023529053 -0.25 -0.024085999l-0.12680054 -0.019309998l0 0c-0.009307861 -0.0066604614 -0.054107666 -0.0029907227 -0.16235352 -0.008987427l-0.054107666 -0.0029907227l0 0c0 0 0 0 0 0l0 0c0.009277344 0.006652832 -0.059783936 0.0048828125 -0.06906128 -0.0017776489c-0.09893799 6.637573E-4 -0.19424438 0.01586914 -0.29882812 0.024421692c-0.33233643 0.012321472 -0.7885742 0.13863373 -1.1444397 0.026756287l0 0c-0.15304565 -0.0023269653 -0.30975342 -0.019195557 -0.43984985 -0.11241913c-0.027893066 -0.019981384 -0.050109863 -0.047836304 -0.08728027 -0.07447052l0 0c0 0 0 0 -0.009307861 -0.0066604614c-0.07434082 -0.053276062 -0.11480713 -0.15383148 -0.12173462 -0.24228668c-0.016601562 -0.035736084 -0.01260376 -0.080574036 -0.014221191 -0.11753082c-0.0029296875 -0.13330078 0.042236328 -0.19634247 0.10437012 -0.28302002c0.052459717 -0.033966064 0.08999634 -0.0667038 0.12753296 -0.09944916l0 0c0.21496582 -0.35882568 0.79800415 -0.4658203 1.2127075 -0.51454926c0.46316528 -0.037849426 0.916687 -0.022987366 1.3734741 0.06580353c0.68621826 0.1219635 1.4238281 0.38809967 2.0093079 0.8076248z" fill-rule="evenodd"/><path fill="#0b5394" d="m289.85095 165.43504c6.7700195 -0.1716919 29.173676 2.801239 35.330658 4.245758c6.156952 1.4445343 -1.2705688 -2.9492798 1.611145 4.421402c2.8817444 7.370682 11.524689 29.416306 15.67926 39.802704c4.154541 10.386398 6.9698486 15.278412 9.248108 22.515686c2.2782593 7.237259 5.3012695 13.762955 4.4213867 20.907898c-0.8798828 7.144928 -4.667389 12.54361 -9.700714 21.961731c-5.033325 9.418152 -15.884155 26.1073 -20.499207 34.547028c-4.6150513 8.439728 -4.7231445 14.003357 -7.191101 16.091309c-2.4679565 2.0879822 -6.3472595 -1.7670898 -7.616699 -3.563446c-1.2694397 -1.7963867 -0.12664795 -3.7346191 0 -7.214752c0.12667847 -3.4801636 0.1902771 -8.541046 0.75997925 -13.666138c0.56970215 -5.1250916 1.5531921 -11.570831 2.6582336 -17.08435c1.105072 -5.5135193 2.7325745 -11.915375 3.972168 -15.996735c1.239624 -4.0813904 2.3182373 -5.2832947 3.4655151 -8.491516c1.1472778 -3.208252 3.5820312 -7.0565796 3.418213 -10.75795c-0.16381836 -3.7013855 -1.9511719 -5.6840973 -4.401123 -11.450378c-2.4499512 -5.766281 -8.448151 -23.443985 -10.298584 -23.147308c-1.8504028 0.29667664 -0.73687744 17.355133 -0.8038635 24.927353c-0.0670166 7.57222 1.8762817 11.727341 0.4019165 20.50595c-1.4743347 8.7786255 -6.2999268 20.639954 -9.248108 32.16574c-2.9481506 11.525818 -5.7606506 30.958221 -8.440857 36.989105c-2.6801758 6.0308533 -5.1453247 4.7991333 -7.64032 -0.80389404c-2.494995 -5.6030273 -6.1231995 -24.698242 -7.32959 -32.81427c-1.2063904 -8.116028 -0.5944824 -9.087677 0.09118652 -15.881897c0.68566895 -6.79422 3.486908 -18.189972 4.022827 -24.883453c0.5359497 -6.6934357 0.14074707 -8.380035 -0.807251 -15.277283c-0.94799805 -6.8972473 -4.1331787 -19.323761 -4.880768 -26.10617c-0.7475891 -6.7823944 -1.0195007 -6.810547 0.39520264 -14.588242c1.4146729 -7.7776947 5.862549 -25.85228 8.092926 -32.077927c2.2304077 -6.225647 -1.4805298 -5.104248 5.289459 -5.275955z" fill-rule="evenodd"/><path fill="#301907" d="m291.09415 336.1601c-1.1610107 0.3015747 -2.367279 0.45236206 -3.5584717 0.45236206c-0.98010254 0 -1.9602051 -0.09048462 -2.9252014 -0.28649902c-0.13571167 0 -0.27142334 -0.060302734 -0.37695312 -0.060302734c-0.16586304 0.9197693 -0.3166504 1.8546143 -0.45236206 2.774414c-0.075408936 0.27139282 -0.030151367 0.55789185 0.13571167 0.7991333c0.16586304 0.13571167 0.36187744 0.24127197 0.5880432 0.24127197c0.030151367 0 0.060302734 -0.015075684 0.1055603 -0.015075684c3.9052734 0.3015442 7.825653 0.45233154 11.746033 0.45233154c2.9252014 0 5.850403 -0.07537842 8.775574 -0.25631714l-14.037933 -4.1013184z" fill-rule="evenodd"/><path fill="#301907" d="m294.66772 327.1131l-12.047607 0.21109009l1.387207 11.68573c0.6031494 0.060302734 1.1911926 0.13568115 1.7641602 0.22616577c0.6182251 0.030151367 1.221344 0.1055603 1.8094177 0.13571167l5.503601 -2.0808105l1.5832214 -10.177887z" fill-rule="evenodd"/><path fill="#301907" d="m315.8035 334.92398c-1.336029 0.40701294 -2.70047 0.5385437 -4.0484924 0.43707275c-0.8722229 -0.06567383 -1.7376099 -0.22845459 -2.594757 -0.50775146c-0.26489258 1.2686157 -0.52978516 2.537201 -0.76293945 3.808197c-0.09085083 0.38360596 -0.08517456 0.75497437 0.030151367 1.1541443c0.19110107 0.22912598 0.46694946 0.38656616 0.73654175 0.40686035c4.746887 0.96261597 9.56189 1.6375122 14.398834 2.001709c2.3788147 0.17907715 4.763092 0.28051758 7.152893 0.30426025l-14.912231 -7.604492z" fill-rule="evenodd"/><path fill="#301907" d="m309.33273 324.48126l-0.7281494 13.850037l0 0l8.866943 -2.07724l5.901825 -12.995636l-14.040619 1.2228394z" fill-rule="evenodd"/><path fill="#6fa8dc" d="m17.200834 363.88144l0 0c-2.9344797 -23.613983 13.030989 -45.03656 35.659874 -47.848602l0 0c10.866772 -1.3504028 21.848263 1.8592224 30.528683 8.922821c8.680412 7.0635986 14.348686 17.402557 15.757874 28.74237l0 0c2.9344788 23.614014 -13.030983 45.03656 -35.659866 47.848633l0 0c-22.628883 2.8120728 -43.35208 -14.051239 -46.28656 -37.665222z" fill-rule="evenodd"/><path fill="#6fa8dc" d="m68.08833 384.09042l0 0c-2.9344788 -23.613983 13.030991 -45.03653 35.659866 -47.848602l0 0c10.8667755 -1.3504028 21.848274 1.8592224 30.528687 8.922821c8.68042 7.0635986 14.348694 17.402557 15.757874 28.742401l0 0c2.9344788 23.613983 -13.030991 45.03653 -35.659866 47.848602l0 0c-22.628883 2.8120728 -43.35208 -14.0512085 -46.28656 -37.665222z" fill-rule="evenodd"/><path fill="#6fa8dc" d="m109.61809 352.39685l0 0c-2.9344788 -23.614014 13.030991 -45.03656 35.659866 -47.848633l0 0c10.8667755 -1.3504028 21.848282 1.8592529 30.528687 8.922852c8.68042 7.0635986 14.348694 17.402527 15.757889 28.74237l0 0c2.9344788 23.613983 -13.030991 45.03656 -35.65988 47.848602l0 0c-22.628876 2.8120728 -43.35208 -14.0512085 -46.28656 -37.66519z" fill-rule="evenodd"/><path fill="#6fa8dc" d="m143.27281 396.5721l0 0c-2.3179321 -18.652618 17.748398 -36.50067 44.819412 -39.864746l0 0c27.071014 -3.3641052 50.895477 9.029694 53.21341 27.682281l0 0c2.3179321 18.652618 -17.748413 36.50067 -44.819427 39.864746l0 0c-27.071014 3.3641052 -50.895462 -9.029694 -53.213394 -27.682281z" fill-rule="evenodd"/><path fill="#6fa8dc" d="m184.91153 350.4667l0 0c-1.6432037 -13.222961 12.656799 -25.884857 31.939957 -28.281158l0 0c19.283157 -2.3963013 36.247314 6.380432 37.89052 19.603394l0 0c1.6431885 13.222931 -12.656815 25.884827 -31.939972 28.281128l0 0c-19.283157 2.3963013 -36.247314 -6.380432 -37.890503 -19.603363z" fill-rule="evenodd"/><path fill="#6fa8dc" d="m231.11346 376.53412l0 0c-2.9344788 -23.614014 13.030991 -45.03656 35.65988 -47.848633l0 0c10.86676 -1.3504028 21.848267 1.8592529 30.528687 8.922852c8.680389 7.0635986 14.348663 17.402527 15.757874 28.74237l0 0c2.9344788 23.613983 -13.031006 45.03653 -35.65988 47.848602l0 0c-22.628876 2.8120728 -43.35208 -14.0512085 -46.28656 -37.66519z" fill-rule="evenodd"/><path fill="#6fa8dc" d="m77.84347 340.84808l0 0c-1.8870468 -15.185211 8.256866 -28.945923 22.657066 -30.735413l0 0c6.915222 -0.8593445 13.907188 1.2133179 19.437767 5.762024c5.530571 4.548706 9.146706 11.200836 10.052895 18.493042l0 0c1.8870392 15.185211 -8.256866 28.945923 -22.657066 30.735413l0 0c-14.4002 1.7894897 -27.603615 -9.069855 -29.490662 -24.255066z" fill-rule="evenodd"/><path fill="#6fa8dc" d="m252.06863 334.69464l0 0c-2.3179474 -18.652588 9.712433 -35.502014 26.870605 -37.634247l0 0c8.239655 -1.0239258 16.583984 1.5523376 23.197388 7.162079c6.6134033 5.609741 10.954102 13.793396 12.0672 22.750702l0 0c2.3179321 18.652588 -9.712433 35.502045 -26.870605 37.634247l0 0c-17.158173 2.1322327 -32.946655 -11.260162 -35.264587 -29.91278z" fill-rule="evenodd"/><path fill="#6fa8dc" d="m293.7589 356.04657l0 0c-2.9344788 -23.613983 13.030975 -45.03653 35.65985 -47.848602l0 0c10.866791 -1.3504028 21.848267 1.8592224 30.528687 8.922821c8.68042 7.0635986 14.348694 17.402557 15.757874 28.742401l0 0c2.9344788 23.613983 -13.030975 45.03653 -35.65985 47.848602l0 0c-22.628876 2.8120728 -43.35208 -14.0512085 -46.28656 -37.665222z" fill-rule="evenodd"/><path fill="#6fa8dc" d="m351.21695 389.47073l0 0c-2.9344788 -23.614014 13.031006 -45.03656 35.65988 -47.848633l0 0c10.86676 -1.3504028 21.848267 1.8592529 30.528687 8.922852c8.680389 7.0635986 14.348694 17.402527 15.757874 28.74237l0 0c2.9344788 23.613983 -13.031006 45.03656 -35.65988 47.848633l0 0c-22.628876 2.8120422 -43.35208 -14.051239 -46.28656 -37.665222z" fill-rule="evenodd"/><path fill="#6fa8dc" d="m408.7086 371.06885l0 0c-2.9344788 -23.613983 13.031006 -45.03656 35.65988 -47.848633l0 0c10.86676 -1.3504028 21.848267 1.8592529 30.528687 8.922852c8.68042 7.0635986 14.348694 17.402527 15.757874 28.74237l0 0c2.9344788 23.614014 -13.030975 45.03656 -35.65988 47.848633l0 0c-22.628876 2.8120728 -43.35208 -14.051239 -46.28656 -37.665222z" fill-rule="evenodd"/><path fill="#6fa8dc" d="m483.55765 373.02487l0 0c-2.9344788 -23.613983 13.030975 -45.03653 35.65988 -47.848602l0 0c10.86676 -1.3504028 21.848267 1.8592224 30.528687 8.922821c8.680359 7.0635986 14.348694 17.402557 15.757874 28.742401l0 0c2.9344482 23.613983 -13.031006 45.03653 -35.659912 47.848602l0 0c-22.628876 2.8120728 -43.35205 -14.0512085 -46.28653 -37.665222z" fill-rule="evenodd"/><path fill="#6fa8dc" d="m533.6015 335.2168l0 0c-2.9345093 -23.614014 13.030945 -45.03656 35.65985 -47.848633l0 0c10.86676 -1.3504028 21.848267 1.8592529 30.528687 8.922852c8.68042 7.0635986 14.348694 17.402527 15.757874 28.74237l0 0c2.9345093 23.613983 -13.031006 45.03656 -35.65985 47.848633l0 0c-22.628906 2.8120422 -43.35211 -14.051239 -46.28656 -37.665222z" fill-rule="evenodd"/><path fill="#6fa8dc" d="m370.42975 334.11386l0 0c-1.4894104 -11.985382 8.976837 -23.15213 23.377045 -24.94162l0 0c14.4002075 -1.7895203 27.28128 6.475891 28.77066 18.461273l0 0c1.4894104 11.985382 -8.976837 23.15213 -23.377045 24.94162l0 0c-14.400177 1.7895203 -27.28125 -6.475891 -28.77066 -18.461273z" fill-rule="evenodd"/><path fill="#6fa8dc" d="m471.46848 342.938l0 0c-2.3179321 -18.652588 9.712433 -35.502014 26.870605 -37.634247l0 0c8.239655 -1.0239258 16.584015 1.5523376 23.197357 7.162079c6.6134033 5.609741 10.954102 13.793396 12.067261 22.750702l0 0c2.3179321 18.652588 -9.712463 35.502045 -26.870636 37.634247l0 0c-17.158173 2.1322327 -32.946655 -11.260162 -35.264587 -29.91278z" fill-rule="evenodd"/><path fill="#6fa8dc" d="m508.75922 351.15347l0 0c-2.9344788 -23.614014 13.031006 -45.03656 35.659912 -47.848633l0 0c10.86676 -1.3504028 21.848267 1.8592529 30.528625 8.922852c8.68042 7.0635986 14.348694 17.402527 15.757935 28.74237l0 0c2.9344482 23.613983 -13.031006 45.03656 -35.659912 47.848633l0 0c-22.628845 2.8120422 -43.35208 -14.051239 -46.28656 -37.665222z" fill-rule="evenodd"/></g></svg>