<svg version="1.1" viewBox="0.0 0.0 2638.0787401574803 518.3490813648294" fill="none" stroke="none" stroke-linecap="square" stroke-miterlimit="10" xmlns:xlink="http://www.w3.org/1999/xlink" xmlns="http://www.w3.org/2000/svg"><clipPath id="p.0"><path d="m0 0l2638.0789 0l0 518.34906l-2638.0789 0l0 -518.34906z" clip-rule="nonzero"/></clipPath><g clip-path="url(#p.0)"><path fill="#000000" fill-opacity="0.0" d="m0 0l2638.0789 0l0 518.34906l-2638.0789 0z" fill-rule="evenodd"/><path fill="#301907" d="m496.9448 190.11568c0.9333191 0.20108032 1.9030151 0.30162048 2.8605652 0.30162048c0.7878723 0 1.5757446 -0.060317993 2.351471 -0.19102478c0.10910034 0 0.21820068 -0.040222168 0.30303955 -0.040222168c0.1333313 0.61331177 0.25454712 1.2366638 0.36361694 1.8499756c0.06060791 0.18096924 0.024261475 0.37199402 -0.109069824 0.53286743c-0.1333313 0.09048462 -0.29092407 0.16087341 -0.4727173 0.16087341c-0.024261475 0 -0.04849243 -0.010055542 -0.084869385 -0.010055542c-3.1393433 0.20108032 -6.290802 0.30162048 -9.442261 0.30162048c-2.3515015 0 -4.7029724 -0.05026245 -7.0544434 -0.1709137l11.284668 -2.7347412z" fill-rule="evenodd"/><path fill="#301907" d="m494.0721 184.08316l9.684692 0.14076233l-1.1151123 7.791992c-0.48486328 0.040222168 -0.95758057 0.09048462 -1.4181824 0.15081787c-0.49694824 0.020095825 -0.981781 0.070373535 -1.4545288 0.09048462l-4.424164 -1.3874817l-1.2727051 -6.7865753z" fill-rule="evenodd"/><path fill="#301907" d="m522.2462 189.3184c-1.0428467 0.34544373 -2.1270752 0.50949097 -3.2138672 0.51779175c-0.70318604 0.0053710938 -1.4074707 -0.054153442 -2.112976 -0.19154358c-0.12658691 0.85765076 -0.25323486 1.7153015 -0.35424805 2.5727692c-0.046875 0.259964 -0.01727295 0.5063629 0.10205078 0.76504517c0.1685791 0.14149475 0.40020752 0.23059082 0.6175537 0.22892761c3.8677979 0.3728485 7.770813 0.5507355 11.670349 0.5209503c1.9178467 -0.0146484375 3.8348389 -0.081207275 5.7509155 -0.19967651l-12.459778 -4.214264z" fill-rule="evenodd"/><path fill="#301907" d="m515.95557 183.43048l0.3513794 9.241989l0 0l6.963379 -1.878067l3.8510132 -8.965027l-11.1657715 1.6011047z" fill-rule="evenodd"/><path fill="#134f5c" d="m467.94162 89.39126l-5.256592 3.6797028l-3.0646973 6.159874l-6.7889404 6.758919l-6.5778503 2.0179672l-8.445435 -2.6273956l-9.047791 -6.902565l7.1987915 2.685295l9.580353 -0.0048828125l8.54483 -4.6879272l8.904999 -5.99395z" fill-rule="evenodd"/><path fill="#134f5c" d="m441.0653 94.04996l-8.010834 -2.2181396l-11.486725 -5.5024033l-10.426239 -9.849968l-6.3108215 -1.4343414l6.403961 3.5806198l10.842255 9.831131l7.7438354 5.6718903l7.5961914 2.2369156z" fill-rule="evenodd"/><path fill="#134f5c" d="m475.20734 74.439156l-1.8739014 4.8147964l-10.549042 6.5002365l-13.571716 4.054779l-10.449707 -0.8165283l-11.90271 -5.4821167l10.811279 -0.489563l11.0381775 -4.8022842l8.998138 -3.8476715l8.297821 -0.8061371z" fill-rule="evenodd"/><path fill="#134f5c" d="m477.0253 68.33428l-3.5490417 -5.0010605l-18.008575 -2.1943512l-15.2716675 3.2724228l-12.435394 1.4224396l-5.480133 -1.4719543l6.5529785 7.0155334l7.273285 4.402031l7.521637 0.51873016l9.4313965 -3.436905l6.540558 -2.87706l9.147156 -0.41420746l5.082733 1.9203415z" fill-rule="evenodd"/><path fill="#134f5c" d="m386.2881 50.938126l7.8196716 7.3871155l6.8013916 3.1336823l6.081024 5.745735l1.848999 4.21727l-10.126801 -2.9816513l-5.1572876 -3.6385193z" fill-rule="evenodd"/><path fill="#134f5c" d="m400.046 51.17446l9.389343 5.1669884l3.5675964 5.429165l4.492859 7.5392075l5.647766 5.3349686l6.820038 3.5632324l-7.4472046 1.1965561l-9.010498 -6.0434723l-6.8882446 -14.741566z" fill-rule="evenodd"/><path fill="#134f5c" d="m402.31726 45.90984l-6.98761 -7.424797l-18.381195 -10.780916l11.859283 14.0875225l8.103882 4.3629723z" fill-rule="evenodd"/><path fill="#134f5c" d="m431.65738 59.636173l-9.786713 -4.718605l-8.74353 -9.497231l-10.159271 -13.303722l-7.2546387 -3.9724865l5.685089 6.195505l4.92749 7.948471l2.7928467 6.755413l9.215424 10.765579l5.913391 1.8827248z" fill-rule="evenodd"/><path fill="#134f5c" d="m431.17792 10.194994l4.492798 7.5377655l11.59845 8.076782l17.456024 8.672316l8.8194275 11.213898l4.095459 7.9875984l-6.3853455 -3.1525192l-8.030853 -2.6476212l-8.501343 -3.916031l-8.668976 -7.779045l-9.252716 -11.62467z" fill-rule="evenodd"/><path fill="#134f5c" d="m436.21097 30.18234l-9.308563 -12.911858l-27.3172 -15.1076565l10.196472 14.161369l13.789001 10.5584755z" fill-rule="evenodd"/><path fill="#134f5c" d="m451.18594 48.85871l-7.5154114 -9.981781l-19.027008 -6.45068l-10.220001 -5.1293736l-17.642273 -12.964875l14.2361145 20.861778l15.035675 10.502022l14.211243 1.0765839z" fill-rule="evenodd"/><path fill="#134f5c" d="m397.6057 23.757437l-18.547424 -14.643996l7.5512695 10.840934z" fill-rule="evenodd"/><path fill="#134f5c" d="m423.7445 50.10133l8.8428955 2.180458l19.975647 -0.47415924l12.169739 2.029808l8.917389 3.897194l5.627777 4.906933l-11.826813 -3.7654457l-5.877594 -1.0250168l-13.304657 0.6024704l-11.715027 -1.189621l-9.71225 -3.0018692z" fill-rule="evenodd"/><path fill="#134f5c" d="m466.65143 98.051674l-4.1699524 19.114365l-4.02713 3.193634l-9.997833 0.022338867l6.4660645 -4.593796l5.7533875 -11.443405z" fill-rule="evenodd"/><path fill="#134f5c" d="m470.35046 107.38317l2.1350403 13.493187l-3.5185242 8.154129l-12.399384 -0.23843384l9.032288 -6.0040665z" fill-rule="evenodd"/><path fill="#134f5c" d="m531.02136 87.734695l5.3808594 3.5532303l3.2756348 6.0865173l7.0186768 6.595764l6.644165 1.8594742l8.350647 -2.8313675l8.805176 -7.1214676l-7.102539 2.8592072l-9.575806 0.2262268l-8.702209 -4.482231l-9.1073 -5.779686z" fill-rule="evenodd"/><path fill="#134f5c" d="m558.045 91.74547l7.930298 -2.411583l11.29126 -5.780014l10.08136 -10.102394l6.2581787 -1.5867081l-6.2772217 3.7354355l-10.497864 10.09359l-7.5443115 5.8592224l-7.515259 2.4203644z" fill-rule="evenodd"/><path fill="#134f5c" d="m523.2436 72.95649l2.0390015 4.770027l10.768005 6.246361l13.704773 3.7277527l10.416382 -1.0686874l11.707703 -5.7697525l-10.822815 -0.22880554l-11.198303 -4.5364456l-9.126343 -3.6309586l-8.321533 -0.60604095z" fill-rule="evenodd"/><path fill="#134f5c" d="m521.216 66.894905l3.3747559 -5.087139l17.92395 -2.6289825l15.376953 2.9043274l12.4782715 1.1225815l5.4266357 -1.6042862l-6.3078003 7.174259l-7.117859 4.577896l-7.499939 0.70022583l-9.545288 -3.2097092l-6.6365356 -2.7195435l-9.15686 -0.19358826l-5.013977 2.043129z" fill-rule="evenodd"/><path fill="#134f5c" d="m611.30804 47.308258l-7.560974 7.5764313l-6.6899414 3.2980423l-5.879822 5.892967l-1.7026367 4.262253l10.018921 -3.2262115l5.029236 -3.7632675z" fill-rule="evenodd"/><path fill="#134f5c" d="m597.5651 47.876503l-9.206421 5.3939667l-3.378601 5.515728l-4.230591 7.6482887l-5.4609375 5.4717026l-6.6937866 3.7280731l7.484741 1.0170212l8.797607 -6.2613983l6.376404 -14.909088z" fill-rule="evenodd"/><path fill="#134f5c" d="m595.11346 42.666183l6.7280273 -7.59404l18.000244 -11.225328l-11.367493 14.374907l-7.949402 4.5588646z" fill-rule="evenodd"/><path fill="#134f5c" d="m566.26135 57.101566l9.61908 -4.9551277l8.411621 -9.709026l9.695435 -13.550028l7.1140137 -4.1478577l-5.468628 6.3332195l-4.650879 8.068069l-2.5584717 6.82341l-8.839539 10.98888l-5.84552 2.025547z" fill-rule="evenodd"/><path fill="#134f5c" d="m565.0354 7.644266l-4.230591 7.646841l-11.314148 8.357321l-17.148193 9.09421l-8.428284 11.427689l-3.8179932 8.087128l6.2734985 -3.3068466l7.935547 -2.841591l8.362061 -4.121475l8.396362 -7.988888l8.847168 -11.848948z" fill-rule="evenodd"/><path fill="#134f5c" d="m560.6942 27.754868l8.858582 -13.137601l26.782593 -15.768031l-9.703003 14.408648l-13.417969 10.892086z" fill-rule="evenodd"/><path fill="#134f5c" d="m546.3708 46.79421l7.1674194 -10.163998l18.795044 -6.9102707l10.038025 -5.3763866l17.18634 -13.391662l-13.5095215 21.207119l-14.666016 10.8657l-14.166992 1.4195099z" fill-rule="evenodd"/><path fill="#134f5c" d="m599.05865 20.398085l18.033142 -15.092772l-7.173645 11.024096z" fill-rule="evenodd"/><path fill="#134f5c" d="m573.84143 47.37496l-8.763306 2.393978l-19.982056 0.007675171l-12.093689 2.323574l-8.778503 4.112667l-5.4557495 5.043148l11.69104 -4.051098l5.8392944 -1.1668968l13.318848 0.28157043l11.668152 -1.4723358l9.603882 -3.2364388z" fill-rule="evenodd"/><path fill="#134f5c" d="m532.6096 96.364784l4.8270874 19.015526l4.135254 3.0967789l9.993652 -0.21883392l-6.621277 -4.43824l-6.1452026 -11.305664z" fill-rule="evenodd"/><path fill="#134f5c" d="m529.23425 105.78637l-1.6686401 13.545937l3.7980347 8.070007l12.384949 -0.53757477l-9.234863 -5.7867355z" fill-rule="evenodd"/><path fill="#301907" d="m498.71368 35.44793c-1.447815 0 -2.7817383 0.6684456 -3.9529724 2.5494308c-2.8955994 4.679138 -5.0591736 9.669186 -8.068634 14.270599c-1.7893982 2.7359734 -3.676422 5.425312 -4.7175293 8.503284c-1.0411072 3.0313377 -1.0736389 6.591213 0.7808533 9.280552c1.8707275 2.6737976 5.18927 3.9951477 8.475281 4.2749634c0.5531006 0.04663849 1.1061707 0.07772827 1.6592712 0.07772827c2.7166443 0 5.4658203 -0.55963135 8.133667 -1.1037216l20.187805 -4.0573273c2.2774658 -0.48190308 4.782593 -1.0259857 6.246643 -2.7670593c2.5377197 -2.9069786 0.89471436 -7.306301 -1.2200317 -10.477547c-5.2543335 -7.928108 -12.672241 -14.270599 -21.424103 -18.43674c-2.2123718 -1.0570831 -4.2620544 -2.1141624 -6.1002502 -2.1141624z" fill-rule="evenodd"/><path fill="#e7b790" d="m497.1632 36.98054c1.3596191 -0.07281494 2.8944397 -0.017799377 4.736786 0.43688965c1.8423462 0.45468903 4.957672 1.8003082 6.3172913 2.2912445c1.3596191 0.49093246 1.0509338 0.3634262 1.8403931 0.6543617c0.7894592 0.29093552 2.6989136 0.4365654 2.8964233 1.0912552c0.19744873 0.654686 -1.4263611 1.9456139 -1.7116394 2.836872c-0.28527832 0.8912544 0.3289795 2.655964 0 2.5106583c-0.3289795 -0.14530563 -1.5793152 -3.109684 -1.9738464 -3.3824997c-0.39456177 -0.2728119 -0.52490234 0.9271774 -0.39337158 1.7456207c0.13150024 0.8184395 1.5336609 2.0737686 1.1824341 3.1650238c-0.3512268 1.0912514 -2.4784546 2.600624 -3.2897644 3.3824959c-0.8113098 0.7818718 -0.30633545 0.8883438 -1.5781555 1.3087273c-1.2717896 0.42038345 -5.614044 0.93850327 -6.052704 1.2135811c-0.43862915 0.27508163 3.9692078 0.5116501 3.4208984 0.43689346c-0.5482788 -0.07476044 -5.219513 -0.5194168 -6.710663 -0.8854332c-1.4911194 -0.3660164 -1.6218567 -0.8194084 -2.236084 -1.310669c-0.6142578 -0.4912567 -1.1203918 -1.0187607 -1.4493713 -1.636879c-0.3289795 -0.6181183 -0.43707275 -1.2352638 -0.5245056 -2.071827c-0.087402344 -0.8365631 -0.10964966 -1.9653587 0 -2.9475517c0.109680176 -0.982193 0.3512268 -1.9818611 0.657959 -2.9456062c0.30673218 -0.96374893 0.5686035 -1.8184319 1.1824341 -2.836872c0.6138611 -1.0184402 2.456604 -2.9100113 2.500702 -3.2737617c0.0440979 -0.36375046 -2.4335632 1.0550079 -2.2361145 1.0912552c0.19747925 0.03624344 2.0612793 -0.80096436 3.4208984 -0.8737793z" fill-rule="evenodd"/><path fill="#000000" fill-opacity="0.0" d="m484.3382 94.85327c4.586548 0.3391571 22.93274 1.6957855 27.519287 2.034935" fill-rule="evenodd"/><path stroke="#8b5a32" stroke-width="1.0" stroke-linejoin="round" stroke-linecap="butt" d="m484.3382 94.85327c4.586548 0.3391571 22.93274 1.6957855 27.519287 2.034935" fill-rule="evenodd"/><path fill="#e7b790" d="m510.07193 84.52908l-23.651398 2.8590393l-4.2130737 13.993538c0 0 8.174347 7.160713 17.307556 7.160713c0.41644287 0 0.84259033 -0.013114929 1.2687683 -0.039344788c9.656189 -0.7213211 12.435883 -3.8033066 12.435883 -3.8033066l-3.1477356 -20.170639z" fill-rule="evenodd"/><path fill="#e7b790" d="m497.15405 58.169437l-3.783844 8.312695l7.578125 4.074005l8.696503 -1.2308731l-1.5574341 -11.121155l-10.93335 -0.034671783z" fill-rule="evenodd"/><path fill="#e7b790" d="m507.43936 47.750397l-9.3446045 2.6524353l-0.20904541 1.3522224l-0.34490967 2.4704056l-0.15679932 1.0835075l-0.13589478 1.0661774l-0.020904541 0.07801056l-0.20904541 1.3868942l-0.20904541 1.4649086l-0.36584473 2.5917587l11.6441345 -3.6926079l-0.14633179 -2.0543365l-0.501709 -8.399376z" fill-rule="evenodd"/><path fill="#ba68b3" d="m510.63785 85.08385c-0.38674927 0 -0.6585083 0.2773819 -0.8153076 0.58943176l0.66897583 -0.017333984c0.052246094 0.07801056 0.104522705 0.104011536 0.1567688 0.104011536c0.2508545 0 0.48083496 -0.6414337 0.03137207 -0.6761093c-0.020904541 0 -0.03137207 0 -0.041809082 0z" fill-rule="evenodd"/><path fill="#e7b790" d="m484.7155 62.67684c0 0 0 0.0173378 0 0.0173378c0.020904541 0 0.020904541 -0.0173378 0 -0.0173378z" fill-rule="evenodd"/><path fill="#e7b790" d="m484.7155 64.85253c-0.020904541 0 -0.020904541 0.017341614 0 0.017341614c0.020904541 0 0.020904541 -0.017341614 0 -0.017341614z" fill-rule="evenodd"/><path fill="#e7b790" d="m467.8869 107.47352l-1.9023743 0.32071686c0.1567688 0.68478394 -0.48083496 1.2915497 -1.0348206 1.8289642c-0.89889526 0.85814667 -1.536499 1.8636398 -1.8814392 2.9471512c-0.32403564 1.10952 -0.114990234 2.2710419 0.5539856 3.259201c0.11495972 0.14736176 0.29266357 0.3207245 0.501709 0.3207245c0.13589478 -0.017341614 0.2508545 -0.07801819 0.3449402 -0.14736176c0.32403564 -0.2166977 0.5539856 -0.5200882 0.6898804 -0.84080505c0.31356812 0.2427063 0.27175903 0.7627945 0.68984985 0.9101486c0.06271362 0.017341614 0.13589478 0.026008606 0.1986084 0.026008606c0.22994995 0 0.4494629 -0.08668518 0.5539856 -0.2513733c0.15679932 -0.22537231 0.22994995 -0.45941162 0.2508545 -0.7021179c0.22994995 0.22537231 0.36584473 0.5460892 0.6898804 0.6847763c0.052246094 0.017341614 0.11495972 0.026008606 0.16723633 0.026008606c0.3031311 0 0.6166992 -0.25138092 0.4076538 -0.45074463l0 0c0.32403564 0.13868713 0.7107544 0.26004028 1.0556946 0.26004028c0.2508545 0 0.47036743 -0.060676575 0.6480713 -0.2166977c0.13586426 -0.13002014 0.19857788 -0.30338287 0.2508545 -0.4767456c0.3449402 -1.2742081 0.041809082 -2.6090927 -0.4598999 -3.8486328c-0.5121765 -1.2308655 -1.2229614 -2.418396 -1.7246704 -3.6492615z" fill-rule="evenodd"/><path fill="#e7b790" d="m467.58377 107.7769l0.87802124 4.264702c0.16723633 -0.0693512 0.33447266 -0.104019165 0.501709 -0.104019165c0.62716675 0 1.2647705 0.41606903 1.6828613 0.86680603c0.5226135 0.5460892 1.0556946 1.2308731 1.9232788 1.3262177c0.041809082 -0.9881592 0.57489014 -1.99366 0.094055176 -2.9471512c-0.501709 -0.9534836 -1.8396301 -1.3348846 -2.9162598 -1.8462982c-0.84664917 -0.39873505 -1.5887756 -0.9361572 -2.1636658 -1.560257z" fill-rule="evenodd"/><path fill="#e7b790" d="m488.45752 62.260777c0 0 -18.365143 7.0644875 -26.497223 16.469364c-8.121643 9.39621 2.8535461 31.213783 2.8535461 31.213783l4.337799 -0.79746246c0 0 -6.428314 -22.276985 9.846313 -28.387985c16.253723 -6.102333 27.981476 -18.194317 9.459564 -18.4977z" fill-rule="evenodd"/><path fill="#e7b790" d="m510.9305 60.7872c-2.3518372 0 -4.599121 1.9156456 -6.3133545 6.535736c0 0 3.1462402 16.564713 11.800934 25.640205c5.3935547 5.6515884 18.386047 6.717766 27.42749 6.717766c5.508545 0 9.55365 -0.39873505 9.55365 -0.39873505l0.29266357 -3.67527c0 0 -27.615662 -1.0054932 -30.207886 -15.663231c-1.7977905 -10.037643 -7.4317627 -19.156471 -12.553497 -19.156471z" fill-rule="evenodd"/><path fill="#ba68b3" d="m497.15405 56.698574c-13.431549 0.9448242 -9.846313 11.762592 -9.459564 16.313343c0.36584473 4.550743 -5.48761 14.449699 -5.48761 14.449699l5.309906 1.4042282c0 0 8.309784 -0.79746246 11.518707 -0.9534836c0.3972168 -0.017341614 0.7630615 -0.026008606 1.1184387 -0.026008606c2.5295105 0 4.139221 0.4940796 6.4596863 1.6122665c1.5051575 0.7107849 3.7210999 0.86680603 5.362152 0.86680603c1.2438354 0 2.1427612 -0.08667755 2.1427612 -0.08667755c0 0 0.052246094 -10.054985 -0.13586426 -12.551392c-0.18817139 -2.5050812 2.2681885 -4.542076 2.2681885 -6.275696c0 -1.7336197 -8.163452 -14.7184105 -8.163452 -14.7184105l-0.53308105 6.24102l-10.400269 -6.275696z" fill-rule="evenodd"/><path fill="#ba68b3" d="m492.56396 57.637573c-2.0696106 0.82346725 -6.4492493 1.8896408 -9.637268 3.415226c-3.2193909 1.5342522 -5.8325195 2.7564507 -5.8325195 2.7564507c0 0 2.2681885 11.953293 10.922913 14.354355c1.1497803 0.32071686 2.1636963 0.459404 3.0625916 0.459404c5.94751 0 7.013672 -5.98098 7.013672 -5.98098l-5.5293884 -15.004456z" fill-rule="evenodd"/><path fill="#ba68b3" d="m508.0874 58.20411l3.303009 18.983109l11.706879 -5.1228333c0 0 -0.6480713 -3.0685043 -4.4110107 -8.304031c-3.7628784 -5.235523 -10.598877 -5.556244 -10.598877 -5.556244z" fill-rule="evenodd"/><path fill="#301907" d="m500.67224 44.777264c-1.4006348 0 -1.4006348 1.7856255 0 1.7856255c1.3797302 0 1.3797302 -1.7856255 0 -1.7856255z" fill-rule="evenodd"/><path fill="#301907" d="m494.74948 43.848152c-1.1915894 0 -1.1915894 1.5429192 0 1.5429192c1.1915894 0 1.1915894 -1.5429192 0 -1.5429192z" fill-rule="evenodd"/><path fill="#301907" d="m497.10925 44.99557c-0.07739258 0 -0.16442871 0.03608322 -0.18377686 0.10423279c-0.06289673 0.20044708 -0.09674072 0.4048996 -0.13058472 0.60534286c-0.03869629 0.1844101 -0.11608887 0.3527832 -0.22247314 0.5091324c-0.106414795 0.16035461 -0.2659912 0.28462982 -0.4449463 0.37282562c-0.203125 0.06815338 -0.39172363 0.15634918 -0.575531 0.2726059c-0.15957642 0.10423279 -0.2321167 0.2726059 -0.1982727 0.440979c0.03869629 0.16436386 0.21279907 0.2726059 0.38208008 0.37683868c0.34820557 0.2204895 0.7738037 0.44899368 1.21875 0.46503067c0.06286621 0 0.10638428 -0.06814957 0.05319214 -0.10423279l0 -0.008014679c-0.29501343 -0.228508 -0.6770935 -0.3688202 -0.9866028 -0.5812912c-0.08706665 -0.0440979 -0.15960693 -0.10423279 -0.23214722 -0.16837311c-0.05319214 -0.06815338 -0.014526367 -0.12427902 0.06286621 -0.1844101c0.15960693 -0.11225128 0.39175415 -0.15634918 0.56100464 -0.24454498c0.3095398 -0.1763916 0.541687 -0.42494202 0.6722412 -0.7055664c0.15960693 -0.33674622 0.22247314 -0.6975479 0.169281 -1.0463219c-0.009674072 -0.07215881 -0.07739258 -0.10423279 -0.14508057 -0.10423279z" fill-rule="evenodd"/><path fill="#301907" d="m500.34668 42.217606c-0.2290039 0 -0.44802856 0.019321442 -0.66708374 0.05796051c-0.47790527 0.08371353 -0.47790527 0.5087395 0 0.61177444l0 0.012878418c0.32858276 0.05796051 0.657135 0.09659958 0.9657898 0.16743469l0.2588501 0.057956696l0.10952759 0.03863907c0.019927979 0.006439209 0.019927979 0.006439209 0.029876709 0.006439209c0 0 0 0 0 0l0 0c0.14935303 0.03863907 0.3086548 0.09659958 0.4579773 0.15455627c0.059753418 0.025756836 0.12945557 0.051517487 0.18917847 0.083717346l0.09957886 0.03863907l0 0c0.0099487305 0 0.03982544 0.019317627 0.11947632 0.057956696l0.03982544 0.019317627l0 0c0 0 0 0 0 0l0 0c-0.009979248 0 0.03982544 0.02576065 0.04977417 0.02576065c0.06970215 0.03863907 0.12942505 0.083717346 0.1991272 0.12879562c0.2290039 0.13523483 0.487854 0.37994385 0.7965088 0.45722198l0 0c0.10952759 0.057956696 0.2290039 0.10947418 0.3683777 0.10947418c0.029876709 0 0.059753418 -0.006439209 0.09957886 -0.006439209l0 0c0 0 0 0 0.0099487305 0c0.07965088 0 0.15930176 -0.03863907 0.20907593 -0.083717346c0.029876709 -0.012878418 0.049804688 -0.03863907 0.06970215 -0.057956696c0.06970215 -0.07083893 0.06970215 -0.122356415 0.06970215 -0.19319153c-0.019927979 -0.03863907 -0.029876709 -0.07083893 -0.03982544 -0.10303879l0 0c0.029876709 -0.27690887 -0.32855225 -0.56025696 -0.5973816 -0.7470093c-0.3086548 -0.19963455 -0.63720703 -0.36706543 -1.0056152 -0.49586105c-0.5475769 -0.19963455 -1.2047119 -0.3413086 -1.8319702 -0.3413086z" fill-rule="evenodd"/><path fill="#301907" d="m497.89188 31.979584c-2.783142 0.17145157 -5.0481567 0.5108948 -5.851074 0.90803146c-0.37329102 0.16206741 -0.67630005 0.40672302 -0.9009094 0.70738983c0.84588623 -0.034721375 1.684845 0.08743286 2.4535828 0.36167908c0.87683105 0.3110428 1.347992 0.89045334 2.1565247 1.2578545c0.47143555 0.23171616 0.8432312 0.2870407 1.2185059 0.26392365c0.37524414 -0.023117065 0.7539673 -0.12467575 1.2295837 -0.19743347c0.14437866 -0.02627945 0.29995728 -0.044555664 0.46673584 -0.054828644c1.7303467 -0.106594086 4.6090393 0.4375 4.2144775 2.0002708l0.09536743 0.011508942c0 0 0.27423096 3.5294037 1.7296143 4.6826935c1.4449768 1.1539268 3.501007 0.4709854 2.5612488 3.3189812c-0.84521484 2.6161766 -0.12496948 3.519226 0.5525818 3.4774895c0.062561035 -0.0038528442 0.12432861 -0.016349792 0.18609619 -0.02884674c0.27444458 -0.09513855 0.39675903 -0.48511505 0.54333496 -0.9548149c0.016143799 -0.28782654 0.10681152 -0.5628624 0.2727356 -0.81645584c0.18673706 -0.48955917 0.51208496 -0.9528885 1.1239929 -1.0253525l0.093811035 -0.0057792664c0.2520752 -0.11113739 0.5192261 -0.17105484 0.76937866 -0.18646622c0.9798584 -0.060359955 1.8517761 0.5465126 2.151947 1.44067c0.53204346 1.6099968 -0.29992676 3.3213997 -2.0269775 4.166603c-0.7322693 0.36671066 -1.5402832 0.5903244 -2.3845825 0.642334c-0.11468506 0.0070648193 -0.24053955 0.006126404 -0.36639404 0.0051879883l-0.020843506 0.001285553c-0.26263428 1.1635094 -0.48510742 2.3071594 -0.37823486 3.500061c1.5036316 -0.41423035 3.6797485 -1.0437241 4.7189026 -1.611866c1.6903687 -0.9037895 7.2944336 -4.5693207 7.019226 -10.567162c-0.3057251 -5.987274 -2.268982 -7.778553 -6.930969 -9.977245c-2.9970398 -1.3973026 -9.694275 -1.6279354 -14.697662 -1.3197136z" fill-rule="evenodd"/><path fill="#ffffff" d="m494.6866 48.792107c0 0 0 2.0369987 1.6515198 2.7737885c0.2612915 0.11268616 0.501709 0.16469193 0.73165894 0.16469193c1.3065796 0 2.236847 -1.4562378 2.236847 -1.4562378l-4.6200256 -1.4822426z" fill-rule="evenodd"/><path fill="#301907" d="m505.7774 35.138332c-0.05227661 0 -0.104522705 0.026000977 -0.12542725 0.06934357c-0.41812134 0.988163 -1.1706848 1.8636398 -2.1636963 2.5137444c-0.48080444 0.32072067 -1.0034485 0.58943176 -1.5574341 0.79746246c-0.27175903 0.09535217 -0.5539856 0.19070053 -0.8257446 0.2687111c-0.3031311 0.078014374 -0.6480408 0.13002396 -0.94073486 0.22537231c-0.18814087 0.043338776 -0.13586426 0.2687111 0.041809082 0.28604507c0.66897583 0 1.3379517 -0.11268234 1.9337463 -0.35538864c0.6166992 -0.2340393 1.1915894 -0.5374222 1.7142029 -0.9014816c0.9930115 -0.7194519 1.7246704 -1.6902771 2.048706 -2.7564545c0.031341553 -0.09534836 -0.041809082 -0.14735413 -0.12542725 -0.14735413z" fill-rule="evenodd"/><path fill="#e79e5f" d="m504.21835 53.37683c-0.07632446 0 -0.19085693 0.0346756 -0.35308838 0.11268997c-0.9161377 0.4680977 -2.5957336 0.58078766 -3.9794922 0.58078766c-1.0783691 0 -1.9849548 -0.06934738 -2.1853638 -0.086681366l-0.14315796 1.0662193l0 0.07801819l-0.19085693 1.3869553c0.03817749 0 0.07635498 0 0.11453247 0c4.6283875 0 7.443634 -3.137989 6.7374268 -3.137989z" fill-rule="evenodd"/><path fill="#ba68b3" d="m514.10504 46.890724l-0.010498047 0.017333984l0 0c0 0 0.010498047 -0.008666992 0.010498047 -0.017333984zm0.094055176 0.17336273l-0.03137207 0.017333984l0 0c0.010437012 -0.008666992 0.020935059 -0.008666992 0.03137207 -0.017333984zm-0.41809082 -0.0346756l0.041809082 0.06934738l0 0c-0.020935059 -0.026004791 -0.03137207 -0.04334259 -0.041809082 -0.06934738zm0.59576416 0.22537231l-0.052246094 0.008666992l0 0c0.020874023 0 0.03137207 -0.008666992 0.052246094 -0.008666992zm0.041809082 0.086681366c0.03137207 0.008666992 0.052246094 0.008666992 0.07318115 0.008666992l-0.07318115 -0.008666992zm0.052246094 -6.4923973c-0.8779907 0 -1.7455444 0.13002014 -2.5503845 0.39006424c-1.5574341 0.5200844 -2.9162598 1.3175468 -3.7629395 2.5570831c-0.8257446 1.2135353 -1.0765991 2.6437683 -0.68984985 3.9959908c0 0.008666992 0.010437012 0.026004791 0.010437012 0.034671783l0 0c0.18814087 1.2135315 0.7944031 2.3750534 1.8082886 3.2938728c1.3274841 1.2395363 3.2194214 1.9156456 5.142639 1.9156456c0.93029785 0 1.8814697 -0.15602493 2.7699585 -0.4854126c2.7385864 -0.988163 4.3691406 -3.3545494 4.06604 -5.807617c-0.13586426 -1.1615257 -0.38671875 -2.6090927 -1.2125244 -3.5972557c-1.2333984 -1.4995804 -3.4075317 -2.2970428 -5.581665 -2.2970428z" fill-rule="evenodd"/><path fill="#e79e5f" d="m514.90247 44.629887c-0.4598999 0 -0.8989258 0.09534836 -1.3065796 0.28604507l-0.512146 0.34672546c-0.31359863 0.2427063 -0.54351807 0.58942795 -0.6585083 0.9448204l0 -0.017333984l0 0c-0.16723633 0.55475616 -0.07318115 1.1441841 0.2508545 1.6382675c0.36584473 0.4767456 0.9197998 0.82346725 1.536499 0.9881592l0.6898804 0.078014374c0.4598999 0 0.88848877 -0.11268616 1.2857056 -0.30338287l0.522583 -0.32072067c0.32403564 -0.26870728 0.5540161 -0.58942795 0.66900635 -0.9361534c0.094055176 -0.28604507 0.1149292 -0.57209396 0.041809082 -0.85813904c-0.15679932 -0.83213806 -0.86761475 -1.5169144 -1.8292236 -1.7682915l-0.6898804 -0.07801056z" fill-rule="evenodd"/><path fill="#e79e5f" d="m501.12204 30.69747c-0.8780823 0 -1.7666016 0.039045334 -2.5505981 0.17960739c-1.0035095 0.17180061 -1.975647 0.74186134 -1.6098022 1.6008587c0.114990234 0.304554 0.4494934 0.44511795 0.7839966 0.44511795c0.40768433 0 0.81536865 -0.21084595 0.82580566 -0.6012993l0 -0.015617371c0.010467529 -0.09370804 0.27178955 -0.13275528 0.6899109 -0.13275528c1.7561646 0 6.2824097 0.6637726 6.8468933 0.73405457c1.3484802 0.18741608 2.7073975 0.4060707 4.0349426 0.67938614c0.36587524 0.08589935 1.2857666 0.15618134 1.5888977 0.38264465c0 0 0.08364868 0.85899734 0.114990234 1.0464134c0.27182007 2.038166 0.90945435 4.02948 1.1707458 6.067646l0.7735596 6.3956223c0.07318115 0.57006073 0.7213135 0.85899734 1.3275757 0.85899734c0.6062622 0 1.1707764 -0.28112411 1.0871582 -0.85899734c-0.3449707 -2.7097435 -0.82580566 -5.3960648 -1.0349121 -8.105808c-0.114990234 -1.3587761 -0.020874023 -2.6941261 -0.15679932 -4.052906c-0.114990234 -1.1635513 0 -2.6550827 -1.5679932 -3.3422794c-1.3484497 -0.5856781 -3.2822876 -0.632534 -4.7666626 -0.8199501c-1.745697 -0.2420826 -3.5436707 -0.38264465 -5.3102417 -0.42949867c-0.7003784 0 -1.473938 -0.031236649 -2.247467 -0.031236649z" fill-rule="evenodd"/><path fill="#e7b790" d="m557.413 94.332695c-0.03137207 0 -0.07318115 0 -0.114990234 0c-1.5574341 0.026008606 -3.073059 0.5720978 -4.4109497 1.2568741c-1.3275146 0.6847763 -2.539978 1.542923 -3.8988037 2.2276993l0.84661865 1.4649048c0.1986084 -0.07801056 0.3972168 -0.104011536 0.5958252 -0.104011536c0.59576416 0 1.2333984 0.27737427 1.7978516 0.5027466c1.1915894 0.5374222 2.519043 0.82346344 3.8778687 0.84080505c0.03137207 0 0.052246094 0 0.083618164 0c1.3483887 0 2.6445312 -0.43340302 3.6165771 -1.1788635c0.17773438 -0.11268616 0.27178955 -0.30338287 0.2508545 -0.4767456c-0.052246094 -0.09534454 -0.14630127 -0.19069672 -0.22991943 -0.2513733c-0.3449707 -0.2080307 -0.74212646 -0.32071686 -1.1497803 -0.35539246c0.20904541 -0.32938385 0.8257446 -0.39872742 0.8989258 -0.76278687c0.041809082 -0.2513733 -0.16723633 -0.4940796 -0.43902588 -0.5720978c-0.17767334 -0.03466797 -0.34490967 -0.052009583 -0.52264404 -0.052009583c-0.114990234 0 -0.24041748 0.008674622 -0.35534668 0.0346756c0.20904541 -0.2513733 0.57489014 -0.44207 0.64801025 -0.7281189c0.05230713 -0.21670532 -0.22991943 -0.45941162 -0.4494629 -0.45941162c-0.062683105 0 -0.12542725 0.026008606 -0.16723633 0.07801819c0.114990234 -0.49408722 0.17773438 -1.118187 -0.34490967 -1.3695602c-0.17767334 -0.060676575 -0.34490967 -0.09535217 -0.53308105 -0.09535217z" fill-rule="evenodd"/><path fill="#713f6d" d="m556.8904 92.5124c-1.1706543 0.18202972 -3.6061401 -0.026000977 -4.619995 0.60676575c-0.98254395 0.60676575 -1.1184692 1.7856293 -1.494751 2.7737885c-0.27172852 0.7627945 -0.73168945 1.4735794 -1.3483887 2.0976791l4.8186646 -1.6729431c-0.57489014 -0.55475616 -0.15679932 -1.3955612 0.38671875 -1.9416504c0.53308105 -0.57209015 2.3413696 -1.1441879 2.2577515 -1.8636398z" fill-rule="evenodd"/><path fill="#301907" d="m554.7476 90.8828c-0.041809082 0 -0.07318115 0 -0.114990234 0.008666992c-2.8012695 0.0346756 -5.571167 0.49408722 -8.163452 1.3348846l2.3623047 11.797272c3.1880493 -0.5460892 6.4283447 -0.85813904 9.689514 -0.9101486c-1.0661621 -3.9266434 -2.1427612 -7.8446198 -3.2193604 -11.762596c0 -0.26004028 -0.26135254 -0.4680786 -0.5540161 -0.4680786z" fill-rule="evenodd"/><path fill="#e79e5f" d="m554.51764 91.74961l-6.679138 1.1181793c0 0 1.7664795 9.422211 1.7664795 9.543564l7.651245 -0.6327667l-2.7385864 -10.028976z" fill-rule="evenodd"/><path fill="#e7b790" d="m557.319 94.31536c0 0 -4.975464 1.5082474 -4.588684 2.5137482c0.07318115 0.2080307 0.31359863 0.29471588 0.6480713 0.29471588c0.16723633 0 0.37628174 -0.026008606 0.59576416 -0.0693512l0 0c-0.3135376 0.16469574 -0.512146 0.3207245 -0.512146 0.44207764c0 0.12135315 0.20904541 0.16468811 0.53308105 0.16468811c0.43896484 0 1.1184082 -0.08667755 1.7664795 -0.19936371l0 0c-0.66900635 0.17336273 -1.2438965 0.39006805 -1.2438965 0.62409973c0 0.21670532 0.48083496 0.2773819 1.0557251 0.2773819c0.91986084 0 2.1114502 -0.16469574 2.1114502 -0.16469574l0 0c0 0 -1.99646 0.39873505 -1.8082886 0.82347107c0.10449219 0.2080307 0.8257446 0.26870728 1.546936 0.26870728c0.74212646 0 1.4842529 -0.060676575 1.4842529 -0.060676575l-0.4598999 -1.5429153c-0.22991943 -0.45941162 -0.43896484 -0.9361572 -0.6166992 -1.4129028c0.020935059 -0.14735413 -0.512146 -1.9589844 -0.512146 -1.9589844z" fill-rule="evenodd"/><path fill="#e79e5f" d="m498.5756 76.64113c-0.29266357 0 -0.5644531 0.19070435 -0.4598999 0.4854126l-0.020935059 0c2.048706 6.1110077 9.072845 9.864288 16.368744 10.679085c1.3170166 0.15602875 2.6444702 0.22537231 3.9614868 0.22537231c3.062622 0 6.114746 -0.38139343 9.072815 -1.0055008c4.578247 -0.9534836 9.062378 -2.43573 13.84967 -2.43573c0.094055176 0 0.18811035 0 0.27172852 0c4.8917847 0.07801056 10.076294 2.2103653 10.933411 6.5704117c0.052246094 0.27737427 0.35534668 0.40740204 0.6585083 0.40740204c0.37628174 0 0.7630005 -0.20803833 0.7107544 -0.5634308c-0.36584473 -2.834465 -2.57135 -5.157509 -5.623474 -6.431717c-2.017334 -0.85813904 -4.2542114 -1.1875305 -6.511963 -1.1875305c-1.9545898 0 -3.9196777 0.2427063 -5.7907104 0.59809875c-4.7977295 0.89281464 -9.386414 2.392395 -14.320007 2.7737885c-1.003418 0.07801056 -2.027771 0.12135315 -3.041687 0.12135315c-3.6270142 0 -7.2645264 -0.5374222 -10.504822 -1.9069824c-4.0869446 -1.6989441 -7.4631042 -4.455391 -9.0937195 -8.05265c-0.083618164 -0.19069672 -0.27175903 -0.2773819 -0.4598999 -0.2773819z" fill-rule="evenodd"/><path fill="#e79e5f" d="m514.3381 52.691208c-0.09411621 0 -0.18817139 0.052009583 -0.16729736 0.16469193c0.21954346 2.4964104 -0.1149292 5.140175 -1.8187256 7.2898636c-0.3031006 0.36405945 -0.7107544 0.6674423 -0.98254395 1.0315018c-0.78393555 0.9708252 -1.1288757 2.0716705 -2.0905151 3.007824c-2.2995605 2.2276993 -5.33078 3.8052902 -8.01709 5.686264c-1.1915894 0.84080505 -2.320465 1.7942963 -2.8640137 3.0251617c-0.12542725 0.2860489 -0.21948242 0.5720978 -0.28219604 0.86681366l0 0c-3.6166077 -6.6310883 -11.654602 -12.776764 -6.3551636 -20.092628c0.21951294 -0.31204987 -0.13589478 -0.6674423 -0.49127197 -0.6674423c-0.114990234 0 -0.24041748 0.04334259 -0.33447266 0.13869095l0.020904541 -0.0173378l0 0c-3.2298584 2.9644852 -2.268219 7.688595 -0.5017395 11.017136c2.310028 4.377388 6.4701233 8.0179825 7.818512 12.750763l0 0c0.03137207 0.14735413 0.06271362 0.29470825 0.104522705 0.44207l0.020904541 0l0 0c0 0 0 0 0 0c0.06271362 0.2340393 0.27178955 0.33805084 0.49127197 0.33805084c0.32403564 0 0.67941284 -0.22536469 0.6062622 -0.58075714c-0.45993042 -2.0630035 -0.5017395 -3.9093094 1.2438354 -5.5822525c1.1184387 -1.0661697 2.5504456 -1.9243088 3.8569946 -2.7997894c2.6340637 -1.7682877 5.2053833 -3.6319275 6.679199 -6.223686c0.20904541 -0.4594078 0.48080444 -0.9101486 0.8257446 -1.3348846c0.43902588 -0.4507408 0.8257446 -0.9448204 1.1497803 -1.4822426c1.3065796 -2.1150131 1.5992432 -4.4727325 1.3065796 -6.813118c-0.010437012 -0.10401535 -0.12542725 -0.16469193 -0.21948242 -0.16469193z" fill-rule="evenodd"/><path fill="#301907" d="m494.27228 32.29642c-0.6847534 0.068668365 -1.3518982 0.18104935 -2.0196228 0.3662529c-2.5728455 0.7218704 -4.8387146 2.5498466 -4.9875183 4.756691c-0.010345459 0.08288956 0.0014343262 0.16356659 0.033966064 0.23306274c0.09170532 0.09085083 0.1918335 0.16266632 0.3529663 0.19197845c1.4797363 0.38821793 3.0774536 0.5099335 4.6346436 0.3537674c0.58535767 -0.05870056 1.1764832 -0.15436554 1.7390137 -0.29263306l0 0c-0.38253784 0.9114914 -2.1537476 0.75260544 -2.8482666 1.5225754c1.1587219 0.33855438 2.373108 0.4441452 3.5548096 0.325634c1.4025879 -0.14065933 2.75943 -0.59506226 3.9061584 -1.3376236l0 0c-0.19857788 1.0203743 -1.4916077 1.604805 -2.6567688 2.0672684c0.6907959 0.20357513 1.4256592 0.24811554 2.1655884 0.17390823c0.717865 -0.07199097 1.4187317 -0.2605133 2.064972 -0.5163193c1.3009033 -0.5306473 2.386444 -1.385315 3.393402 -2.2411919c0.73098755 -0.673584 1.513855 -1.4524155 1.4922485 -2.3688545l3.819641 -0.7013893c-2.80365 -0.9375763 -5.7136536 -1.6825829 -8.667023 -2.1867714c-1.9630432 -0.3215561 -4.01239 -0.5435028 -5.9782104 -0.34635544z" fill-rule="evenodd"/><path fill="#301907" d="m496.72662 42.487446c0.14816284 0.08804703 0.27816772 0.18585587 0.39639282 0.29725647c0.2583313 0.24263763 -3.0517578E-5 0.54162216 -0.37191772 0.43035507l-0.0078125 0.009059906c-0.24783325 -0.08555603 -0.48391724 -0.18470383 -0.7267151 -0.25354767l-0.20272827 -0.058761597l-0.09436035 -0.01492691c-0.016784668 -0.0031280518 -0.016784668 -0.0031280518 -0.023223877 -0.006954193c0 0 0 0 0 0l0 0c-0.120147705 -0.03024292 -0.25845337 -0.050720215 -0.39031982 -0.06737137c-0.05432129 -0.00484848 -0.11508179 -0.0135269165 -0.17330933 -0.013843536l-0.087890625 -0.011100769l0 0c-0.006439209 -0.003829956 -0.03753662 -0.0017242432 -0.11254883 -0.005168915l-0.037506104 -0.0017204285l0 0c0 0 0 0 0 0l0 0c0.006439209 0.0038261414 -0.04144287 0.0028076172 -0.04788208 -0.0010223389c-0.068573 3.8528442E-4 -0.13464355 0.009124756 -0.20715332 0.014038086c-0.2303772 0.007083893 -0.5466614 0.079696655 -0.79333496 0.015384674l0 0c-0.10610962 -0.0013389587 -0.21472168 -0.011035919 -0.30493164 -0.0646286c-0.019317627 -0.0114860535 -0.034729004 -0.027500153 -0.06048584 -0.042812347l0 0c0 0 0 0 -0.0064697266 -0.0038261414c-0.051513672 -0.03062439 -0.079559326 -0.08843231 -0.0843811 -0.13928223c-0.011505127 -0.02054596 -0.008728027 -0.04632187 -0.009857178 -0.06756973c-0.0020446777 -0.076625824 0.029296875 -0.11286545 0.07235718 -0.16269684c0.036376953 -0.01952362 0.06237793 -0.038345337 0.088409424 -0.057167053l0 0c0.14901733 -0.20627975 0.55319214 -0.26778793 0.8406677 -0.29579926c0.32107544 -0.021762848 0.6354675 -0.013214111 0.9521179 0.037822723c0.4756775 0.07011795 0.9869995 0.2231102 1.3928833 0.464283z" fill-rule="evenodd"/><path fill="#0b5394" d="m487.23047 92.38318c4.6930847 -0.09870911 20.223663 1.6103439 24.49176 2.4407578c4.2681274 0.8304138 -0.8807678 -1.6954575 1.1168823 2.5417252c1.9976807 4.2371826 7.9891357 16.910545 10.869141 22.88137c2.880005 5.970825 4.831604 8.783104 6.4108887 12.943596c1.5793457 4.1604767 3.6749878 7.911911 3.0650024 12.019318c-0.6099243 4.1074066 -3.2355347 7.2109528 -6.7246704 12.625137c-3.4891968 5.4142 -11.011169 15.008301 -14.210388 19.860046c-3.1992493 4.8517303 -3.27417 8.050095 -4.985016 9.250412c-1.7108154 1.2003174 -4.399994 -1.0158539 -5.279999 -2.0485382c-0.8800049 -1.0326691 -0.08779907 -2.1468964 0 -4.147537c0.08779907 -2.0006256 0.13189697 -4.9099884 0.52682495 -7.856247c0.39492798 -2.9462585 1.0766907 -6.651718 1.8427429 -9.821274c0.76605225 -3.1695557 1.8942566 -6.8497925 2.7535706 -9.196045c0.85931396 -2.3462677 1.6070251 -3.037201 2.4023438 -4.8815155c0.7953186 -1.8443298 2.4831238 -4.05661 2.3695679 -6.1844177c-0.11355591 -2.1278229 -1.3526001 -3.2676086 -3.0509338 -6.5824738c-1.6983337 -3.314865 -5.856415 -13.4772415 -7.1391296 -13.306694c-1.2827454 0.17054749 -0.51083374 9.976952 -0.5572815 14.329979c-0.046447754 4.3530426 1.3006897 6.741699 0.2786255 11.788269c-1.0220337 5.0465546 -4.367218 11.865265 -6.4109497 18.491104c-2.0437012 6.625839 -3.9933777 17.796951 -5.8513184 21.263916c-1.8579712 3.4669647 -3.5668335 2.7588806 -5.296417 -0.4621277c-1.7295532 -3.2210083 -4.24469 -14.198273 -5.0809937 -18.863937c-0.8362732 -4.6656494 -0.41207886 -5.224228 0.06323242 -9.13002c0.47531128 -3.9057922 2.4171753 -10.456879 2.7886963 -14.304749c0.371521 -3.8478546 0.0975647 -4.8174286 -0.55960083 -8.782455c-0.65719604 -3.9650116 -2.8652039 -11.108643 -3.3834229 -15.007645c-0.5182495 -3.8989944 -0.7067566 -3.9151764 0.27392578 -8.386337c0.9806824 -4.4711685 4.064026 -14.861702 5.6101685 -18.440636c1.5461426 -3.5789337 -1.0263367 -2.9342804 3.666748 -3.0329819z" fill-rule="evenodd"/><path fill="#301907" d="m488.09225 190.52786c-0.8048401 0.1733551 -1.6410522 0.26004028 -2.4667969 0.26004028c-0.67941284 0 -1.3588257 -0.052017212 -2.0278015 -0.16470337c-0.094055176 0 -0.18814087 -0.03466797 -0.2612915 -0.03466797c-0.114990234 0.5287628 -0.21951294 1.0661774 -0.31359863 1.5949249c-0.052246094 0.15603638 -0.020904541 0.3207245 0.09408569 0.45941162c0.114990234 0.07801819 0.2508545 0.13868713 0.4076538 0.13868713c0.020904541 0 0.041809082 -0.008666992 0.073150635 -0.008666992c2.7072144 0.17337036 5.4248962 0.26004028 8.142548 0.26004028c2.0278015 0 4.055603 -0.04333496 6.0834045 -0.14735413l-9.731354 -2.3577118z" fill-rule="evenodd"/><path fill="#301907" d="m490.56952 185.32701l-8.351593 0.12135315l0.9616394 6.717758c0.41809082 0.034683228 0.8257446 0.07801819 1.2229614 0.13002014c0.42852783 0.017333984 0.84664917 0.060684204 1.254303 0.07801819l3.8151855 -1.1961975l1.0975037 -5.850952z" fill-rule="evenodd"/><path fill="#301907" d="m505.2212 189.81725c-0.926178 0.23397827 -1.8720398 0.30960083 -2.806488 0.25126648c-0.6046448 -0.037765503 -1.2045288 -0.1313324 -1.7987366 -0.29188538c-0.18362427 0.72927856 -0.36724854 1.4585571 -0.5288696 2.189209c-0.06298828 0.22053528 -0.059051514 0.434021 0.020904541 0.66348267c0.13244629 0.13172913 0.32369995 0.222229 0.5105896 0.23390198c3.2905884 0.55337524 6.6284485 0.9413605 9.981476 1.150711c1.6490173 0.10295105 3.3018494 0.16125488 4.9585266 0.1749115l-10.337402 -4.3715973z" fill-rule="evenodd"/><path fill="#301907" d="m500.73557 183.81404l-0.50479126 7.96196l0 0l6.1467285 -1.1941223l4.091217 -7.47081l-9.733154 0.7029724z" fill-rule="evenodd"/><path fill="#6fa8dc" d="m24.236582 192.7657l0 0c0 -14.0147705 14.198374 -25.375977 31.712961 -25.375977l0 0c17.514584 0 31.712963 11.361206 31.712963 25.375977l0 0c0 14.014755 -14.1983795 25.375977 -31.712963 25.375977l0 0c-17.514587 0 -31.712961 -11.361221 -31.712961 -25.375977z" fill-rule="evenodd"/><path fill="#6fa8dc" d="m60.021656 200.18407l0 0c0 -14.0147705 11.324764 -25.375977 25.29456 -25.375977l0 0c6.7085342 0 13.142303 2.6735382 17.885956 7.4324493c4.7436523 4.7589264 7.4086075 11.213394 7.4086075 17.943527l0 0c0 14.0147705 -11.32476 25.375977 -25.294563 25.375977l0 0c-13.969795 0 -25.29456 -11.361206 -25.29456 -25.375977z" fill-rule="evenodd"/><path fill="#6fa8dc" d="m87.66434 184.67653l0 0c0 -14.0147705 11.32476 -25.375977 25.294563 -25.375977l0 0c6.7085342 0 13.142303 2.6735382 17.885948 7.4324493c4.7436523 4.758911 7.408615 11.213394 7.408615 17.943527l0 0c0 14.014755 -11.324768 25.375977 -25.294563 25.375977l0 0c-13.969803 0 -25.294563 -11.361221 -25.294563 -25.375977z" fill-rule="evenodd"/><path fill="#6fa8dc" d="m104.78747 212.93994l0 0c0 -11.070206 13.547859 -20.044373 30.259987 -20.044373l0 0c16.712112 0 30.259964 8.974167 30.259964 20.044373l0 0c0 11.070206 -13.547852 20.044388 -30.259964 20.044388l0 0c-16.712128 0 -30.259987 -8.974182 -30.259987 -20.044388z" fill-rule="evenodd"/><path fill="#6fa8dc" d="m134.27986 188.83797l0 0c0 -7.7484894 7.206665 -14.029877 16.096542 -14.029877l0 0c8.889877 0 16.096542 6.2813873 16.096542 14.029877l0 0c0 7.748474 -7.206665 14.029861 -16.096542 14.029861l0 0c-8.889877 0 -16.096542 -6.2813873 -16.096542 -14.029861z" fill-rule="evenodd"/><path fill="#6fa8dc" d="m159.70453 207.60835l0 0c0 -14.014755 11.324768 -25.375977 25.294556 -25.375977l0 0c6.708542 0 13.142319 2.6735382 17.885956 7.4324493c4.7436523 4.7589264 7.408615 11.213409 7.408615 17.943527l0 0c0 14.0147705 -11.324768 25.375977 -25.29457 25.375977l0 0c-13.969788 0 -25.294556 -11.361206 -25.294556 -25.375977z" fill-rule="evenodd"/><path fill="#6fa8dc" d="m69.21929 175.6188l0 0c0 -9.012314 7.206665 -16.318253 16.096542 -16.318253l0 0c4.269066 0 8.363281 1.7192383 11.381973 4.7795105c3.0186844 3.060257 4.7145615 7.2108765 4.7145615 11.538742l0 0c0 9.012329 -7.206665 16.318268 -16.096535 16.318268l0 0c-8.889877 0 -16.096542 -7.3059387 -16.096542 -16.318268z" fill-rule="evenodd"/><path fill="#6fa8dc" d="m175.6053 184.67653l0 0c0 -11.070206 8.586899 -20.044388 19.179382 -20.044388l0 0c5.0867004 0 9.965042 2.1118164 13.561874 5.870865c3.5968475 3.7590485 5.617523 8.857422 5.617523 14.173523l0 0c0 11.070206 -8.586914 20.044388 -19.179398 20.044388l0 0c-10.5924835 0 -19.179382 -8.974182 -19.179382 -20.044388z" fill-rule="evenodd"/><path fill="#6fa8dc" d="m199.33798 200.18407l0 0c0 -14.0147705 11.324768 -25.375977 25.294556 -25.375977l0 0c6.708542 0 13.142319 2.6735382 17.885956 7.4324493c4.7436523 4.7589264 7.408615 11.213394 7.408615 17.943527l0 0c0 14.0147705 -11.324768 25.375977 -25.29457 25.375977l0 0c-13.969788 0 -25.294556 -11.361206 -25.294556 -25.375977z" fill-rule="evenodd"/><path fill="#6fa8dc" d="m231.74472 223.89267l0 0c0 -14.0147705 11.324768 -25.375977 25.294556 -25.375977l0 0c6.7085266 0 13.142303 2.6735382 17.885956 7.4324493c4.7436523 4.7589264 7.4086 11.213394 7.4086 17.943527l0 0c0 14.0147705 -11.324738 25.375977 -25.294556 25.375977l0 0c-13.969788 0 -25.294556 -11.361206 -25.294556 -25.375977z" fill-rule="evenodd"/><path fill="#6fa8dc" d="m268.08734 217.31305l0 0c0 -14.0147705 11.324738 -25.375977 25.294556 -25.375977l0 0c6.7085266 0 13.142303 2.6735382 17.885956 7.4324493c4.7436523 4.7589264 7.4086 11.213394 7.4086 17.943527l0 0c0 14.0147705 -11.324768 25.375977 -25.294556 25.375977l0 0c-13.969818 0 -25.294556 -11.361206 -25.294556 -25.375977z" fill-rule="evenodd"/><path fill="#6fa8dc" d="m313.44443 223.89267l0 0c0 -14.0147705 11.324768 -25.375977 25.294556 -25.375977l0 0c6.7085266 0 13.142303 2.6735382 17.885956 7.4324493c4.7436523 4.7589264 7.4086 11.213394 7.4086 17.943527l0 0c0 14.0147705 -11.324768 25.375977 -25.294556 25.375977l0 0c-13.969788 0 -25.294556 -11.361206 -25.294556 -25.375977z" fill-rule="evenodd"/><path fill="#6fa8dc" d="m346.72525 205.4298l0 0c0 -14.0147705 11.324738 -25.375977 25.294556 -25.375977l0 0c6.7085266 0 13.142303 2.6735382 17.885956 7.4324493c4.7436523 4.7589264 7.4086 11.213394 7.4086 17.943527l0 0c0 14.014755 -11.324768 25.375977 -25.294556 25.375977l0 0c-13.969818 0 -25.294556 -11.361221 -25.294556 -25.375977z" fill-rule="evenodd"/><path fill="#6fa8dc" d="m247.60744 192.93379l0 0c0 -7.1132507 7.206665 -12.879684 16.096542 -12.879684l0 0c8.889862 0 16.096527 5.7664337 16.096527 12.879684l0 0c0 7.1132507 -7.206665 12.879684 -16.096527 12.879684l0 0c-8.889877 0 -16.096542 -5.7664337 -16.096542 -12.879684z" fill-rule="evenodd"/><path fill="#6fa8dc" d="m308.3678 205.4298l0 0c0 -11.070206 8.586914 -20.044388 19.179413 -20.044388l0 0c5.08667 0 9.965027 2.1118164 13.561859 5.870865c3.5968323 3.7590485 5.617523 8.857422 5.617523 14.173523l0 0c0 11.070206 -8.586914 20.044388 -19.179382 20.044388l0 0c-10.592499 0 -19.179413 -8.974182 -19.179413 -20.044388z" fill-rule="evenodd"/><path fill="#6fa8dc" d="m330.41824 212.93994l0 0c0 -14.014755 11.324768 -25.375977 25.294556 -25.375977l0 0c6.7085266 0 13.142303 2.6735382 17.885956 7.4324646c4.7436523 4.758911 7.4086 11.213394 7.4086 17.943512l0 0c0 14.0147705 -11.324738 25.375977 -25.294556 25.375977l0 0c-13.969788 0 -25.294556 -11.361206 -25.294556 -25.375977z" fill-rule="evenodd"/><path fill="#6fa8dc" d="m33.724167 196.46693l363.71655 0l0 58.582672l-363.71655 0z" fill-rule="evenodd"/><path fill="#6fa8dc" d="m345.71323 198.92743l419.3701 0l0 56.25197l-419.3701 0z" fill-rule="evenodd"/><path fill="#6fa8dc" d="m762.76746 215.94662l0 0c-11.612305 6.6453247 -25.044067 5.1865234 -32.57306 -3.5376892c-7.5289917 -8.724228 -7.2213135 -22.47287 0.74627686 -33.341507c7.9675293 -10.868652 21.548218 -16.06546 32.934265 -12.602661z" fill-rule="evenodd"/><path fill="#6fa8dc" d="m330.66455 184.08722l0 0c0 -13.677658 12.815338 -24.765594 28.62387 -24.765594l0 0c15.808533 0 28.62387 11.087936 28.62387 24.765594l0 0c0 13.677658 -12.815338 24.765594 -28.62387 24.765594l0 0c-15.808533 0 -28.62387 -11.087936 -28.62387 -24.765594z" fill-rule="evenodd"/><path fill="#6fa8dc" d="m363.94617 199.22174l0 0c0 -13.677643 12.815338 -24.76558 28.62387 -24.76558l0 0c15.808533 0 28.62387 11.087936 28.62387 24.76558l0 0c0 13.677658 -12.815338 24.765594 -28.62387 24.765594l0 0c-15.808533 0 -28.62387 -11.087936 -28.62387 -24.765594z" fill-rule="evenodd"/><path fill="#6fa8dc" d="m395.2272 184.08722l0 0c0 -13.677658 12.815369 -24.765594 28.62387 -24.765594l0 0c15.808533 0 28.62387 11.087936 28.62387 24.765594l0 0c0 13.677658 -12.815338 24.765594 -28.62387 24.765594l0 0c-15.808502 0 -28.62387 -11.087936 -28.62387 -24.765594z" fill-rule="evenodd"/><path fill="#6fa8dc" d="m414.60413 211.6708l0 0c0 -10.80394 15.331024 -19.56224 34.24283 -19.56224l0 0c18.911804 0 34.24286 8.758301 34.24286 19.56224l0 0c0 10.803925 -15.331055 19.56224 -34.24286 19.56224l0 0c-18.911804 0 -34.24283 -8.758316 -34.24283 -19.56224z" fill-rule="evenodd"/><path fill="#6fa8dc" d="m447.19226 188.32336l0 0c0 -7.658966 10.920563 -13.867798 24.391754 -13.867798l0 0c13.471222 0 24.391785 6.208832 24.391785 13.867798l0 0c0 7.658966 -10.920563 13.867798 -24.391785 13.867798l0 0c-13.471191 0 -24.391754 -6.208832 -24.391754 -13.867798z" fill-rule="evenodd"/><path fill="#6fa8dc" d="m476.74945 206.46745l0 0c0 -13.677658 12.815338 -24.76558 28.62387 -24.76558l0 0c15.808502 0 28.62387 11.087921 28.62387 24.76558l0 0c0 13.677658 -12.815369 24.765594 -28.62387 24.765594l0 0c-15.808533 0 -28.62387 -11.087936 -28.62387 -24.765594z" fill-rule="evenodd"/><path fill="#6fa8dc" d="m374.3544 175.24738l0 0c0 -8.7955475 8.155212 -15.925751 18.21518 -15.925751l0 0c10.059998 0 18.21521 7.1302032 18.21521 15.925751l0 0c0 8.7955475 -8.155212 15.925751 -18.21521 15.925751l0 0c-10.059967 0 -18.21518 -7.1302032 -18.21518 -15.925751z" fill-rule="evenodd"/><path fill="#6fa8dc" d="m494.7431 184.08722l0 0c0 -10.803925 9.717133 -19.56224 21.703796 -19.56224l0 0c11.986694 0 21.703796 8.758316 21.703796 19.56224l0 0c0 10.803925 -9.717102 19.56224 -21.703796 19.56224l0 0c-11.986664 0 -21.703796 -8.758316 -21.703796 -19.56224z" fill-rule="evenodd"/><path fill="#6fa8dc" d="m521.59955 199.22174l0 0c0 -13.677643 12.815308 -24.76558 28.62384 -24.76558l0 0c15.808533 0 28.623901 11.087936 28.623901 24.76558l0 0c0 13.677658 -12.815369 24.765594 -28.623901 24.765594l0 0c-15.808533 0 -28.62384 -11.087936 -28.62384 -24.765594z" fill-rule="evenodd"/><path fill="#6fa8dc" d="m558.27167 222.36008l0 0c0 -13.677658 12.815369 -24.765594 28.623901 -24.765594l0 0c15.808533 0 28.62384 11.087936 28.62384 24.765594l0 0c0 13.677658 -12.815308 24.765594 -28.62384 24.765594l0 0c-15.808533 0 -28.623901 -11.087936 -28.623901 -24.765594z" fill-rule="evenodd"/><path fill="#6fa8dc" d="m599.39777 215.93872l0 0c0 -13.677658 12.815369 -24.765594 28.623901 -24.765594l0 0c15.808472 0 28.62384 11.087936 28.62384 24.765594l0 0c0 13.677658 -12.815369 24.76558 -28.62384 24.76558l0 0c-15.808533 0 -28.623901 -11.087921 -28.623901 -24.76558z" fill-rule="evenodd"/><path fill="#6fa8dc" d="m650.72485 222.36008l0 0c0 -13.677658 12.815308 -24.765594 28.62384 -24.765594l0 0c15.808533 0 28.623901 11.087936 28.623901 24.765594l0 0c0 13.677658 -12.815369 24.765594 -28.623901 24.765594l0 0c-15.808533 0 -28.62384 -11.087936 -28.62384 -24.765594z" fill-rule="evenodd"/><path fill="#6fa8dc" d="m688.3861 204.3413l0 0c0 -13.677658 12.815369 -24.765594 28.623901 -24.765594l0 0c15.808533 0 28.62384 11.087936 28.62384 24.765594l0 0c0 13.677658 -12.815308 24.765594 -28.62384 24.765594l0 0c-15.808533 0 -28.623901 -11.087936 -28.623901 -24.765594z" fill-rule="evenodd"/><path fill="#6fa8dc" d="m576.2223 192.14587l0 0c0 -6.942154 8.155212 -12.569885 18.215149 -12.569885l0 0c10.059998 0 18.21521 5.6277313 18.21521 12.569885l0 0c0 6.942154 -8.155212 12.56987 -18.21521 12.56987l0 0c-10.059937 0 -18.215149 -5.627716 -18.215149 -12.56987z" fill-rule="evenodd"/><path fill="#6fa8dc" d="m644.98004 204.3413l0 0c0 -10.803925 9.717102 -19.56224 21.703796 -19.56224l0 0c11.986694 0 21.703796 8.758316 21.703796 19.56224l0 0c0 10.803925 -9.717102 19.56224 -21.703796 19.56224l0 0c-11.986694 0 -21.703796 -8.758316 -21.703796 -19.56224z" fill-rule="evenodd"/><path fill="#6fa8dc" d="m669.9328 211.6708l0 0c0 -13.677658 12.815308 -24.765594 28.62384 -24.765594l0 0c15.808533 0 28.623901 11.087936 28.623901 24.765594l0 0c0 13.677658 -12.815369 24.765594 -28.623901 24.765594l0 0c-15.808533 0 -28.62384 -11.087936 -28.62384 -24.765594z" fill-rule="evenodd"/><path fill="#6fa8dc" d="m-15.005636 352.43552l0 0c0 49.78482 50.429626 90.1434 112.63773 90.1434l0 0c62.2081 0 112.637726 -40.35858 112.637726 -90.1434l0 0c0 -49.78485 -50.429626 -90.14343 -112.637726 -90.14343l0 0c-62.208103 0 -112.63773 40.35858 -112.63773 90.14343z" fill-rule="evenodd"/><path fill="#6fa8dc" d="m135.03764 352.4356l0 0c0 49.78485 40.223145 90.14343 89.84093 90.14343l0 0c23.827301 0 46.67868 -9.497223 63.52713 -26.402405c16.84845 -16.905182 26.313812 -39.833496 26.313812 -63.741028l0 0c0 -49.78482 -40.223175 -90.1434 -89.84094 -90.1434l0 0c-49.617783 0 -89.84093 40.35858 -89.84093 90.1434z" fill-rule="evenodd"/><path fill="#6fa8dc" d="m233.2186 407.52325l0 0c0 49.78482 40.223145 90.1434 89.84094 90.1434l0 0c23.827301 0 46.67868 -9.497223 63.52713 -26.402374c16.84845 -16.905182 26.313782 -39.833496 26.313782 -63.741028l0 0c0 -49.78482 -40.223145 -90.1434 -89.84091 -90.1434l0 0c-49.617798 0 -89.84094 40.35858 -89.84094 90.1434z" fill-rule="evenodd"/><path fill="#6fa8dc" d="m294.03635 307.12274l0 0c0 39.32483 48.11911 71.20392 107.47705 71.20392l0 0c59.35791 0 107.47702 -31.87909 107.47702 -71.20392l0 0c0 -39.32486 -48.11911 -71.20395 -107.47702 -71.20395l0 0c-59.35794 0 -107.47705 31.87909 -107.47705 71.20395z" fill-rule="evenodd"/><path fill="#6fa8dc" d="m398.7871 392.74054l0 0c0 27.525024 25.596527 49.8385 57.17148 49.8385l0 0c31.574951 0 57.17154 -22.313477 57.17154 -49.8385l0 0c0 -27.525055 -25.596588 -49.8385 -57.17154 -49.8385l0 0c-31.574951 0 -57.17148 22.313446 -57.17148 49.8385z" fill-rule="evenodd"/><path fill="#6fa8dc" d="m489.09012 326.06223l0 0c0 49.78482 40.223175 90.1434 89.84097 90.1434l0 0c23.82727 0 46.67865 -9.497223 63.5271 -26.402405c16.84845 -16.905151 26.313782 -39.833496 26.313782 -63.740997l0 0c0 -49.78485 -40.223145 -90.14343 -89.84088 -90.14343l0 0c-49.617798 0 -89.84097 40.35858 -89.84097 90.14343z" fill-rule="evenodd"/><path fill="#6fa8dc" d="m167.7057 439.6991l0 0c0 32.014618 25.596542 57.96756 57.171494 57.96756l0 0c15.162827 0 29.70462 -6.1072693 40.42636 -16.978302c10.721741 -10.871033 16.745148 -25.615295 16.745148 -40.989258l0 0c0 -32.014618 -25.596558 -57.96759 -57.17151 -57.96759l0 0c-31.574951 0 -57.171494 25.952972 -57.171494 57.96759z" fill-rule="evenodd"/><path fill="#6fa8dc" d="m545.5663 407.52325l0 0c0 39.32486 30.498901 71.20395 68.121155 71.20395l0 0c18.066833 0 35.393738 -7.501831 48.168884 -20.855164c12.7752075 -13.3533325 19.95227 -31.464325 19.95227 -50.348785l0 0c0 -39.32486 -30.498901 -71.20392 -68.121155 -71.20392l0 0c-37.622253 0 -68.121155 31.879059 -68.121155 71.20392z" fill-rule="evenodd"/><path fill="#6fa8dc" d="m629.8598 352.4356l0 0c0 49.78485 40.223145 90.14343 89.84088 90.14343l0 0c23.827332 0 46.67871 -9.497223 63.52716 -26.402405c16.84845 -16.905182 26.313782 -39.833496 26.313782 -63.741028l0 0c0 -49.78482 -40.223145 -90.1434 -89.84094 -90.1434l0 0c-49.617737 0 -89.84088 40.35858 -89.84088 90.1434z" fill-rule="evenodd"/><path fill="#6fa8dc" d="m744.9617 268.2152l0 0c0 49.78485 40.223145 90.14343 89.84094 90.14343l0 0c23.82727 0 46.67865 -9.497223 63.5271 -26.402405c16.84845 -16.905182 26.313843 -39.833496 26.313843 -63.741028l0 0c0 -49.78482 -40.223206 -90.1434 -89.84094 -90.1434l0 0c-49.617798 0 -89.84094 40.35858 -89.84094 90.1434z" fill-rule="evenodd"/><path fill="#6fa8dc" d="m874.0429 291.5881l0 0c0 49.78482 40.223206 90.1434 89.84094 90.1434l0 0c23.827332 0 46.67871 -9.497223 63.52716 -26.402374c16.848389 -16.905182 26.313843 -39.833527 26.313843 -63.741028l0 0c0 -49.784836 -40.223206 -90.14342 -89.841 -90.14342l0 0c-49.617737 0 -89.84094 40.35858 -89.84094 90.14342z" fill-rule="evenodd"/><path fill="#6fa8dc" d="m1035.1417 268.2152l0 0c0 49.78485 40.223145 90.14343 89.84094 90.14343l0 0c23.82727 0 46.67871 -9.497223 63.5271 -26.402405c16.84851 -16.905182 26.313843 -39.833496 26.313843 -63.741028l0 0c0 -49.78482 -40.223145 -90.1434 -89.84094 -90.1434l0 0c-49.617798 0 -89.84094 40.35858 -89.84094 90.1434z" fill-rule="evenodd"/><path fill="#6fa8dc" d="m1153.3481 333.80115l0 0c0 49.78485 40.223145 90.14343 89.84094 90.14343l0 0c23.82727 0 46.67871 -9.497253 63.5271 -26.402405c16.84851 -16.905182 26.313843 -39.833496 26.313843 -63.741028l0 0c0 -49.78482 -40.223145 -90.14342 -89.84094 -90.14342l0 0c-49.617798 0 -89.84094 40.358597 -89.84094 90.14342z" fill-rule="evenodd"/><path fill="#6fa8dc" d="m801.3027 378.19086l0 0c0 25.268524 25.596558 45.752686 57.17151 45.752686l0 0c31.574951 0 57.17151 -20.484161 57.17151 -45.752686l0 0c0 -25.268494 -25.596558 -45.752686 -57.17151 -45.752686l0 0c-31.574951 0 -57.17151 20.484192 -57.17151 45.752686z" fill-rule="evenodd"/><path fill="#6fa8dc" d="m1017.11066 333.80115l0 0c0 39.32486 30.49884 71.20395 68.121155 71.20395l0 0c18.066895 0 35.393677 -7.501831 48.168945 -20.855164c12.7751465 -13.3533325 19.952148 -31.464325 19.952148 -50.348785l0 0c0 -39.32483 -30.49878 -71.20392 -68.12109 -71.20392l0 0c-37.622314 0 -68.121155 31.87909 -68.121155 71.20392z" fill-rule="evenodd"/><path fill="#6fa8dc" d="m1095.4292 307.12274l0 0c0 49.78482 40.223145 90.1434 89.84094 90.1434l0 0c23.82727 0 46.67859 -9.497223 63.5271 -26.402405c16.848389 -16.905151 26.31372 -39.833496 26.31372 -63.740997l0 0c0 -49.78485 -40.223145 -90.14343 -89.84082 -90.14343l0 0c-49.617798 0 -89.84094 40.35858 -89.84094 90.14343z" fill-rule="evenodd"/><path fill="#6fa8dc" d="m0.7284192 356.36542l1322.5828 0l0 -375.11813l-1322.5828 0z" fill-rule="evenodd"/><path fill="#6fa8dc" d="m1149.9564 356.88l1489.8583 0l0 -359.68503l-1489.8583 0z" fill-rule="evenodd"/><path fill="#6fa8dc" d="m2638.7175 315.66718l0 0c-41.234375 -23.70169 -88.93213 -18.58197 -115.65576 12.414154c-26.723877 30.996094 -25.604248 79.901 2.7148438 118.58313c28.318848 38.68213 76.55762 57.19821 116.96777 44.897217z" fill-rule="evenodd"/><path fill="#6fa8dc" d="m1096.4952 409.5695l0 0c0 48.591125 45.519287 87.982056 101.670044 87.982056l0 0c56.15088 0 101.670166 -39.39093 101.670166 -87.982056l0 0c0 -48.591156 -45.519287 -87.982056 -101.670166 -87.982056l0 0c-56.150757 0 -101.670044 39.3909 -101.670044 87.982056z" fill-rule="evenodd"/><path fill="#6fa8dc" d="m1214.7092 355.80267l0 0c0 48.591156 45.519287 87.982056 101.670166 87.982056l0 0c56.150757 0 101.670044 -39.3909 101.670044 -87.982056l0 0c0 -48.591156 -45.519287 -87.982056 -101.670044 -87.982056l0 0c-56.15088 0 -101.670166 39.3909 -101.670166 87.982056z" fill-rule="evenodd"/><path fill="#6fa8dc" d="m1325.8175 409.5695l0 0c0 48.591125 45.519165 87.982056 101.670044 87.982056l0 0c56.15088 0 101.670044 -39.39093 101.670044 -87.982056l0 0c0 -48.591156 -45.519165 -87.982056 -101.670044 -87.982056l0 0c-56.15088 0 -101.670044 39.3909 -101.670044 87.982056z" fill-rule="evenodd"/><path fill="#6fa8dc" d="m1394.643 311.57623l0 0c0 38.38199 54.454834 69.496704 121.628296 69.496704l0 0c67.17346 0 121.628296 -31.114716 121.628296 -69.496704l0 0c0 -38.381958 -54.454834 -69.49667 -121.628296 -69.49667l0 0c-67.17346 0 -121.628296 31.114716 -121.628296 69.49667z" fill-rule="evenodd"/><path fill="#6fa8dc" d="m1510.3938 394.5202l0 0c0 27.209198 38.789185 49.2666 86.63794 49.2666l0 0c47.848877 0 86.63794 -22.057404 86.63794 -49.2666l0 0c0 -27.209229 -38.789062 -49.266632 -86.63794 -49.266632l0 0c-47.848755 0 -86.63794 22.057404 -86.63794 49.266632z" fill-rule="evenodd"/><path fill="#6fa8dc" d="m1615.379 330.0616l0 0c0 48.591156 45.519165 87.982056 101.670044 87.982056l0 0c56.15088 0 101.670044 -39.3909 101.670044 -87.982056l0 0c0 -48.591156 -45.519165 -87.982056 -101.670044 -87.982056l0 0c-56.15088 0 -101.670044 39.3909 -101.670044 87.982056z" fill-rule="evenodd"/><path fill="#6fa8dc" d="m1251.6787 440.97385l0 0c0 31.246979 28.966675 56.577698 64.6991 56.577698l0 0c35.7323 0 64.6991 -25.330719 64.6991 -56.577698l0 0c0 -31.24701 -28.966797 -56.577698 -64.6991 -56.577698l0 0c-35.73242 0 -64.6991 25.330688 -64.6991 56.577698z" fill-rule="evenodd"/><path fill="#6fa8dc" d="m1679.2913 409.5695l0 0c0 38.381958 34.514526 69.49667 77.090454 69.49667l0 0c42.575928 0 77.090454 -31.114716 77.090454 -69.49667l0 0c0 -38.381958 -34.514526 -69.496704 -77.090454 -69.496704l0 0c-42.575928 0 -77.090454 31.114746 -77.090454 69.496704z" fill-rule="evenodd"/><path fill="#6fa8dc" d="m1774.6835 355.80267l0 0c0 48.591156 45.519165 87.982056 101.670044 87.982056l0 0c56.15088 0 101.670044 -39.3909 101.670044 -87.982056l0 0c0 -48.591156 -45.519165 -87.982056 -101.670044 -87.982056l0 0c-56.15088 0 -101.670044 39.3909 -101.670044 87.982056z" fill-rule="evenodd"/><path fill="#6fa8dc" d="m1904.9406 273.60162l0 0c0 48.591156 45.519165 87.982056 101.670044 87.982056l0 0c56.15088 0 101.670166 -39.3909 101.670166 -87.982056l0 0c0 -48.591156 -45.519287 -87.982056 -101.670166 -87.982056l0 0c-56.15088 0 -101.670044 39.3909 -101.670044 87.982056z" fill-rule="evenodd"/><path fill="#6fa8dc" d="m2051.0176 296.4141l0 0c0 48.591156 45.519287 87.982056 101.670166 87.982056l0 0c56.15088 0 101.66992 -39.3909 101.66992 -87.982056l0 0c0 -48.591156 -45.519043 -87.982056 -101.66992 -87.982056l0 0c-56.15088 0 -101.670166 39.3909 -101.670166 87.982056z" fill-rule="evenodd"/><path fill="#6fa8dc" d="m2233.328 273.60162l0 0c0 48.591156 45.519287 87.982056 101.670166 87.982056l0 0c56.15088 0 101.66992 -39.3909 101.66992 -87.982056l0 0c0 -48.591156 -45.519043 -87.982056 -101.66992 -87.982056l0 0c-56.15088 0 -101.670166 39.3909 -101.670166 87.982056z" fill-rule="evenodd"/><path fill="#6fa8dc" d="m2367.0984 337.615l0 0c0 48.591156 45.519043 87.982056 101.66992 87.982056l0 0c56.15088 0 101.670166 -39.3909 101.670166 -87.982056l0 0c0 -48.591125 -45.519287 -87.98204 -101.670166 -87.98204l0 0c-56.15088 0 -101.66992 39.390915 -101.66992 87.98204z" fill-rule="evenodd"/><path fill="#6fa8dc" d="m1968.6998 380.9404l0 0c0 24.662628 28.966797 44.65567 64.6991 44.65567l0 0c35.73242 0 64.69922 -19.993042 64.69922 -44.65567l0 0c0 -24.662659 -28.966797 -44.65567 -64.69922 -44.65567l0 0c-35.7323 0 -64.6991 19.993011 -64.6991 44.65567z" fill-rule="evenodd"/><path fill="#6fa8dc" d="m2212.9226 337.615l0 0c0 38.381958 34.51465 69.496704 77.090576 69.496704l0 0c42.575928 0 77.090576 -31.114746 77.090576 -69.496704l0 0c0 -38.381958 -34.51465 -69.49667 -77.090576 -69.49667l0 0c-42.575928 0 -77.090576 31.114716 -77.090576 69.49667z" fill-rule="evenodd"/><path fill="#6fa8dc" d="m2301.5532 311.57623l0 0c0 48.591156 45.519287 87.982056 101.670166 87.982056l0 0c56.150635 0 101.66992 -39.3909 101.66992 -87.982056l0 0c0 -48.591125 -45.519287 -87.98204 -101.66992 -87.98204l0 0c-56.15088 0 -101.670166 39.390915 -101.670166 87.98204z" fill-rule="evenodd"/></g></svg>