<svg version="1.1" viewBox="0.0 0.0 3720.4068241469818 1496.6062992125985" fill="none" stroke="none" stroke-linecap="square" stroke-miterlimit="10" xmlns:xlink="http://www.w3.org/1999/xlink" xmlns="http://www.w3.org/2000/svg"><clipPath id="p.0"><path d="m0 0l3720.4067 0l0 1496.6063l-3720.4067 0l0 -1496.6063z" clip-rule="nonzero"/></clipPath><g clip-path="url(#p.0)"><path fill="#ffd966" d="m0 0l3720.4067 0l0 1496.6063l-3720.4067 0z" fill-rule="evenodd"/><path fill="#6fa8dc" d="m-37.20477 663.755l0 0c0 86.61969 72.75982 156.83875 162.51361 156.83875l0 0c43.101288 0 84.437256 -16.524048 114.914474 -45.93701c30.477219 -29.412964 47.599136 -69.30548 47.599136 -110.90173l0 0c0 -86.61963 -72.75983 -156.83871 -162.51361 -156.83871l0 0c-89.753784 0 -162.51361 70.219086 -162.51361 156.83871z" fill-rule="evenodd"/><path fill="#6fa8dc" d="m146.17645 617.9051l0 0c0 86.61963 58.033936 156.83868 129.6224 156.83868l0 0c34.37802 0 67.34796 -16.523987 91.65689 -45.93695c24.30893 -29.412964 37.965515 -69.30554 37.965515 -110.90173l0 0c0 -86.61969 -58.033905 -156.83875 -129.6224 -156.83875l0 0c-71.58847 0 -129.6224 70.219055 -129.6224 156.83875z" fill-rule="evenodd"/><path fill="#6fa8dc" d="m287.83185 713.751l0 0c0 86.61963 58.033936 156.83875 129.6224 156.83875l0 0c34.37799 0 67.34796 -16.524048 91.65689 -45.93701c24.308899 -29.412964 37.965515 -69.30554 37.965515 -110.90173l0 0c0 -86.61963 -58.033936 -156.83875 -129.6224 -156.83875l0 0c-71.58847 0 -129.6224 70.21912 -129.6224 156.83875z" fill-rule="evenodd"/><path fill="#6fa8dc" d="m375.57965 539.0661l0 0c0 68.42047 69.42618 123.88629 155.06775 123.88629l0 0c85.64154 0 155.06775 -55.46582 155.06775 -123.88629l0 0c0 -68.42053 -69.42621 -123.88632 -155.06775 -123.88632l0 0c-85.64157 0 -155.06775 55.46579 -155.06775 123.88632z" fill-rule="evenodd"/><path fill="#6fa8dc" d="m526.7139 688.03076l0 0c0 47.89032 36.930664 86.71301 82.48694 86.71301l0 0c21.876953 0 42.85785 -9.135803 58.32715 -25.397644c15.469299 -16.26184 24.159851 -38.317627 24.159851 -61.31537l0 0c0 -47.89026 -36.930664 -86.71301 -82.487 -86.71301l0 0c-45.556274 0 -82.48694 38.822754 -82.48694 86.71301z" fill-rule="evenodd"/><path fill="#6fa8dc" d="m657.00305 572.0185l0 0c0 86.61963 58.033936 156.83875 129.62238 156.83875l0 0c34.37799 0 67.34796 -16.524048 91.65692 -45.93701c24.308899 -29.412964 37.965515 -69.30548 37.965515 -110.90173l0 0c0 -86.61963 -58.033936 -156.83871 -129.62244 -156.83871l0 0c-71.58844 0 -129.62238 70.219086 -129.62238 156.83871z" fill-rule="evenodd"/><path fill="#6fa8dc" d="m193.3099 769.73303l0 0c0 55.7016 36.93068 100.85669 82.487 100.85669l0 0c21.876892 0 42.857788 -10.625977 58.327087 -29.540283c15.46933 -18.914246 24.159882 -44.567566 24.159882 -71.31641l0 0c0 -55.701538 -36.930664 -100.85663 -82.48697 -100.85663l0 0c-45.55632 0 -82.487 45.15509 -82.487 100.85663z" fill-rule="evenodd"/><path fill="#6fa8dc" d="m738.48676 713.751l0 0c0 68.42053 44.003784 123.88629 98.28516 123.88629l0 0c26.066833 0 51.06604 -13.052246 69.49805 -36.28546c18.432068 -23.233215 28.787048 -54.74414 28.787048 -87.60083l0 0c0 -68.42053 -44.003723 -123.88635 -98.285095 -123.88635l0 0c-54.281372 0 -98.28516 55.46582 -98.28516 123.88635z" fill-rule="evenodd"/><path fill="#6fa8dc" d="m860.10535 617.9051l0 0c0 86.61963 58.033936 156.83868 129.62238 156.83868l0 0c34.37799 0 67.34796 -16.523987 91.65692 -45.93695c24.30896 -29.412964 37.965576 -69.30554 37.965576 -110.90173l0 0c0 -86.61969 -58.033936 -156.83875 -129.6225 -156.83875l0 0c-71.58844 0 -129.62238 70.219055 -129.62238 156.83875z" fill-rule="evenodd"/><path fill="#6fa8dc" d="m1026.1742 471.37167l0 0c0 86.61966 58.033936 156.83871 129.62244 156.83871l0 0c34.37805 0 67.34802 -16.523987 91.65686 -45.93695c24.30896 -29.412964 37.965576 -69.30554 37.965576 -110.901764l0 0c0 -86.61963 -58.033936 -156.83871 -129.62244 -156.83871l0 0c-71.5885 0 -129.62244 70.219086 -129.62244 156.83871z" fill-rule="evenodd"/><path fill="#6fa8dc" d="m1212.4126 512.03766l0 0c0 86.61969 58.033936 156.83875 129.62231 156.83875l0 0c34.37805 0 67.34802 -16.523987 91.65698 -45.93701c24.308838 -29.412964 37.965454 -69.30548 37.965454 -110.90173l0 0c0 -86.6196 -58.033936 -156.83871 -129.62244 -156.83871l0 0c-71.58838 0 -129.62231 70.21912 -129.62231 156.83871z" fill-rule="evenodd"/><path fill="#6fa8dc" d="m1444.8457 471.37167l0 0c0 86.61966 58.033936 156.83871 129.62244 156.83871l0 0c34.37805 0 67.34802 -16.523987 91.65686 -45.93695c24.30896 -29.412964 37.965576 -69.30554 37.965576 -110.901764l0 0c0 -86.61963 -58.033936 -156.83871 -129.62244 -156.83871l0 0c-71.5885 0 -129.62244 70.219086 -129.62244 156.83871z" fill-rule="evenodd"/><path fill="#6fa8dc" d="m1615.3938 585.48334l0 0c0 86.61963 58.033936 156.83875 129.62244 156.83875l0 0c34.37805 0 67.34802 -16.524048 91.65686 -45.93701c24.30896 -29.412964 37.965576 -69.30554 37.965576 -110.90173l0 0c0 -86.61963 -58.033936 -156.83875 -129.62244 -156.83875l0 0c-71.5885 0 -129.62244 70.21912 -129.62244 156.83875z" fill-rule="evenodd"/><path fill="#6fa8dc" d="m1107.463 662.7161l0 0c0 43.964172 36.930664 79.60419 82.48694 79.60419l0 0c21.876953 0 42.857788 -8.386902 58.32715 -23.315552c15.469238 -14.92865 24.159912 -35.17633 24.159912 -56.288635l0 0c0 -43.964172 -36.930786 -79.60419 -82.48706 -79.60419l0 0c-45.556274 0 -82.48694 35.640015 -82.48694 79.60419z" fill-rule="evenodd"/><path fill="#6fa8dc" d="m1418.8306 585.48334l0 0c0 68.42053 44.003662 123.88629 98.285034 123.88629l0 0c26.066895 0 51.06604 -13.052246 69.49817 -36.28546c18.432007 -23.233154 28.786987 -54.74414 28.786987 -87.60083l0 0c0 -68.42053 -44.003784 -123.88632 -98.28516 -123.88632l0 0c-54.281372 0 -98.285034 55.46579 -98.285034 123.88632z" fill-rule="evenodd"/><path fill="#6fa8dc" d="m1531.8284 539.0661l0 0c0 86.61963 58.033936 156.83868 129.62244 156.83868l0 0c34.37793 0 67.3479 -16.523987 91.65686 -45.93695c24.30896 -29.412964 37.965576 -69.30554 37.965576 -110.90173l0 0c0 -86.61966 -58.033936 -156.83875 -129.62244 -156.83875l0 0c-71.5885 0 -129.62244 70.219086 -129.62244 156.83875z" fill-rule="evenodd"/><path fill="#6fa8dc" d="m-23.015749 624.77167l1883.4646 0l0 -652.8189l-1883.4646 0z" fill-rule="evenodd"/><path fill="#6fa8dc" d="m1610.4199 625.6693l2149.4487 0l0 -625.6693l-2149.4487 0z" fill-rule="evenodd"/><path fill="#6fa8dc" d="m3756.4868 560.5665l0 0c-58.71289 -46.578613 -130.06396 -42.552795 -171.75366 9.690735c-41.68994 52.24353 -42.572266 138.73682 -2.1237793 208.20337c40.448242 69.46661 111.41284 103.33368 170.82324 81.52362z" fill-rule="evenodd"/><path fill="#6fa8dc" d="m1533.2893 717.4824l0 0c0 84.52887 65.67041 153.05304 146.67883 153.05304l0 0c38.90161 0 76.20996 -16.125183 103.71753 -44.828247c27.50769 -28.703003 42.961304 -67.63263 42.961304 -108.22479l0 0c0 -84.52887 -65.67041 -153.05304 -146.67883 -153.05304l0 0c-81.00842 0 -146.67883 68.52417 -146.67883 153.05304z" fill-rule="evenodd"/><path fill="#6fa8dc" d="m1703.8359 623.95l0 0c0 84.52887 65.67041 153.05304 146.67883 153.05304l0 0c38.90161 0 76.20996 -16.125183 103.71765 -44.828186c27.507568 -28.703003 42.96118 -67.63269 42.96118 -108.22485l0 0c0 -84.52887 -65.67029 -153.05301 -146.67883 -153.05301l0 0c-81.00842 0 -146.67883 68.52414 -146.67883 153.05301z" fill-rule="evenodd"/><path fill="#6fa8dc" d="m1864.1311 717.4824l0 0c0 84.52887 65.67041 153.05304 146.67883 153.05304l0 0c38.901733 0 76.21008 -16.125183 103.71765 -44.828247c27.507568 -28.703003 42.96118 -67.63263 42.96118 -108.22479l0 0c0 -84.52887 -65.67041 -153.05304 -146.67883 -153.05304l0 0c-81.00842 0 -146.67883 68.52417 -146.67883 153.05304z" fill-rule="evenodd"/><path fill="#6fa8dc" d="m1963.4253 547.01404l0 0c0 66.76898 78.561646 120.895935 175.47241 120.895935l0 0c96.910645 0 175.47241 -54.126953 175.47241 -120.895935l0 0c0 -66.76904 -78.56177 -120.895996 -175.47241 -120.895996l0 0c-96.91077 0 -175.47241 54.126953 -175.47241 120.895996z" fill-rule="evenodd"/><path fill="#6fa8dc" d="m2130.4185 691.3028l0 0c0 47.332947 55.960693 85.70386 124.99194 85.70386l0 0c69.03125 0 124.99194 -38.37091 124.99194 -85.70386l0 0c0 -47.333008 -55.960693 -85.70392 -124.99194 -85.70392l0 0c-69.03125 0 -124.99194 38.37091 -124.99194 85.70392z" fill-rule="evenodd"/><path fill="#6fa8dc" d="m2281.88 579.171l0 0c0 84.52887 65.67041 153.05304 146.67871 153.05304l0 0c38.90161 0 76.20996 -16.125183 103.71777 -44.828186c27.507568 -28.703003 42.96118 -67.63263 42.96118 -108.22485l0 0c0 -84.52881 -65.67041 -153.05298 -146.67896 -153.05298l0 0c-81.0083 0 -146.67871 68.52417 -146.67871 153.05298z" fill-rule="evenodd"/><path fill="#6fa8dc" d="m1757.1715 772.1132l0 0c0 54.357117 41.79016 98.42224 93.341064 98.42224l0 0c24.755615 0 48.497192 -10.369507 66.002075 -28.82721c17.504883 -18.457764 27.33899 -43.49182 27.33899 -69.59503l0 0c0 -54.357056 -41.790283 -98.42218 -93.341064 -98.42218l0 0c-51.550903 0 -93.341064 44.065125 -93.341064 98.42218z" fill-rule="evenodd"/><path fill="#6fa8dc" d="m2374.0857 717.4824l0 0c0 66.76898 49.793945 120.895996 111.21802 120.895996l0 0c29.496826 0 57.785645 -12.737244 78.64307 -35.409607c20.857422 -22.672424 32.57495 -53.42279 32.57495 -85.48639l0 0c0 -66.76904 -49.793945 -120.895996 -111.21802 -120.895996l0 0c-61.424072 0 -111.21802 54.126953 -111.21802 120.895996z" fill-rule="evenodd"/><path fill="#6fa8dc" d="m2511.7075 623.95l0 0c0 84.52887 65.670166 153.05304 146.67871 153.05304l0 0c38.90161 0 76.20996 -16.125183 103.71753 -44.828186c27.507812 -28.703003 42.961426 -67.63269 42.961426 -108.22485l0 0c0 -84.52887 -65.67041 -153.05301 -146.67896 -153.05301l0 0c-81.008545 0 -146.67871 68.52414 -146.67871 153.05301z" fill-rule="evenodd"/><path fill="#6fa8dc" d="m2699.6287 480.95358l0 0c0 84.52884 65.670166 153.05301 146.67871 153.05301l0 0c38.90161 0 76.20996 -16.125183 103.71753 -44.828186c27.507568 -28.703003 42.96118 -67.63263 42.96118 -108.22482l0 0c0 -84.52884 -65.670166 -153.05301 -146.67871 -153.05301l0 0c-81.008545 0 -146.67871 68.52417 -146.67871 153.05301z" fill-rule="evenodd"/><path fill="#6fa8dc" d="m2910.373 520.638l0 0c0 84.52887 65.67041 153.05304 146.67896 153.05304l0 0c38.90161 0 76.20996 -16.125183 103.71753 -44.828186c27.507568 -28.703003 42.96118 -67.63263 42.96118 -108.22485l0 0c0 -84.52881 -65.67041 -153.05298 -146.67871 -153.05298l0 0c-81.008545 0 -146.67896 68.52417 -146.67896 153.05298z" fill-rule="evenodd"/><path fill="#6fa8dc" d="m3173.391 480.95358l0 0c0 84.52884 65.67041 153.05301 146.67871 153.05301l0 0c38.901855 0 76.20996 -16.125183 103.71777 -44.828186c27.507568 -28.703003 42.96118 -67.63263 42.96118 -108.22482l0 0c0 -84.52884 -65.67041 -153.05301 -146.67896 -153.05301l0 0c-81.0083 0 -146.67871 68.52417 -146.67871 153.05301z" fill-rule="evenodd"/><path fill="#6fa8dc" d="m3366.3809 592.31085l0 0c0 84.52887 65.67041 153.05304 146.67871 153.05304l0 0c38.90161 0 76.20996 -16.125183 103.71777 -44.828186c27.507568 -28.703003 42.96118 -67.63263 42.96118 -108.22485l0 0c0 -84.52884 -65.67041 -153.05301 -146.67896 -153.05301l0 0c-81.0083 0 -146.67871 68.52417 -146.67871 153.05301z" fill-rule="evenodd"/><path fill="#6fa8dc" d="m2791.6138 667.67944l0 0c0 42.902954 41.790283 77.68268 93.341064 77.68268l0 0c51.55078 0 93.341064 -34.779724 93.341064 -77.68268l0 0c0 -42.903015 -41.790283 -77.68274 -93.341064 -77.68274l0 0c-51.55078 0 -93.341064 34.779724 -93.341064 77.68274z" fill-rule="evenodd"/><path fill="#6fa8dc" d="m3143.9526 592.31085l0 0c0 66.76904 49.793945 120.895996 111.21802 120.895996l0 0c29.496826 0 57.785645 -12.737183 78.64307 -35.409607c20.857422 -22.672424 32.57495 -53.42279 32.57495 -85.48639l0 0c0 -66.76898 -49.793945 -120.895966 -111.21802 -120.895966l0 0c-61.424072 0 -111.21802 54.126984 -111.21802 120.895966z" fill-rule="evenodd"/><path fill="#6fa8dc" d="m3271.8193 547.01404l0 0c0 84.52881 65.67041 153.05298 146.67896 153.05298l0 0c38.90161 0 76.20996 -16.125183 103.71753 -44.828186c27.507568 -28.703003 42.96118 -67.63263 42.96118 -108.22479l0 0c0 -84.52887 -65.67041 -153.05304 -146.67871 -153.05304l0 0c-81.008545 0 -146.67896 68.52417 -146.67896 153.05304z" fill-rule="evenodd"/></g></svg>