<svg version="1.1" viewBox="0.0 0.0 882.8398950131234 396.0472440944882" fill="none" stroke="none" stroke-linecap="square" stroke-miterlimit="10" xmlns:xlink="http://www.w3.org/1999/xlink" xmlns="http://www.w3.org/2000/svg"><clipPath id="p.0"><path d="m0 0l882.8399 0l0 396.04724l-882.8399 0l0 -396.04724z" clip-rule="nonzero"/></clipPath><g clip-path="url(#p.0)"><path fill="#000000" fill-opacity="0.0" d="m0 0l882.8399 0l0 396.04724l-882.8399 0z" fill-rule="evenodd"/><path fill="#000000" fill-opacity="0.0" d="m494.2362 481.88977l0 482.07874" fill-rule="evenodd"/><path stroke="#000000" stroke-width="1.0" stroke-linejoin="round" stroke-linecap="butt" d="m494.2362 481.88977l0 482.07874" fill-rule="evenodd"/><path fill="#301907" d="m647.8991 325.39072c1.3065186 0.33935547 2.6640015 0.5090637 4.0044556 0.5090637c1.1029663 0 2.2058716 -0.10183716 3.29187 -0.3224182c0.15270996 0 0.30541992 -0.067871094 0.42419434 -0.067871094c0.18664551 1.0350647 0.35632324 2.0870972 0.5090332 3.1221619c0.08483887 0.30541992 0.033935547 0.62783813 -0.15270996 0.8993225c-0.18664551 0.15270996 -0.40722656 0.27148438 -0.66174316 0.27148438c-0.033935547 0 -0.067871094 -0.016967773 -0.118774414 -0.016967773c-4.3947754 0.339386 -8.806519 0.5090637 -13.218262 0.5090637c-3.29187 0 -6.583679 -0.08483887 -9.875549 -0.28848267l15.797485 -4.6153564z" fill-rule="evenodd"/><path fill="#301907" d="m643.8776 315.20975l13.557617 0.23757935l-1.5610962 13.150391c-0.67871094 0.067871094 -1.3404541 0.15270996 -1.9852905 0.2545166c-0.6956787 0.033935547 -1.3743896 0.118774414 -2.0361938 0.15270996l-6.1934204 -2.3416138l-1.7816162 -11.453583z" fill-rule="evenodd"/><path fill="#301907" d="m683.564 324.40717c-1.4596558 0.58288574 -2.977234 0.8595276 -4.498474 0.873291c-0.98431396 0.008911133 -1.9701538 -0.09173584 -2.9578247 -0.3237915c-0.17687988 1.4476929 -0.35375977 2.8953857 -0.494812 4.342743c-0.06549072 0.43881226 -0.023986816 0.8547363 0.14318848 1.2914429c0.23596191 0.2388916 0.5602417 0.38931274 0.86450195 0.38656616c5.4142456 0.630249 10.8776245 0.931427 16.336182 0.88204956c2.6845703 -0.024291992 5.367859 -0.13619995 8.049988 -0.3357544l-17.442749 -7.1165466z" fill-rule="evenodd"/><path fill="#301907" d="m674.75616 314.4669l0.49554443 15.600616l0 0l9.74646 -3.1686096l5.387024 -15.132111l-15.629028 2.7001038z" fill-rule="evenodd"/><path fill="#6fa8dc" d="m-12.8426 316.36713l0 0c0 -20.639008 17.265282 -37.37021 38.563087 -37.37021l0 0c10.227566 0 20.03624 3.9372253 27.268219 10.945496c7.231983 7.0082703 11.294865 16.51352 11.294865 26.424713l0 0c0 20.638977 -17.265278 37.37018 -38.563084 37.37018l0 0c-21.297804 0 -38.563087 -16.731201 -38.563087 -37.37018z" fill-rule="evenodd"/><path fill="#6fa8dc" d="m30.672195 327.29187l0 0c0 -20.639008 13.770954 -37.37021 30.758286 -37.37021l0 0c8.157608 0 15.981094 3.9371948 21.74939 10.945465c5.768303 7.0082703 9.008896 16.51355 9.008896 26.424744l0 0c0 20.638977 -13.77095 37.37018 -30.758286 37.37018l0 0c-16.987331 0 -30.758286 -16.731201 -30.758286 -37.37018z" fill-rule="evenodd"/><path fill="#6fa8dc" d="m64.285805 304.45453l0 0c0 -20.639008 13.770958 -37.37021 30.758286 -37.37021l0 0c8.157608 0 15.981094 3.9371948 21.749397 10.945465c5.7682953 7.0082703 9.008888 16.51355 9.008888 26.424744l0 0c0 20.638977 -13.77095 37.37018 -30.758286 37.37018l0 0c-16.987328 0 -30.758286 -16.731201 -30.758286 -37.37018z" fill-rule="evenodd"/><path fill="#6fa8dc" d="m85.107605 346.07693l0 0c0 -16.302643 16.474243 -29.518585 36.79625 -29.518585l0 0c20.322006 0 36.79625 13.215942 36.79625 29.518585l0 0c0 16.302643 -16.474243 29.518555 -36.79625 29.518555l0 0c-20.322006 0 -36.79625 -13.215912 -36.79625 -29.518555z" fill-rule="evenodd"/><path fill="#6fa8dc" d="m120.970474 310.5829l0 0c0 -11.410858 8.763336 -20.661224 19.573456 -20.661224l0 0c5.1911926 0 10.169785 2.1768188 13.840515 6.051544c3.6707458 3.8747253 5.7329407 9.130005 5.7329407 14.60968l0 0c0 11.410889 -8.763336 20.661255 -19.573456 20.661255l0 0c-10.81012 0 -19.573456 -9.250366 -19.573456 -20.661255z" fill-rule="evenodd"/><path fill="#6fa8dc" d="m151.88696 338.2253l0 0c0 -20.638977 13.77095 -37.37018 30.758286 -37.37018l0 0c8.157608 0 15.981094 3.9371948 21.749405 10.945465c5.7682953 7.0082703 9.008881 16.51352 9.008881 26.424713l0 0c0 20.638977 -13.77095 37.37018 -30.758286 37.37018l0 0c-16.987335 0 -30.758286 -16.731201 -30.758286 -37.37018z" fill-rule="evenodd"/><path fill="#6fa8dc" d="m41.856556 291.11557l0 0c0 -13.272095 8.763336 -24.03125 19.573456 -24.03125l0 0c5.191204 0 10.169788 2.5318604 13.840527 7.0386047c3.6707306 4.506714 5.732933 10.619171 5.732933 16.992645l0 0c0 13.272095 -8.763336 24.03128 -19.57346 24.03128l0 0c-10.81012 0 -19.573456 -10.759186 -19.573456 -24.03128z" fill-rule="evenodd"/><path fill="#6fa8dc" d="m171.22235 304.45453l0 0c0 -16.302673 10.441711 -29.518585 23.32222 -29.518585l0 0c6.18544 0 12.117538 3.1099854 16.491302 8.645782c4.373764 5.5358276 6.8309174 13.043976 6.8309174 20.872803l0 0c0 16.302643 -10.441711 29.518555 -23.32222 29.518555l0 0c-12.880508 0 -23.32222 -13.215912 -23.32222 -29.518555z" fill-rule="evenodd"/><path fill="#6fa8dc" d="m200.0814 327.29187l0 0c0 -20.639008 13.77095 -37.37021 30.758286 -37.37021l0 0c8.157608 0 15.981094 3.9371948 21.74939 10.945465c5.7683105 7.0082703 9.008911 16.51355 9.008911 26.424744l0 0c0 20.638977 -13.770966 37.37018 -30.7583 37.37018l0 0c-16.987335 0 -30.758286 -16.731201 -30.758286 -37.37018z" fill-rule="evenodd"/><path fill="#6fa8dc" d="m239.48813 362.20657l0 0c0 -20.638977 13.77095 -37.37018 30.75827 -37.37018l0 0c8.157623 0 15.98111 3.9371948 21.74942 10.945465c5.76828 7.0082703 9.008881 16.51352 9.008881 26.424713l0 0c0 20.638977 -13.770966 37.37021 -30.7583 37.37021l0 0c-16.98732 0 -30.75827 -16.731232 -30.75827 -37.37021z" fill-rule="evenodd"/><path fill="#6fa8dc" d="m283.68088 352.51703l0 0c0 -20.638977 13.770966 -37.37018 30.7583 -37.37018l0 0c8.157593 0 15.981079 3.9371948 21.74939 10.945465c5.7683105 7.0082703 9.008881 16.51352 9.008881 26.424713l0 0c0 20.638977 -13.770935 37.37018 -30.75827 37.37018l0 0c-16.987335 0 -30.7583 -16.731201 -30.7583 -37.37018z" fill-rule="evenodd"/><path fill="#6fa8dc" d="m338.8353 362.20657l0 0c0 -20.638977 13.770935 -37.37018 30.75827 -37.37018l0 0c8.157623 0 15.98111 3.9371948 21.74939 10.945465c5.7683105 7.0082703 9.008911 16.51352 9.008911 26.424713l0 0c0 20.638977 -13.770966 37.37021 -30.7583 37.37021l0 0c-16.987335 0 -30.75827 -16.731232 -30.75827 -37.37021z" fill-rule="evenodd"/><path fill="#6fa8dc" d="m379.3049 335.01703l0 0c0 -20.638977 13.770935 -37.37018 30.75827 -37.37018l0 0c8.157623 0 15.98111 3.9371948 21.74939 10.945465c5.7683105 7.0082703 9.008911 16.51352 9.008911 26.424713l0 0c0 20.638977 -13.770966 37.37018 -30.7583 37.37018l0 0c-16.987335 0 -30.75827 -16.731201 -30.75827 -37.37018z" fill-rule="evenodd"/><path fill="#6fa8dc" d="m258.77725 316.61465l0 0c0 -10.475403 8.763336 -18.967407 19.573456 -18.967407l0 0c5.1911926 0 10.1698 1.998352 13.840515 5.5554504c3.6707458 3.5570679 5.7329407 8.3815 5.7329407 13.411957l0 0c0 10.475403 -8.763336 18.967407 -19.573456 18.967407l0 0c-10.81012 0 -19.573456 -8.492004 -19.573456 -18.967407z" fill-rule="evenodd"/><path fill="#6fa8dc" d="m332.6621 335.01703l0 0c0 -16.302643 10.441711 -29.518585 23.322205 -29.518585l0 0c6.1854553 0 12.117554 3.1099854 16.491302 8.645813c4.3737793 5.535797 6.8309326 13.043945 6.8309326 20.872772l0 0c0 16.302643 -10.441711 29.518555 -23.322235 29.518555l0 0c-12.880493 0 -23.322205 -13.215912 -23.322205 -29.518555z" fill-rule="evenodd"/><path fill="#6fa8dc" d="m359.47552 346.07693l0 0c0 -20.638977 13.770966 -37.37018 30.75827 -37.37018l0 0c8.157623 0 15.98111 3.9371948 21.74942 10.945465c5.76828 7.0082703 9.008881 16.51352 9.008881 26.424713l0 0c0 20.638977 -13.770966 37.37018 -30.7583 37.37018l0 0c-16.987305 0 -30.75827 -16.731201 -30.75827 -37.37018z" fill-rule="evenodd"/><path fill="#6fa8dc" d="m-1.2043121 324.53455l442.29922 0l0 75.055115l-442.29922 0z" fill-rule="evenodd"/><path fill="#6fa8dc" d="m378.1525 325.44308l510.11026 0l0 75.055115l-510.11026 0z" fill-rule="evenodd"/><path fill="#6fa8dc" d="m887.4544 348.91592l0 0c-13.928589 11.12381 -30.870972 10.1918335 -40.77649 -2.243042c-9.905579 -12.434906 -10.123596 -33.045227 -0.5247803 -49.60443c9.598755 -16.559204 26.445862 -24.636139 40.54712 -19.439392z" fill-rule="evenodd"/><path fill="#134f5c" d="m607.2699 155.53741l-7.361084 6.2111816l-4.293213 10.400177l-9.50769 11.410049l-9.210266 3.4046173l-11.823242 -4.440323l-12.664917 -11.659592l10.07782 4.5375366l13.413208 -0.0040130615l11.965271 -7.9122314l12.470032 -10.117401z" fill-rule="evenodd"/><path fill="#134f5c" d="m569.63916 163.3922l-11.214905 -3.749054l-16.08014 -9.296387l-14.59375 -16.637177l-8.835022 -2.4247894l8.9646 6.0490265l15.1762085 16.605545l10.839722 9.580917l10.634399 3.7805786z" fill-rule="evenodd"/><path fill="#134f5c" d="m617.4483 130.29263l-2.6254883 8.129379l-14.772034 10.971603l-19.003052 6.8408813l-14.630005 -1.3833923l-16.662598 -9.262314l15.136841 -0.8218994l15.456116 -8.104218l12.599609 -6.4931946l11.61792 -1.3575745z" fill-rule="evenodd"/><path fill="#134f5c" d="m619.9959 119.984795l-4.966919 -8.44632l-25.212585 -3.7133026l-21.382751 5.519058l-17.411072 2.3964233l-7.671997 -2.4879456l9.171936 11.849266l10.1813965 7.436432l10.53064 0.87924194l13.206055 -5.799362l9.158447 -4.8552933l12.806824 -0.6953964l7.1154785 3.2449112z" fill-rule="evenodd"/><path fill="#134f5c" d="m492.96368 90.56977l10.945251 12.477272l9.52124 5.2945023l8.511658 9.704887l2.5870972 7.122055l-14.177124 -5.039253l-7.2191772 -6.146248z" fill-rule="evenodd"/><path fill="#134f5c" d="m512.2257 90.974915l13.143799 8.729073l4.992798 9.169212l6.2874146 12.732628l7.9052124 9.01107l9.54718 6.0198517l-10.427124 2.017212l-12.613037 -10.208939l-9.638367 -24.895515z" fill-rule="evenodd"/><path fill="#134f5c" d="m515.4077 82.08612l-9.780273 -12.540527l-25.730896 -18.21267l16.598389 23.793297l11.34436 7.3708496z" fill-rule="evenodd"/><path fill="#134f5c" d="m556.4808 105.27723l-13.700317 -7.9721146l-12.237915 -16.040787l-14.218567 -22.46904l-10.155487 -6.7111053l7.957184 10.464184l6.895752 13.423893l3.9075317 11.408363l12.898071 18.182732l8.278503 3.181755z" fill-rule="evenodd"/><path fill="#134f5c" d="m555.8288 21.791073l6.2873535 12.730186l16.235535 13.643501l24.436401 14.651695l12.343506 18.939587l5.730835 13.489586l-8.938782 -5.3261337l-11.242798 -4.474289l-11.901001 -6.6163254l-12.134155 -13.13945l-12.949951 -19.6334z" fill-rule="evenodd"/><path fill="#134f5c" d="m562.8677 55.54375l-13.027649 -21.806957l-38.240326 -25.522705l14.270355 23.917263l19.301514 17.835033z" fill-rule="evenodd"/><path fill="#134f5c" d="m583.8265 87.08712l-10.5182495 -16.858467l-26.63678 -10.900951l-14.306763 -8.665928l-24.695465 -21.900158l19.923492 35.233295l21.046997 17.74025l19.896423 1.8241882z" fill-rule="evenodd"/><path fill="#134f5c" d="m508.81985 44.67769l-25.962128 -24.735907l10.568146 18.30924z" fill-rule="evenodd"/><path fill="#134f5c" d="m545.4059 89.17329l12.379883 3.6858063l27.96759 -0.79185486l17.037842 3.4328842l12.483459 6.5847015l7.8774414 8.288284l-16.557007 -6.36351l-8.228638 -1.733429l-18.627808 1.0114594l-16.40149 -2.0139542l-13.59668 -5.0732117z" fill-rule="evenodd"/><path fill="#134f5c" d="m605.46014 170.16075l-5.845703 32.274506l-5.6395264 5.3909607l-13.997803 0.033309937l9.05481 -7.754181l8.059631 -19.320694z" fill-rule="evenodd"/><path fill="#134f5c" d="m610.63544 185.91946l2.9839478 22.785416l-4.9293823 13.767456l-17.360046 -0.4080963l12.648254 -10.13443z" fill-rule="evenodd"/><path fill="#134f5c" d="m695.91046 152.82024l7.5357666 6.0005035l4.59021 10.275879l9.830872 11.137222l9.303223 3.1419067l11.688904 -4.7757263l12.322388 -12.017456l-9.941711 4.8232727l-13.405945 0.37754822l-12.186401 -7.5702057l-12.754395 -9.76059z" fill-rule="evenodd"/><path fill="#134f5c" d="m733.7466 159.6029l11.10083 -4.0673065l15.803772 -9.751877l14.106873 -17.048859l8.760376 -2.675621l-8.7855835 6.302788l-14.689941 17.033813l-10.558044 9.887283l-10.519714 4.082306z" fill-rule="evenodd"/><path fill="#134f5c" d="m685.01105 127.87023l2.8580322 8.053017l15.079712 10.549103l19.189453 6.298874l14.582214 -1.7992859l16.38684 -9.734375l-15.152161 -0.3911438l-15.680908 -7.662857l-12.779602 -6.133415l-11.650574 -1.0268021z" fill-rule="evenodd"/><path fill="#134f5c" d="m682.16815 117.63701l4.7211304 -8.585861l25.091858 -4.4297485l21.529846 4.9096375l17.470459 1.9006424l7.5961914 -2.7056732l-8.825867 12.107712l-9.961792 7.7245255l-10.499573 1.1786194l-13.365662 -5.422493l-9.293152 -4.5937576l-12.819824 -0.33093262l-7.0181885 3.4466476z" fill-rule="evenodd"/><path fill="#134f5c" d="m808.28406 84.61443l-10.580139 12.786034l-9.363647 5.5642548l-8.227661 9.945l-2.3807373 7.1941757l14.024292 -5.441498l7.03833 -6.350334z" fill-rule="evenodd"/><path fill="#134f5c" d="m789.0442 85.56743l-12.885315 9.101166l-4.7261353 9.309334l-5.9174805 12.908844l-7.6415405 9.234085l-9.368652 6.290169l10.479431 1.7201843l12.312317 -10.565613l8.916504 -25.164528z" fill-rule="evenodd"/><path fill="#134f5c" d="m785.60815 76.770996l9.414001 -12.816135l25.192566 -18.940853l-15.904541 24.260536l-11.125977 7.692024z" fill-rule="evenodd"/><path fill="#134f5c" d="m745.2251 101.125694l13.463379 -8.360191l11.76947 -16.38559l13.564087 -22.868847l9.956787 -6.998604l-7.6516113 10.68837l-6.505615 13.617268l-3.5770874 11.5171585l-12.367676 18.54586l-8.182373 3.4165955z" fill-rule="evenodd"/><path fill="#134f5c" d="m743.4739 17.638315l-5.9174805 12.906399l-15.833984 14.102518l-24.00122 15.343792l-11.791626 19.286785l-5.3394165 13.649818l8.780518 -5.5793076l11.107849 -4.7931824l11.704041 -6.953499l11.749329 -13.481907l12.377808 -19.997707z" fill-rule="evenodd"/><path fill="#134f5c" d="m737.41034 51.58422l12.392883 -22.173025l37.48474 -26.60522l-13.574158 24.318245l-18.777588 18.380398z" fill-rule="evenodd"/><path fill="#134f5c" d="m717.3709 83.717255l10.027283 -17.154175l26.30835 -11.656425l14.0494995 -9.071106l24.051636 -22.598122l-18.898499 35.79274l-20.524902 18.335297l-19.832947 2.3897934z" fill-rule="evenodd"/><path fill="#134f5c" d="m791.1157 39.182926l25.235962 -25.469309l-10.0354 18.60607z" fill-rule="evenodd"/><path fill="#134f5c" d="m755.83044 84.710045l-12.266968 4.0372086l-27.975098 0.0038986206l-16.929626 3.9168472l-12.287109 6.938446l-7.6345215 8.510651l16.364746 -6.8331833l8.174255 -1.9671478l18.646667 0.48134613l16.334473 -2.4801025l13.443237 -5.458946z" fill-rule="evenodd"/><path fill="#134f5c" d="m698.1401 167.38905l6.7714233 32.101517l5.791565 5.229416l13.991028 -0.36488342l-9.272949 -7.494995l-8.611328 -19.087418z" fill-rule="evenodd"/><path fill="#134f5c" d="m693.4212 183.29172l-2.326538 22.86557l5.322937 13.624374l17.338745 -0.90185547l-12.932983 -9.772522z" fill-rule="evenodd"/><path fill="#301907" d="m650.4229 64.42828c-2.0263062 0 -3.8933105 1.1281738 -5.532593 4.3028107c-4.0527344 7.897232 -7.0809326 16.319199 -11.29303 24.08525c-2.5044556 4.617653 -5.145569 9.156593 -6.602722 14.351456c-1.4571533 5.11615 -1.5026855 11.124344 1.0928345 15.663284c2.6183472 4.512703 7.2630615 6.742813 11.862183 7.2150726c0.7741699 0.07872009 1.5482788 0.13119507 2.3223877 0.13119507c3.802246 0 7.6500854 -0.94451904 11.384033 -1.8628082l28.255249 -6.8477707c3.1875 -0.8133316 6.6937866 -1.7316132 8.74292 -4.6701202c3.5518188 -4.9062576 1.2522583 -12.33123 -1.7075806 -17.68351c-7.354126 -13.380692 -17.73639 -24.08525 -29.985596 -31.116676c-3.0964966 -1.7840881 -5.965271 -3.568184 -8.538086 -3.568184z" fill-rule="evenodd"/><path fill="#e7b790" d="m648.25287 67.01495c1.9029541 -0.12289429 4.0511475 -0.030036926 6.6296997 0.7373657c2.5786133 0.76740265 6.938843 3.038475 8.841797 3.8670502c1.9029541 0.82858276 1.4708862 0.61338043 2.5758667 1.1044083c1.1049805 0.49102783 3.7774658 0.7368164 4.053833 1.8417664c0.2763672 1.10495 -1.9963379 3.283722 -2.3955688 4.787941c-0.399292 1.504219 0.46044922 4.4826126 0 4.2373734c-0.46044922 -0.24523926 -2.2104492 -5.2483826 -2.7626953 -5.708824c-0.55218506 -0.4604416 -0.73461914 1.5648499 -0.5505371 2.9461746c0.18408203 1.3813248 2.1465454 3.5000076 1.6549683 5.341774c-0.49157715 1.841774 -3.468872 4.389221 -4.604431 5.708824c-1.135498 1.3196106 -0.42877197 1.4993057 -2.2088013 2.208809c-1.7800293 0.7095108 -7.857544 1.5839691 -8.471497 2.048233c-0.6138916 0.46426392 5.555359 0.863533 4.787964 0.7373581c-0.767395 -0.1261673 -7.305359 -0.8766403 -9.392334 -1.4943848c-2.0870361 -0.61774445 -2.2700195 -1.3829651 -3.1296997 -2.2120895c-0.8597412 -0.82912445 -1.5681152 -1.7194138 -2.0285645 -2.7626495c-0.46044922 -1.0432281 -0.6117554 -2.0848236 -0.7340698 -3.4967346c-0.12237549 -1.411911 -0.15350342 -3.3170395 0 -4.974739c0.15344238 -1.6576996 0.49157715 -3.3448944 0.9208374 -4.9714584c0.4293213 -1.626564 0.7958374 -3.0690613 1.6549683 -4.787941c0.8591919 -1.7188721 3.4382935 -4.911377 3.500061 -5.525299c0.061706543 -0.6139221 -3.406067 1.7805939 -3.1296997 1.8417664c0.2763672 0.061172485 2.8849487 -1.3518295 4.787903 -1.4747238z" fill-rule="evenodd"/><path fill="#000000" fill-opacity="0.0" d="m630.30273 164.68987c6.4194336 0.57240295 32.097107 2.8620605 38.51654 3.4344635" fill-rule="evenodd"/><path stroke="#8b5a32" stroke-width="1.0" stroke-linejoin="round" stroke-linecap="butt" d="m630.30273 164.68987c6.4194336 0.57240295 32.097107 2.8620605 38.51654 3.4344635" fill-rule="evenodd"/><path fill="#e7b790" d="m666.3202 147.26517l-33.102966 4.825348l-5.8967285 23.61766c0 0 11.440979 12.08551 24.223999 12.08551c0.58288574 0 1.1793213 -0.022140503 1.7758179 -0.06640625c13.514954 -1.2174072 17.405457 -6.419052 17.405457 -6.419052l-4.4055786 -34.04306z" fill-rule="evenodd"/><path fill="#e7b790" d="m648.24005 102.77659l-5.2958984 14.029785l10.606445 6.875908l12.171814 -2.0774078l-2.1798096 -18.769768l-15.302551 -0.058517456z" fill-rule="evenodd"/><path fill="#e7b790" d="m662.63556 85.19182l-13.078857 4.476654l-0.29260254 2.282219l-0.48272705 4.1694336l-0.21948242 1.8286972l-0.19018555 1.7994385l-0.02923584 0.13166809l-0.29260254 2.3407364l-0.29260254 2.4724045l-0.5120239 4.3742447l16.297363 -6.2322083l-0.20483398 -3.4672089l-0.7022095 -14.176079z" fill-rule="evenodd"/><path fill="#ba68b3" d="m667.11224 148.20148c-0.5413208 0 -0.9216919 0.4681549 -1.1411133 0.994812l0.9362793 -0.029251099c0.07318115 0.13166809 0.14630127 0.17555237 0.21942139 0.17555237c0.35113525 0 0.67297363 -1.0825958 0.043945312 -1.1411133c-0.029296875 0 -0.043945312 0 -0.058532715 0z" fill-rule="evenodd"/><path fill="#e7b790" d="m630.8308 110.38398c0 0 0 0.029258728 0 0.029258728c0.029296875 0 0.029296875 -0.029258728 0 -0.029258728z" fill-rule="evenodd"/><path fill="#e7b790" d="m630.8308 114.05601c-0.02923584 0 -0.02923584 0.029258728 0 0.029258728c0.029296875 0 0.029296875 -0.029258728 0 -0.029258728z" fill-rule="evenodd"/><path fill="#e7b790" d="m607.2772 185.98972l-2.6625977 0.54130554c0.21942139 1.1557312 -0.67297363 2.1798096 -1.4483643 3.0868378c-1.2581177 1.4483337 -2.1505127 3.1453705 -2.6333008 4.97406c-0.45355225 1.8725891 -0.1609497 3.832962 0.7753296 5.5007324c0.1609497 0.248703 0.40966797 0.5412903 0.7022705 0.5412903c0.19018555 -0.029251099 0.35107422 -0.13166809 0.48272705 -0.248703c0.45355225 -0.36573792 0.7753906 -0.8777771 0.9655762 -1.4190674c0.4389038 0.4096222 0.3803711 1.2873993 0.9655762 1.5361023c0.087768555 0.029266357 0.19018555 0.043899536 0.2779541 0.043899536c0.32183838 0 0.62908936 -0.14630127 0.7753296 -0.42427063c0.21948242 -0.3803711 0.3218994 -0.7753601 0.35113525 -1.1849976c0.32183838 0.3803711 0.5120239 0.92167664 0.9655762 1.1557465c0.07312012 0.029251099 0.16088867 0.043884277 0.23406982 0.043884277c0.42425537 0 0.8631592 -0.42425537 0.57055664 -0.7607422l0 0c0.4534912 0.23408508 0.994812 0.43888855 1.4776001 0.43888855c0.35107422 0 0.6583252 -0.10240173 0.9069824 -0.36573792c0.19018555 -0.21943665 0.27801514 -0.5120392 0.35113525 -0.80462646c0.4827881 -2.1505432 0.058532715 -4.4035034 -0.64367676 -6.4955444c-0.7168579 -2.0773926 -1.7116699 -4.08165 -2.4138794 -6.1590576z" fill-rule="evenodd"/><path fill="#e7b790" d="m606.8529 186.50175l1.2289429 7.197754c0.23406982 -0.11703491 0.46813965 -0.17555237 0.7022095 -0.17555237c0.8777466 0 1.7701416 0.70222473 2.3553467 1.4629669c0.73150635 0.9216614 1.4776001 2.0773926 2.6918335 2.238327c0.058532715 -1.6677704 0.80462646 -3.3648071 0.13165283 -4.97406c-0.7022095 -1.6092529 -2.574768 -2.2529602 -4.081604 -3.1161041c-1.1849976 -0.6729584 -2.223755 -1.5800018 -3.0283813 -2.6333313z" fill-rule="evenodd"/><path fill="#e7b790" d="m636.06824 109.681755c0 0 -25.704224 11.923119 -37.086 27.796227c-11.367249 15.85849 3.9938354 52.681168 3.9938354 52.681168l6.071289 -1.3459167c0 0 -8.997192 -37.598053 13.781067 -47.911926c22.749023 -10.299225 39.163452 -30.707512 13.239807 -31.219551z" fill-rule="evenodd"/><path fill="#e7b790" d="m667.52185 107.194725c-3.291626 0 -6.4370117 3.233139 -8.836243 11.030716c0 0 4.4035034 27.95716 16.516785 43.274345c7.548889 9.538483 25.73346 11.337936 38.38806 11.337936c7.709778 0 13.37146 -0.67297363 13.37146 -0.67297363l0.40960693 -6.202942c0 0 -38.651367 -1.6970367 -42.27954 -26.435684c-2.5162964 -16.941063 -10.401611 -32.331398 -17.57013 -32.331398z" fill-rule="evenodd"/><path fill="#ba68b3" d="m648.24005 100.294136c-18.799011 1.5946274 -13.781067 19.852364 -13.239807 27.532898c0.51208496 7.6805344 -7.680481 24.387535 -7.680481 24.387535l7.4318237 2.369995c0 0 11.630493 -1.345932 16.121765 -1.6092529c0.55596924 -0.029266357 1.0679932 -0.043899536 1.5653687 -0.043899536c3.5404053 0 5.793335 0.8338928 9.041138 2.721115c2.1066284 1.1996155 5.20813 1.4629517 7.504944 1.4629517c1.7409668 0 2.9990845 -0.14630127 2.9990845 -0.14630127c0 0 0.07312012 -16.970322 -0.19018555 -21.18364c-0.26330566 -4.227951 3.1746216 -7.665909 3.1746216 -10.591835c0 -2.9259186 -11.42572 -24.84105 -11.42572 -24.84105l-0.74609375 10.53331l-14.5564575 -10.591827z" fill-rule="evenodd"/><path fill="#ba68b3" d="m641.8157 101.87893c-2.8966675 1.3898163 -9.026428 3.1892548 -13.488464 5.764061c-4.5059204 2.5894394 -8.16333 4.652214 -8.16333 4.652214c0 0 3.1746216 20.174202 15.287903 24.2266c1.6092529 0.54130554 3.0283203 0.77537537 4.286499 0.77537537c8.324219 0 9.816467 -10.094421 9.816467 -10.094421l-7.7390747 -25.32383z" fill-rule="evenodd"/><path fill="#ba68b3" d="m663.5426 102.835106l4.622986 32.03881l16.385132 -8.646088c0 0 -0.90704346 -5.178879 -6.173706 -14.015152c-5.2666626 -8.836273 -14.834412 -9.377571 -14.834412 -9.377571z" fill-rule="evenodd"/><path fill="#301907" d="m653.1642 80.173904c-1.9603271 0 -1.9603271 3.0136948 0 3.0136948c1.9311523 0 1.9311523 -3.0136948 0 -3.0136948z" fill-rule="evenodd"/><path fill="#301907" d="m644.8746 78.60579c-1.6677246 0 -1.6677246 2.604065 0 2.604065c1.6677856 0 1.6677856 -2.604065 0 -2.604065z" fill-rule="evenodd"/><path fill="#301907" d="m648.17737 80.54235c-0.1083374 0 -0.23016357 0.060897827 -0.25726318 0.17591858c-0.08795166 0.3383026 -0.13537598 0.6833725 -0.18273926 1.0216751c-0.054138184 0.31123352 -0.16247559 0.5954056 -0.31134033 0.85928345c-0.14892578 0.27064514 -0.37231445 0.48039246 -0.62280273 0.62924194c-0.28424072 0.11502075 -0.5482788 0.26387787 -0.80548096 0.46009064c-0.22338867 0.17591858 -0.32489014 0.46009064 -0.27752686 0.7442627c0.054138184 0.2774048 0.29785156 0.46009064 0.534729 0.6360092c0.48736572 0.37213135 1.0830688 0.75779724 1.7058105 0.7848587c0.088012695 0 0.14892578 -0.11502075 0.07446289 -0.17591858l0 -0.0135269165c-0.41290283 -0.3856659 -0.9476929 -0.6224823 -1.3808594 -0.9810791c-0.12188721 -0.07442474 -0.22338867 -0.17591858 -0.32495117 -0.28417206c-0.07446289 -0.11502075 -0.020263672 -0.20974731 0.088012695 -0.31124115c0.22338867 -0.1894455 0.5482788 -0.26387024 0.7852173 -0.41272736c0.43322754 -0.2977066 0.7581177 -0.71720123 0.94085693 -1.1908188c0.22338867 -0.56835175 0.31140137 -1.1772919 0.23693848 -1.7659378c-0.013549805 -0.121788025 -0.1083374 -0.17591858 -0.20306396 -0.17591858z" fill-rule="evenodd"/><path fill="#301907" d="m652.70856 75.85383c-0.3204956 0 -0.6270752 0.032608032 -0.9336548 0.0978241c-0.6688843 0.14128876 -0.6688843 0.8586273 0 1.0325241l0 0.021736145c0.45983887 0.0978241 0.91967773 0.16303253 1.3516846 0.28259277l0.3623047 0.09781647l0.15332031 0.065208435c0.027832031 0.010871887 0.027832031 0.010871887 0.041809082 0.010871887c0 0 0 0 0 0l0 0c0.20898438 0.065208435 0.4319458 0.16303253 0.6409912 0.260849c0.083618164 0.04347229 0.18115234 0.08695221 0.2647705 0.14129639l0.13934326 0.065208435l0 0c0.013977051 0 0.055725098 0.032608032 0.16723633 0.09781647l0.055725098 0.032608032l0 0c0 0 0 0 0 0l0 0c-0.013916016 0 0.055725098 0.04347229 0.06970215 0.04347229c0.09753418 0.065216064 0.18115234 0.14129639 0.27868652 0.21737671c0.3204956 0.22824097 0.6828003 0.64125824 1.1148071 0.77168274l0 0c0.15332031 0.09781647 0.3204956 0.18476868 0.515625 0.18476868c0.041809082 0 0.083618164 -0.010871887 0.13934326 -0.010871887l0 0c0 0 0 0 0.013916016 0c0.11151123 0 0.22296143 -0.065216064 0.29266357 -0.14129639c0.041809082 -0.021736145 0.06964111 -0.065208435 0.09753418 -0.09781647c0.09753418 -0.11955261 0.09753418 -0.20650482 0.09753418 -0.32605743c-0.027832031 -0.065216064 -0.041809082 -0.11956024 -0.055725098 -0.17390442l0 0c0.041809082 -0.46735382 -0.45983887 -0.9455795 -0.8361206 -1.2607727c-0.43200684 -0.33692932 -0.8918457 -0.61951447 -1.4074707 -0.8368912c-0.76641846 -0.33692932 -1.6860962 -0.5760422 -2.5640259 -0.5760422z" fill-rule="evenodd"/><path fill="#301907" d="m649.2727 58.574574c-3.8953247 0.28936386 -7.0654297 0.8622627 -8.189209 1.5325317c-0.52246094 0.27352905 -0.94659424 0.68644714 -1.2609253 1.1939049c1.1838989 -0.058605194 2.3580933 0.14756393 3.434021 0.6104202c1.2272949 0.5249634 1.8867188 1.5028648 3.0183105 2.1229477c0.6598511 0.39108276 1.1802368 0.4844513 1.7054443 0.44543457c0.5252075 -0.039009094 1.0552979 -0.2104187 1.7209473 -0.3332138c0.2020874 -0.04434967 0.41986084 -0.07519531 0.6532593 -0.092536926c2.421875 -0.17990494 6.4509277 0.73838806 5.8986816 3.375969l0.13348389 0.019424438c0 0 0.38378906 5.956764 2.4207764 7.903221c2.0224 1.9475479 4.9000854 0.79491425 3.5848389 5.6016235c-1.1830444 4.4154663 -0.17492676 5.9395905 0.77337646 5.8691483c0.087524414 -0.0065078735 0.1739502 -0.02759552 0.260437 -0.048690796c0.38415527 -0.16056061 0.55529785 -0.8187485 0.76049805 -1.6114883c0.022583008 -0.4857788 0.1494751 -0.94997406 0.38171387 -1.3779755c0.26135254 -0.8262558 0.71673584 -1.6082382 1.5731201 -1.7305374l0.13134766 -0.009757996c0.3527832 -0.1875763 0.7266846 -0.2886963 1.0768433 -0.3147049c1.3713989 -0.101875305 2.5917358 0.92237854 3.0119019 2.431488c0.7446289 2.7172775 -0.4197998 5.6057053 -2.8370361 7.0322037c-1.0249023 0.6189194 -2.1557617 0.996315 -3.3375244 1.0841064c-0.16046143 0.011917114 -0.3366089 0.0103302 -0.51275635 0.0087509155l-0.029174805 0.002166748c-0.36761475 1.9637146 -0.6789551 3.893921 -0.52941895 5.907242c2.1045532 -0.69911957 5.1502686 -1.7615433 6.6046753 -2.720436c2.3659058 -1.5253677 10.209473 -7.7118835 9.824219 -17.834763c-0.42791748 -10.1050415 -3.1757202 -13.128273 -9.700684 -16.83913c-4.194702 -2.3582993 -13.568298 -2.747551 -20.571167 -2.2273483z" fill-rule="evenodd"/><path fill="#ffffff" d="m644.7866 86.94997c0 0 0 3.4379578 2.3114624 4.681473c0.36572266 0.19018555 0.7022095 0.27796173 1.0240479 0.27796173c1.8287354 0 3.1307373 -2.4577713 3.1307373 -2.4577713l-6.4662476 -2.5016632z" fill-rule="evenodd"/><path fill="#301907" d="m660.30945 63.905758c-0.07312012 0 -0.14630127 0.043891907 -0.17553711 0.11703873c-0.5852051 1.6677704 -1.6384888 3.1453629 -3.0283203 4.242584c-0.67297363 0.5412903 -1.404419 0.994812 -2.1798096 1.3459167c-0.3803711 0.16092682 -0.7753906 0.32185364 -1.1557617 0.45352173c-0.42425537 0.13166809 -0.9069824 0.21944427 -1.3166504 0.3803711c-0.26330566 0.073143005 -0.19018555 0.4535141 0.058532715 0.48277283c0.9362793 0 1.8725586 -0.19018555 2.706482 -0.59981537c0.8631592 -0.39499664 1.6677856 -0.9070282 2.399231 -1.5214767c1.3898315 -1.2142563 2.4138794 -2.852768 2.8674316 -4.6522064c0.043884277 -0.16092682 -0.058532715 -0.24870682 -0.17559814 -0.24870682z" fill-rule="evenodd"/><path fill="#e79e5f" d="m658.1274 94.68785c-0.10681152 0 -0.26708984 0.058525085 -0.49420166 0.19019318c-1.2822266 0.79003906 -3.6329956 0.98023224 -5.569702 0.98023224c-1.5093384 0 -2.7782593 -0.11704254 -3.0587158 -0.1463089l-0.20037842 1.7995224l0 0.13167572l-0.26708984 2.3408356c0.05340576 0 0.10681152 0 0.16027832 0c6.4780273 0 10.418213 -5.29615 9.42981 -5.29615z" fill-rule="evenodd"/><path fill="#ba68b3" d="m671.96497 83.7409l-0.0146484375 0.029258728l0 0c0 0 0.0146484375 -0.014625549 0.0146484375 -0.029258728zm0.13165283 0.2925949l-0.043884277 0.029258728l0 0c0.0146484375 -0.014633179 0.02923584 -0.014633179 0.043884277 -0.029258728zm-0.5852051 -0.058517456l0.058532715 0.11703491l0 0c-0.02923584 -0.043891907 -0.043884277 -0.073150635 -0.058532715 -0.11703491zm0.83392334 0.3803711l-0.07318115 0.014625549l0 0c0.029296875 0 0.043884277 -0.014625549 0.07318115 -0.014625549zm0.058532715 0.14629364c0.043884277 0.014625549 0.07312012 0.014625549 0.10235596 0.014625549l-0.10235596 -0.014625549zm0.07312012 -10.957565c-1.2288818 0 -2.4431152 0.21944427 -3.569641 0.6583328c-2.1798096 0.8777695 -4.081665 2.2236938 -5.2666626 4.315727c-1.1557007 2.0481415 -1.5068359 4.4620285 -0.96551514 6.74424c0 0.014633179 0.0146484375 0.043891907 0.0146484375 0.058525085l0 0c0.26330566 2.0481415 1.1118164 4.008507 2.5308838 5.5592422c1.8579712 2.0920334 4.5059204 3.233139 7.197754 3.233139c1.302063 0 2.6333618 -0.26332855 3.876831 -0.81925964c3.8330078 -1.6677704 6.1151733 -5.6616516 5.690918 -9.8018265c-0.19018555 -1.9603653 -0.54125977 -4.4035034 -1.6970215 -6.0712814c-1.7262573 -2.5309143 -4.769226 -3.8768387 -7.812195 -3.8768387z" fill-rule="evenodd"/><path fill="#e79e5f" d="m673.0811 79.92516c-0.6437378 0 -1.2581787 0.16092682 -1.8287354 0.48278046l-0.7167969 0.5851822c-0.4389038 0.40962982 -0.7607422 0.994812 -0.9216919 1.5946274l0 -0.029258728l0 0c-0.23406982 0.93629456 -0.10241699 1.9311066 0.35113525 2.7649918c0.5120239 0.80462646 1.2873535 1.3898087 2.1505127 1.6677704l0.9655762 0.13166809c0.64367676 0 1.2435303 -0.19018555 1.7994385 -0.5120392l0.7314453 -0.5412903c0.45355225 -0.45352173 0.7753906 -0.994812 0.93634033 -1.5799942c0.13165283 -0.48278046 0.16088867 -0.9655533 0.05847168 -1.4483337c-0.21942139 -1.4044418 -1.2142334 -2.5601807 -2.5601807 -2.984436l-0.96551514 -0.13166809z" fill-rule="evenodd"/><path fill="#e79e5f" d="m653.79376 56.41068c-1.2290039 0 -2.4725952 0.065898895 -3.5698853 0.30313492c-1.404541 0.28995514 -2.7651978 1.252079 -2.2531128 2.7018547c0.1609497 0.5140114 0.6291504 0.7512474 1.09729 0.7512474c0.5706177 0 1.1411743 -0.35585403 1.1558228 -1.014843l0 -0.026359558c0.0146484375 -0.15815735 0.3803711 -0.22405624 0.9656372 -0.22405624c2.4579468 0 8.792969 1.1202812 9.583008 1.2388992c1.8873291 0.3163147 3.7893066 0.6853485 5.6474 1.1466408c0.51208496 0.14497757 1.7995605 0.26359558 2.223877 0.6458092c0 0 0.117004395 1.4497757 0.16088867 1.7660904c0.38043213 3.4399185 1.2728882 6.800766 1.6386719 10.2406845l1.0826416 10.794235c0.10241699 0.9621277 1.0095215 1.4497757 1.8580933 1.4497757c0.8485718 0 1.6386108 -0.47447205 1.5215454 -1.4497757c-0.4827881 -4.5733795 -1.1557617 -9.1072235 -1.4484253 -13.680603c-0.16088867 -2.2932816 -0.02923584 -4.5470276 -0.21942139 -6.840309c-0.1609497 -1.9637833 0 -4.481121 -2.19458 -5.6409416c-1.8873901 -0.9884834 -4.593994 -1.0675621 -6.67157 -1.3838768c-2.4432983 -0.40857315 -4.959778 -0.6458092 -7.432312 -0.72488785c-0.98028564 0 -2.0629272 -0.052719116 -3.1455688 -0.052719116z" fill-rule="evenodd"/><path fill="#e7b790" d="m732.57965 163.81125c-0.043884277 0 -0.10241699 0 -0.16088867 0c-2.1798096 0.043899536 -4.3011475 0.9655609 -6.173706 2.121292c-1.8579712 1.1557465 -3.5549927 2.6040802 -5.456848 3.7598114l1.1849976 2.4723969c0.2779541 -0.13166809 0.5559082 -0.17555237 0.8338623 -0.17555237c0.83392334 0 1.7263184 0.4681549 2.5162964 0.848526c1.6677856 0.9070282 3.5257568 1.389801 5.4276123 1.4190674c0.043884277 0 0.07312012 0 0.117004395 0c1.8872681 0 3.701294 -0.7314911 5.0618896 -1.989624c0.24865723 -0.19018555 0.38031006 -0.5120392 0.35107422 -0.80462646c-0.07312012 -0.16093445 -0.20483398 -0.32185364 -0.32183838 -0.42427063c-0.4827881 -0.35110474 -1.0386963 -0.5412903 -1.6092529 -0.59980774c0.29260254 -0.55592346 1.1557007 -0.6729584 1.2581177 -1.2873993c0.058532715 -0.42425537 -0.23406982 -0.8338928 -0.6144409 -0.9655609c-0.24865723 -0.058517456 -0.4827881 -0.087768555 -0.7314453 -0.087768555c-0.1609497 0 -0.33648682 0.01461792 -0.49743652 0.058517456c0.29260254 -0.42427063 0.80462646 -0.746109 0.90704346 -1.2288971c0.07318115 -0.36573792 -0.32183838 -0.7753601 -0.62908936 -0.7753601c-0.087768555 0 -0.17553711 0.043884277 -0.23406982 0.13166809c0.1609497 -0.8338928 0.24871826 -1.8872223 -0.4827881 -2.3114777c-0.24865723 -0.10240173 -0.48272705 -0.16093445 -0.74609375 -0.16093445z" fill-rule="evenodd"/><path fill="#713f6d" d="m731.8482 160.73904c-1.6385498 0.30722046 -5.047241 -0.043899536 -6.4663086 1.0240631c-1.3751831 1.0240784 -1.5653687 3.0137024 -2.092041 4.681473c-0.3803711 1.2873993 -1.0240479 2.48703 -1.887207 3.5403595l6.7442627 -2.8235016c-0.80462646 -0.93629456 -0.21948242 -2.3553772 0.54125977 -3.2770386c0.7461548 -0.96554565 3.2770386 -1.9311066 3.1600342 -3.1453552z" fill-rule="evenodd"/><path fill="#301907" d="m728.8491 157.98868c-0.058532715 0 -0.10241699 0 -0.1609497 0.014633179c-3.9207153 0.058517456 -7.7975464 0.83387756 -11.42572 2.2529602l3.3063354 19.910873c4.462036 -0.9216614 8.997192 -1.4483337 13.561584 -1.5361176c-1.4921875 -6.6271973 -2.9990234 -13.239777 -4.5058594 -19.852356c0 -0.43888855 -0.3657837 -0.7899933 -0.7753906 -0.7899933z" fill-rule="evenodd"/><path fill="#e79e5f" d="m728.5273 159.45163l-9.348328 1.8872223c0 0 2.472412 15.902374 2.472412 16.107178l10.708862 -1.0679474l-3.8329468 -16.926453z" fill-rule="evenodd"/><path fill="#e7b790" d="m732.448 163.782c0 0 -6.963684 2.5455475 -6.4223633 4.242584c0.10235596 0.35110474 0.43884277 0.497406 0.9069824 0.497406c0.23406982 0 0.52667236 -0.043884277 0.83392334 -0.11703491l0 0c-0.4389038 0.2779541 -0.7168579 0.5412903 -0.7168579 0.746109c0 0.20480347 0.29260254 0.2779541 0.74609375 0.2779541c0.6144409 0 1.5653687 -0.14628601 2.472412 -0.33647156l0 0c-0.9362793 0.29258728 -1.7409058 0.6583252 -1.7409058 1.0533295c0 0.36573792 0.67297363 0.46813965 1.4776001 0.46813965c1.2873535 0 2.9551392 -0.2779541 2.9551392 -0.2779541l0 0c0 0 -2.7942505 0.6729584 -2.5308838 1.389801c0.14630127 0.35112 1.1557007 0.45352173 2.1651611 0.45352173c1.0386963 0 2.0773926 -0.10240173 2.0773926 -0.10240173l-0.64367676 -2.604065c-0.3218994 -0.77537537 -0.6144409 -1.5800018 -0.8631592 -2.3846283c0.02923584 -0.248703 -0.7168579 -3.3062897 -0.7168579 -3.3062897z" fill-rule="evenodd"/><path fill="#e79e5f" d="m650.2297 133.95226c-0.40960693 0 -0.789978 0.32185364 -0.64367676 0.81925964l-0.029296875 0c2.8674316 10.313858 12.698486 16.648468 22.909973 18.023651c1.8433228 0.26333618 3.701294 0.3803711 5.5446167 0.3803711c4.286438 0 8.558289 -0.643692 12.698486 -1.6970215c6.407776 -1.6092682 12.683838 -4.110916 19.384216 -4.110916c0.13165283 0 0.26330566 0 0.3803711 0c6.8466187 0.13165283 14.102905 3.730545 15.302551 11.089218c0.07312012 0.4681549 0.4973755 0.68759155 0.92163086 0.68759155c0.52667236 0 1.0679932 -0.35110474 0.994812 -0.9509125c-0.5120239 -4.78389 -3.598877 -8.70462 -7.8707275 -10.855164c-2.8234863 -1.4483337 -5.9542236 -2.0042572 -9.114197 -2.0042572c-2.7357788 0 -5.486084 0.40963745 -8.104797 1.0094452c-6.714966 1.5068512 -13.13739 4.0377655 -20.042542 4.681473c-1.40448 0.13166809 -2.8381348 0.20481873 -4.257202 0.20481873c-5.076477 0 -10.167603 -0.90704346 -14.702759 -3.218521c-5.720154 -2.8674011 -10.445557 -7.5196075 -12.727783 -13.590897c-0.117004395 -0.32183838 -0.38031006 -0.46813965 -0.64367676 -0.46813965z" fill-rule="evenodd"/><path fill="#e79e5f" d="m672.29114 93.530685c-0.13171387 0 -0.2633667 0.087776184 -0.23413086 0.27796173c0.30725098 4.2133255 -0.16088867 8.675354 -2.5455322 12.30349c-0.42425537 0.6144409 -0.994812 1.1264801 -1.3751831 1.740921c-1.097229 1.6385193 -1.579956 3.4964752 -2.9259033 5.0764694c-3.2185059 3.7598038 -7.4611206 6.422394 -11.220886 9.597015c-1.6677856 1.4190674 -3.2478027 3.028328 -4.008545 5.105728c-0.17553711 0.48278046 -0.30718994 0.9655533 -0.3949585 1.4629593l0 0c-5.0618896 -11.191643 -16.312012 -21.564018 -8.894836 -33.9114c0.30725098 -0.52666473 -0.19018555 -1.1264801 -0.68756104 -1.1264801c-0.1609497 0 -0.33648682 0.073150635 -0.46813965 0.23407745l0.02923584 -0.029258728l0 0c-4.520508 5.003319 -3.1746216 12.976448 -0.7022095 18.594208c3.2331543 7.387947 9.055725 13.532379 10.942932 21.520134l0 0c0.043884277 0.248703 0.087768555 0.497406 0.14630127 0.746109l0.02923584 0l0 0c0 0 0 0 0 0c0.087768555 0.39500427 0.3803711 0.57055664 0.6876221 0.57055664c0.4534912 0 0.95092773 -0.3803711 0.84851074 -0.98017883c-0.6437378 -3.481842 -0.7022095 -6.597946 1.7409058 -9.421463c1.5653687 -1.7994385 3.569641 -3.2477722 5.3983154 -4.725357c3.6866455 -2.984436 7.2855225 -6.129799 9.348328 -10.504051c0.29260254 -0.77536774 0.67297363 -1.5361023 1.1557617 -2.2529526c0.6144409 -0.7607422 1.1557007 -1.5946274 1.6092529 -2.5016632c1.8286743 -3.5696182 2.2382812 -7.548874 1.8286743 -11.498863c-0.0146484375 -0.17555237 -0.17553711 -0.27796173 -0.30718994 -0.27796173z" fill-rule="evenodd"/><path fill="#301907" d="m644.20667 59.109318c-0.958374 0.11589432 -1.8920898 0.3055687 -2.8266602 0.6181412c-3.6010132 1.2183418 -6.7724 4.3035164 -6.980652 8.028118c-0.014465332 0.13990021 0.0020141602 0.276062 0.047546387 0.39335632c0.12835693 0.15333557 0.26849365 0.27454376 0.49401855 0.3240204c2.071045 0.6552124 4.307251 0.8606415 6.4867554 0.5970688c0.81921387 -0.09907532 1.6466064 -0.26052856 2.43396 -0.49389648l0 0c-0.5354004 1.5383759 -3.0144653 1.2702103 -3.9865112 2.5697327c1.6217651 0.5713959 3.3214111 0.7496033 4.975403 0.54959106c1.9630737 -0.23740387 3.8621216 -1.0043182 5.467102 -2.2575836l0 0c-0.27789307 1.7221451 -2.0877075 2.708519 -3.7185059 3.4890442c0.96691895 0.34358215 1.9954224 0.41875458 3.031067 0.29351044c1.0046997 -0.12149811 1.9856567 -0.439682 2.8901367 -0.8714218c1.8208008 -0.89559937 3.340149 -2.338066 4.7494507 -3.78257c1.0231323 -1.1368484 2.1188354 -2.4513245 2.088623 -3.9980469l5.3460693 -1.183773c-3.9240723 -1.5823975 -7.9970093 -2.8397827 -12.130554 -3.690731c-2.7474976 -0.54270554 -5.6158447 -0.91729736 -8.367249 -0.5845604z" fill-rule="evenodd"/><path fill="#301907" d="m647.64185 76.30926c0.20733643 0.14859772 0.38928223 0.31367493 0.5548096 0.5016861c0.36157227 0.409523 -6.1035156E-5 0.91413116 -0.52056885 0.72634125l-0.010925293 0.015289307c-0.34692383 -0.14440155 -0.6773071 -0.31173706 -1.0171509 -0.4279251l-0.28375244 -0.0991745l-0.13201904 -0.02519226c-0.023498535 -0.005279541 -0.023498535 -0.005279541 -0.03253174 -0.011741638c0 0 0 0 0 0l0 0c-0.16815186 -0.05104065 -0.36169434 -0.08560181 -0.54626465 -0.113708496c-0.076049805 -0.008178711 -0.16107178 -0.022827148 -0.24255371 -0.023361206l-0.123046875 -0.018737793l0 0c-0.009033203 -0.006462097 -0.05255127 -0.0029067993 -0.15753174 -0.008720398l-0.052490234 -0.0029067993l0 0c0 0 0 0 0 0l0 0c0.008972168 0.006462097 -0.0579834 0.004737854 -0.0670166 -0.0017242432c-0.0960083 6.4849854E-4 -0.18847656 0.015403748 -0.289917 0.0236969c-0.32244873 0.011955261 -0.7651367 0.13450623 -1.1104126 0.02596283l0 0c-0.14849854 -0.0022583008 -0.3005371 -0.018623352 -0.4267578 -0.10907745c-0.027038574 -0.019386292 -0.04864502 -0.046409607 -0.08465576 -0.072257996l0 0c0 0 0 0 -0.009033203 -0.006454468c-0.072143555 -0.051689148 -0.11138916 -0.14925385 -0.11810303 -0.2350769c-0.016113281 -0.0346756 -0.012207031 -0.078178406 -0.0138549805 -0.11403656c-0.0028076172 -0.12932587 0.041015625 -0.19049072 0.101257324 -0.27459717c0.050964355 -0.032951355 0.08734131 -0.064720154 0.1237793 -0.09648132l0 0c0.20855713 -0.34814453 0.77423096 -0.4519577 1.1766357 -0.49923706c0.44934082 -0.036727905 0.8894043 -0.02230072 1.3325806 0.063835144c0.6657715 0.11833954 1.3814697 0.3765564 1.9495239 0.78359985z" fill-rule="evenodd"/><path fill="#0b5394" d="m634.3508 160.52095c6.5685425 -0.16659546 28.30542 2.7178497 34.279175 4.119385c5.973694 1.401535 -1.2327881 -2.8615112 1.5631714 4.28981c2.7959595 7.1513214 11.181702 28.540833 15.212585 38.61812c4.030945 10.077286 6.762451 14.823715 8.9729 21.845581c2.2104492 7.021881 5.1434937 13.353363 4.289795 20.28566c-0.85369873 6.932312 -4.5285034 12.170288 -9.411987 21.308136c-4.883545 9.137817 -15.411438 25.330292 -19.8891 33.51883c-4.477722 8.188568 -4.5825806 13.586578 -6.977112 15.612427c-2.3945312 2.0258484 -6.158325 -1.714508 -7.3900146 -3.4573975c-1.2316895 -1.7429199 -0.12286377 -3.6234741 0 -7.0000305c0.122924805 -3.376587 0.18463135 -8.286865 0.7373657 -13.25943c0.5527344 -4.972534 1.506958 -11.226471 2.5791016 -16.575897c1.0722046 -5.3494263 2.651245 -11.56073 3.854004 -15.52066c1.2026978 -3.9599 2.2492065 -5.126007 3.3623657 -8.23877c1.1130981 -3.1127777 3.4754028 -6.8465576 3.3164673 -10.43779c-0.15893555 -3.591217 -1.8931274 -5.514923 -4.2701416 -11.109589c-2.3770142 -5.5946655 -8.196716 -22.746246 -9.992065 -22.458405c-1.7953491 0.2878418 -0.7149658 16.838623 -0.77996826 24.18547c-0.06500244 7.346863 1.8204346 11.378326 0.3899536 19.89569c-1.430481 8.517334 -6.1124268 20.025635 -8.972839 31.208435c-2.8604126 11.18277 -5.5892334 30.036865 -8.189636 35.888245c-2.6004639 5.8513794 -4.9922485 4.6562805 -7.412964 -0.77996826c-2.4207153 -5.4362793 -5.940979 -23.963196 -7.11145 -31.837677c-1.1704712 -7.874481 -0.5767822 -8.8172 0.08850098 -15.40921c0.66522217 -6.592041 3.3831177 -17.648651 3.9030762 -24.142899c0.5199585 -6.4942474 0.13653564 -8.130646 -0.78326416 -14.822617c-0.91973877 -6.691971 -4.010132 -18.748657 -4.7354736 -25.329208c-0.7253418 -6.580551 -0.98913574 -6.607849 0.38342285 -14.154068c1.3726196 -7.546219 5.6880493 -25.082886 7.852112 -31.123245c2.1640015 -6.0403595 -1.4365234 -4.952347 5.132019 -5.118927z" fill-rule="evenodd"/><path fill="#301907" d="m635.557 326.16498c-1.1264648 0.29257202 -2.296814 0.4388733 -3.4525757 0.4388733c-0.95092773 0 -1.9018555 -0.087768555 -2.8381348 -0.2779541c-0.13165283 0 -0.26330566 -0.058532715 -0.36572266 -0.058532715c-0.1609497 0.89242554 -0.30725098 1.7994385 -0.4389038 2.691864c-0.07312012 0.26333618 -0.02923584 0.5412903 0.13165283 0.7753601c0.1609497 0.13165283 0.35113525 0.23406982 0.57055664 0.23406982c0.029296875 0 0.058532715 -0.01461792 0.10241699 -0.01461792c3.7890625 0.29257202 7.5927734 0.4388733 11.396423 0.4388733c2.8381958 0 5.6763306 -0.073150635 8.514465 -0.24868774l-13.620178 -3.979248z" fill-rule="evenodd"/><path fill="#301907" d="m639.02423 317.3872l-11.689026 0.20483398l1.3458862 11.337921c0.5852051 0.058532715 1.1557617 0.13165283 1.7116699 0.2194519c0.5998535 0.029266357 1.1849976 0.102386475 1.7555542 0.13165283l5.3397827 -2.0188904l1.5361328 -9.8749695z" fill-rule="evenodd"/><path fill="#301907" d="m659.531 324.96564c-1.2963257 0.39489746 -2.6201172 0.522522 -3.9280396 0.42404175c-0.84625244 -0.063690186 -1.685852 -0.22161865 -2.517517 -0.49261475c-0.25701904 1.230835 -0.5140381 2.4617004 -0.7402344 3.6948547c-0.088134766 0.37219238 -0.0826416 0.7325134 0.02923584 1.1197815c0.1854248 0.22232056 0.45306396 0.37509155 0.71466064 0.3947754c4.605591 0.93395996 9.277283 1.5887756 13.970276 1.9421082c2.3079834 0.17376709 4.621338 0.27218628 6.9400024 0.29522705l-14.468384 -7.378174z" fill-rule="evenodd"/><path fill="#301907" d="m653.2528 314.8337l-0.70648193 13.437836l0 0l8.603027 -2.0154114l5.7261963 -12.608887l-13.622742 1.1864624z" fill-rule="evenodd"/><path fill="#6fa8dc" d="m359.84818 303.55273l0 0c0 -20.13977 15.5833435 -36.466278 34.806427 -36.466278l0 0c9.231232 0 18.084381 3.8419495 24.611847 10.680725c6.527466 6.838745 10.19455 16.114105 10.19455 25.785553l0 0c0 20.13977 -15.5833435 36.466278 -34.806396 36.466278l0 0c-19.223083 0 -34.806427 -16.326508 -34.806427 -36.466278z" fill-rule="evenodd"/><path fill="#6fa8dc" d="m400.31836 325.8377l0 0c0 -20.139801 15.583374 -36.46631 34.806427 -36.46631l0 0c9.231232 0 18.084381 3.84198 24.611847 10.680725c6.527466 6.8387756 10.19458 16.114105 10.19458 25.785583l0 0c0 20.13977 -15.583374 36.466278 -34.806427 36.466278l0 0c-19.223053 0 -34.806427 -16.326508 -34.806427 -36.466278z" fill-rule="evenodd"/><path fill="#6fa8dc" d="m438.3559 303.55273l0 0c0 -20.13977 15.583374 -36.466278 34.806427 -36.466278l0 0c9.231232 0 18.084381 3.8419495 24.611847 10.680725c6.5274963 6.838745 10.19458 16.114105 10.19458 25.785553l0 0c0 20.13977 -15.583374 36.466278 -34.806427 36.466278l0 0c-19.223053 0 -34.806427 -16.326508 -34.806427 -36.466278z" fill-rule="evenodd"/><path fill="#6fa8dc" d="m461.9181 344.1684l0 0c0 -15.908325 18.642426 -28.804565 41.639038 -28.804565l0 0c22.996643 0 41.639038 12.89624 41.639038 28.804565l0 0c0 15.908325 -18.642395 28.804596 -41.639038 28.804596l0 0c-22.996613 0 -41.639038 -12.896271 -41.639038 -28.804596z" fill-rule="evenodd"/><path fill="#6fa8dc" d="m502.50092 309.5329l0 0c0 -11.134888 9.916687 -20.161499 22.149536 -20.161499l0 0c12.232849 0 22.149536 9.026611 22.149536 20.161499l0 0c0 11.134857 -9.916687 20.161469 -22.149536 20.161469l0 0c-12.232849 0 -22.149536 -9.026611 -22.149536 -20.161469z" fill-rule="evenodd"/><path fill="#6fa8dc" d="m537.4864 336.50668l0 0c0 -20.13977 15.583313 -36.466278 34.806396 -36.466278l0 0c9.231262 0 18.084412 3.84198 24.611877 10.680725c6.527466 6.838745 10.194519 16.114105 10.194519 25.785553l0 0c0 20.139801 -15.583313 36.46631 -34.806396 36.46631l0 0c-19.223083 0 -34.806396 -16.326508 -34.806396 -36.46631z" fill-rule="evenodd"/><path fill="#6fa8dc" d="m412.9747 290.53644l0 0c0 -12.95108 9.916687 -23.449982 22.149536 -23.449982l0 0c5.8744507 0 11.50827 2.4706116 15.662109 6.868347c4.153839 4.397705 6.4874573 10.362305 6.4874573 16.581635l0 0c0 12.95108 -9.916687 23.450012 -22.149567 23.450012l0 0c-12.232849 0 -22.149536 -10.498932 -22.149536 -23.450012z" fill-rule="evenodd"/><path fill="#6fa8dc" d="m559.3665 303.55273l0 0c0 -15.908325 11.815979 -28.804565 26.391663 -28.804565l0 0c6.9995117 0 13.712341 3.0347595 18.661743 8.4366455c4.949402 5.4019165 7.7299805 12.728485 7.7299805 20.36792l0 0c0 15.908325 -11.815979 28.804596 -26.391724 28.804596l0 0c-14.575684 0 -26.391663 -12.896271 -26.391663 -28.804596z" fill-rule="evenodd"/><path fill="#6fa8dc" d="m592.02374 325.8377l0 0c0 -20.139801 15.583374 -36.46631 34.806396 -36.46631l0 0c9.231262 0 18.084412 3.84198 24.611877 10.680725c6.527466 6.8387756 10.19458 16.114105 10.19458 25.785583l0 0c0 20.13977 -15.583374 36.466278 -34.806458 36.466278l0 0c-19.223022 0 -34.806396 -16.326508 -34.806396 -36.466278z" fill-rule="evenodd"/><path fill="#6fa8dc" d="m636.6168 359.9079l0 0c0 -20.13977 15.583374 -36.466278 34.806458 -36.466278l0 0c9.231201 0 18.08435 3.84198 24.611816 10.680725c6.527466 6.838745 10.19458 16.114105 10.19458 25.785553l0 0c0 20.13977 -15.583374 36.46631 -34.806396 36.46631l0 0c-19.223083 0 -34.806458 -16.326538 -34.806458 -36.46631z" fill-rule="evenodd"/><path fill="#6fa8dc" d="m686.62585 350.45273l0 0c0 -20.13977 15.583374 -36.466278 34.806396 -36.466278l0 0c9.231262 0 18.084412 3.8419495 24.611877 10.680725c6.527466 6.838745 10.19458 16.114075 10.19458 25.785553l0 0c0 20.13977 -15.583374 36.466278 -34.806458 36.466278l0 0c-19.223022 0 -34.806396 -16.326508 -34.806396 -36.466278z" fill-rule="evenodd"/><path fill="#6fa8dc" d="m749.0392 359.9079l0 0c0 -20.13977 15.583374 -36.466278 34.806458 -36.466278l0 0c9.231201 0 18.08435 3.84198 24.611816 10.680725c6.527527 6.838745 10.19458 16.114105 10.19458 25.785553l0 0c0 20.13977 -15.583374 36.46631 -34.806396 36.46631l0 0c-19.223083 0 -34.806458 -16.326538 -34.806458 -36.46631z" fill-rule="evenodd"/><path fill="#6fa8dc" d="m794.8351 333.376l0 0c0 -20.13977 15.583374 -36.466278 34.806396 -36.466278l0 0c9.231262 0 18.084412 3.8419495 24.611877 10.680725c6.527466 6.838745 10.19458 16.114105 10.19458 25.785553l0 0c0 20.13977 -15.583374 36.466278 -34.806458 36.466278l0 0c-19.223022 0 -34.806396 -16.326508 -34.806396 -36.466278z" fill-rule="evenodd"/><path fill="#6fa8dc" d="m658.44464 315.41876l0 0c0 -10.222046 9.916687 -18.508636 22.149536 -18.508636l0 0c12.232849 0 22.149536 8.286591 22.149536 18.508636l0 0c0 10.222015 -9.916687 18.508606 -22.149536 18.508606l0 0c-12.232849 0 -22.149536 -8.286591 -22.149536 -18.508606z" fill-rule="evenodd"/><path fill="#6fa8dc" d="m742.0535 333.376l0 0c0 -15.908325 11.815979 -28.804565 26.391724 -28.804565l0 0c6.9995117 0 13.712341 3.0347595 18.661743 8.4366455c4.949402 5.4019165 7.7299194 12.728485 7.7299194 20.36792l0 0c0 15.908325 -11.815979 28.804596 -26.391663 28.804596l0 0c-14.575745 0 -26.391724 -12.896271 -26.391724 -28.804596z" fill-rule="evenodd"/><path fill="#6fa8dc" d="m772.39594 344.1684l0 0c0 -20.13977 15.583374 -36.466278 34.806396 -36.466278l0 0c9.231262 0 18.084412 3.84198 24.611877 10.680725c6.527466 6.838745 10.19458 16.114105 10.19458 25.785553l0 0c0 20.13977 -15.583374 36.46631 -34.806458 36.46631l0 0c-19.223022 0 -34.806396 -16.326538 -34.806396 -36.46631z" fill-rule="evenodd"/></g></svg>