<svg version="1.1" viewBox="0.0 0.0 1053.1128608923884 429.6377952755906" fill="none" stroke="none" stroke-linecap="square" stroke-miterlimit="10" xmlns:xlink="http://www.w3.org/1999/xlink" xmlns="http://www.w3.org/2000/svg"><clipPath id="p.0"><path d="m0 0l1053.1129 0l0 429.6378l-1053.1129 0l0 -429.6378z" clip-rule="nonzero"/></clipPath><g clip-path="url(#p.0)"><path fill="#000000" fill-opacity="0.0" d="m0 0l1053.1129 0l0 429.6378l-1053.1129 0z" fill-rule="evenodd"/><path fill="#000000" fill-opacity="0.0" d="m494.2362 481.88977l0 482.07874" fill-rule="evenodd"/><path stroke="#000000" stroke-width="1.0" stroke-linejoin="round" stroke-linecap="butt" d="m494.2362 481.88977l0 482.07874" fill-rule="evenodd"/><path fill="#301907" d="m668.1487 335.4013c1.3466797 0.34979248 2.7458496 0.5246887 4.1275635 0.5246887c1.1368408 0 2.2736206 -0.10491943 3.3930054 -0.3323059c0.15740967 0 0.31481934 -0.06994629 0.43719482 -0.06994629c0.19238281 1.066864 0.36730957 2.1512146 0.52471924 3.2180786c0.08746338 0.31481934 0.034973145 0.64712524 -0.15740967 0.92697144c-0.19238281 0.15740967 -0.41973877 0.27981567 -0.6821289 0.27981567c-0.034973145 0 -0.06994629 -0.017486572 -0.12237549 -0.017486572c-4.529846 0.34979248 -9.077148 0.5246887 -13.624451 0.5246887c-3.3930054 0 -6.7860107 -0.08743286 -10.179016 -0.29730225l16.282898 -4.757202z" fill-rule="evenodd"/><path fill="#301907" d="m664.0036 324.9075l13.974243 0.24487305l-1.6090088 13.554474c-0.69958496 0.06997681 -1.3817139 0.15740967 -2.0463257 0.26235962c-0.717041 0.034973145 -1.416626 0.12243652 -2.098755 0.15740967l-6.383728 -2.4135742l-1.8364258 -11.805542z" fill-rule="evenodd"/><path fill="#301907" d="m704.98425 334.3702c-1.5045166 0.60076904 -3.0687256 0.8859253 -4.6367188 0.90011597c-1.0145874 0.009185791 -2.0307007 -0.09454346 -3.048706 -0.33374023c-0.18231201 1.492157 -0.364563 2.984314 -0.50994873 4.4761353c-0.06756592 0.4522705 -0.024719238 0.88098145 0.14758301 1.3310852c0.2432251 0.24621582 0.5774536 0.40127563 0.89105225 0.3984375c5.5806274 0.64959717 11.211914 0.95999146 16.838135 0.90911865c2.7670288 -0.025054932 5.532776 -0.14041138 8.297302 -0.34606934l-17.978699 -7.335083z" fill-rule="evenodd"/><path fill="#301907" d="m695.9056 324.12466l0.5109863 16.079712l0 0l10.045837 -3.2659302l5.552429 -15.596832l-16.109253 2.7830505z" fill-rule="evenodd"/><path fill="#6fa8dc" d="m-13.687675 340.1463l0 0c0 -24.384003 20.480843 -44.151123 45.745243 -44.151123l0 0c12.132393 0 23.767876 4.6516113 32.346775 12.931549c8.578896 8.279938 13.398468 19.509949 13.398468 31.219574l0 0c0 24.383972 -20.480843 44.151123 -45.745243 44.151123l0 0c-25.2644 0 -45.745243 -19.76715 -45.745243 -44.151123z" fill-rule="evenodd"/><path fill="#6fa8dc" d="m37.931503 353.05334l0 0c0 -24.383972 16.335716 -44.151123 36.486847 -44.151123l0 0c9.67691 0 18.957481 4.651642 25.800095 12.93158c6.8426056 8.279938 10.686745 19.509949 10.686745 31.219543l0 0c0 24.384003 -16.335716 44.151123 -36.48684 44.151123l0 0c-20.15113 0 -36.486847 -19.76712 -36.486847 -44.151123z" fill-rule="evenodd"/><path fill="#6fa8dc" d="m77.80546 326.0721l0 0c0 -24.384003 16.335716 -44.151123 36.486847 -44.151123l0 0c9.67691 0 18.957481 4.6516113 25.800087 12.931549c6.842621 8.279938 10.686752 19.509949 10.686752 31.219574l0 0c0 24.384003 -16.335709 44.151123 -36.48684 44.151123l0 0c-20.15113 0 -36.486847 -19.76712 -36.486847 -44.151123z" fill-rule="evenodd"/><path fill="#6fa8dc" d="m102.5052 375.24704l0 0c0 -19.260834 19.542473 -34.874786 43.649338 -34.874786l0 0c24.106873 0 43.649353 15.613953 43.649353 34.874786l0 0c0 19.260834 -19.54248 34.874817 -43.649353 34.874817l0 0c-24.106865 0 -43.649338 -15.613983 -43.649338 -34.874817z" fill-rule="evenodd"/><path fill="#6fa8dc" d="m145.04733 333.3125l0 0c0 -13.481415 10.395447 -24.410278 23.218887 -24.410278l0 0c6.1580353 0 12.063858 2.5718079 16.418243 7.149597c4.3544006 4.57782 6.800659 10.786682 6.800659 17.260681l0 0c0 13.481445 -10.395447 24.410278 -23.218903 24.410278l0 0c-12.823441 0 -23.218887 -10.928833 -23.218887 -24.410278z" fill-rule="evenodd"/><path fill="#6fa8dc" d="m181.72185 365.97073l0 0c0 -24.384003 16.335709 -44.151154 36.486847 -44.151154l0 0c9.67691 0 18.957474 4.651642 25.800095 12.93158c6.8426056 8.279938 10.686737 19.509949 10.686737 31.219574l0 0c0 24.383972 -16.335709 44.151123 -36.48683 44.151123l0 0c-20.151138 0 -36.486847 -19.76715 -36.486847 -44.151123z" fill-rule="evenodd"/><path fill="#6fa8dc" d="m51.19889 310.31277l0 0c0 -15.680359 10.395458 -28.391785 23.218903 -28.391785l0 0c6.1580353 0 12.06385 2.991272 16.418243 8.315765c4.3543854 5.3244934 6.800659 12.546051 6.800659 20.07602l0 0c0 15.680359 -10.395462 28.391815 -23.218903 28.391815l0 0c-12.823444 0 -23.218903 -12.711456 -23.218903 -28.391815z" fill-rule="evenodd"/><path fill="#6fa8dc" d="m204.65834 326.0721l0 0c0 -19.260834 12.386429 -34.874817 27.665848 -34.874817l0 0c7.337448 0 14.374359 3.6743164 19.562714 10.2146c5.1883545 6.540283 8.103149 15.410828 8.103149 24.660217l0 0c0 19.260834 -12.386429 34.874786 -27.665863 34.874786l0 0c-15.279419 0 -27.665848 -15.613953 -27.665848 -34.874786z" fill-rule="evenodd"/><path fill="#6fa8dc" d="m238.89223 353.05334l0 0c0 -24.383972 16.335709 -44.151123 36.48683 -44.151123l0 0c9.67691 0 18.957489 4.651642 25.80011 12.93158c6.8425903 8.279938 10.686737 19.509949 10.686737 31.219543l0 0c0 24.384003 -16.335724 44.151123 -36.486847 44.151123l0 0c-20.151123 0 -36.48683 -19.76712 -36.48683 -44.151123z" fill-rule="evenodd"/><path fill="#6fa8dc" d="m285.6382 394.30347l0 0c0 -24.384003 16.335724 -44.151123 36.486847 -44.151123l0 0c9.67691 0 18.957489 4.6516113 25.80011 12.931549c6.842621 8.279938 10.686737 19.509949 10.686737 31.219574l0 0c0 24.383972 -16.335724 44.151123 -36.486847 44.151123l0 0c-20.151123 0 -36.486847 -19.76715 -36.486847 -44.151123z" fill-rule="evenodd"/><path fill="#6fa8dc" d="m338.06165 382.8557l0 0c0 -24.384003 16.335724 -44.151123 36.486847 -44.151123l0 0c9.67691 0 18.957489 4.6516113 25.80008 12.931549c6.842621 8.279968 10.686768 19.50998 10.686768 31.219574l0 0c0 24.384003 -16.335724 44.151123 -36.486847 44.151123l0 0c-20.151123 0 -36.486847 -19.76712 -36.486847 -44.151123z" fill-rule="evenodd"/><path fill="#6fa8dc" d="m403.48825 394.30347l0 0c0 -24.384003 16.335693 -44.151123 36.486847 -44.151123l0 0c9.67691 0 18.957458 4.6516113 25.80008 12.931549c6.842621 8.279938 10.686737 19.509949 10.686737 31.219574l0 0c0 24.383972 -16.335693 44.151123 -36.486816 44.151123l0 0c-20.151154 0 -36.486847 -19.76715 -36.486847 -44.151123z" fill-rule="evenodd"/><path fill="#6fa8dc" d="m451.4951 362.1803l0 0c0 -24.384003 16.335693 -44.151154 36.486847 -44.151154l0 0c9.67691 0 18.957458 4.651642 25.80011 12.93158c6.8425903 8.279938 10.686707 19.509949 10.686707 31.219574l0 0c0 24.383972 -16.335693 44.151123 -36.486816 44.151123l0 0c-20.151154 0 -36.486847 -19.76715 -36.486847 -44.151123z" fill-rule="evenodd"/><path fill="#6fa8dc" d="m308.51984 340.43875l0 0c0 -12.37619 10.395477 -22.409088 23.218903 -22.409088l0 0c6.1580505 0 12.063873 2.360962 16.418243 6.5634766c4.3544006 4.2025146 6.800659 9.902344 6.800659 15.845612l0 0c0 12.37619 -10.395447 22.409088 -23.218903 22.409088l0 0c-12.823425 0 -23.218903 -10.032898 -23.218903 -22.409088z" fill-rule="evenodd"/><path fill="#6fa8dc" d="m396.16534 362.1803l0 0c0 -19.260834 12.386414 -34.874817 27.665833 -34.874817l0 0c7.337433 0 14.374359 3.674286 19.562714 10.2146c5.1883545 6.540283 8.103149 15.410828 8.103149 24.660217l0 0c0 19.260803 -12.386444 34.874786 -27.665863 34.874786l0 0c-15.279419 0 -27.665833 -15.613983 -27.665833 -34.874786z" fill-rule="evenodd"/><path fill="#6fa8dc" d="m427.9726 375.24704l0 0c0 -24.384003 16.335724 -44.151123 36.486847 -44.151123l0 0c9.67691 0 18.957489 4.6516113 25.80011 12.93158c6.8425903 8.279938 10.686737 19.509949 10.686737 31.219543l0 0c0 24.384003 -16.335724 44.151123 -36.486847 44.151123l0 0c-20.151123 0 -36.486847 -19.76712 -36.486847 -44.151123z" fill-rule="evenodd"/><path fill="#6fa8dc" d="m0.117853284 349.78607l524.69293 0l0 88.66144l-524.69293 0z" fill-rule="evenodd"/><path fill="#6fa8dc" d="m450.11542 350.85947l605.07086 0l0 88.66141l-605.07086 0z" fill-rule="evenodd"/><path fill="#6fa8dc" d="m1054.2395 378.65598l0 0c-16.527832 13.111572 -36.61444 11.979065 -48.351868 -2.7261047c-11.737488 -14.70517 -11.987732 -39.051514 -0.602478 -58.605927c11.385254 -19.554413 31.362183 -29.088928 48.08789 -22.951233z" fill-rule="evenodd"/><path fill="#134f5c" d="m626.2876 160.31613l-7.5874634 6.4019623l-4.425354 10.719452l-9.800171 11.760437l-9.493469 3.5093231l-12.186523 -4.5763397l-13.053955 -12.017136l10.387451 4.6765747l13.8255005 -0.0044555664l12.333191 -8.155319l12.853577 -10.428192z" fill-rule="evenodd"/><path fill="#134f5c" d="m587.5 168.41281l-11.559509 -3.863861l-16.574219 -9.581329l-15.041931 -17.147446l-9.106567 -2.4990082l9.240051 6.2344666l15.642273 17.114838l11.172791 9.87471l10.961121 3.8963776z" fill-rule="evenodd"/><path fill="#134f5c" d="m636.77936 134.29634l-2.7063599 8.378937l-15.226318 11.308655l-19.58722 7.0512543l-15.079712 -1.4255219l-17.17456 -9.546204l15.602112 -0.8474579l15.9313965 -8.353287l12.9869995 -6.692749l11.975037 -1.3995056z" fill-rule="evenodd"/><path fill="#134f5c" d="m639.4055 123.672104l-5.119446 -8.705429l-25.987488 -3.8266983l-22.0401 5.688919l-17.94629 2.4703598l-7.907776 -2.564125l9.453613 12.212715l10.494263 7.6644287l10.854248 0.9059906l13.612122 -5.977646l9.440002 -5.004509l13.2005005 -0.71702576l7.3341064 3.3443375z" fill-rule="evenodd"/><path fill="#134f5c" d="m508.4692 93.35718l11.281403 12.859955l9.813843 5.4567795l8.773071 10.002541l2.666504 7.340576l-14.612793 -5.1935883l-7.440979 -6.334717z" fill-rule="evenodd"/><path fill="#134f5c" d="m528.3233 93.77432l13.547607 8.996681l5.146057 9.4505005l6.4804077 13.123253l8.148071 9.287445l9.840515 6.204376l-10.747681 2.079361l-13.000549 -10.521957l-9.934082 -25.659355z" fill-rule="evenodd"/><path fill="#134f5c" d="m531.6033 84.61266l-10.080627 -12.925179l-26.521423 -18.771042l17.108093 24.523148l11.692932 7.5968018z" fill-rule="evenodd"/><path fill="#134f5c" d="m573.93835 108.51459l-14.121277 -8.216469l-12.61377 -16.532814l-14.655151 -23.158295l-10.467468 -6.9168396l8.201538 10.785149l7.107422 13.835724l4.027405 11.7584l13.294189 18.740463l8.532898 3.2792282z" fill-rule="evenodd"/><path fill="#134f5c" d="m573.268 22.466242l6.4802856 13.120737l16.734375 14.061855l25.187134 15.100807l12.722534 19.520569l5.9067383 13.903458l-9.213379 -5.489395l-11.588257 -4.611351l-12.266724 -6.8191147l-12.506897 -13.542435l-13.347595 -20.235653z" fill-rule="evenodd"/><path fill="#134f5c" d="m580.5225 57.25464l-13.427673 -22.475925l-39.41516 -26.30514l14.708435 24.650969l19.89447 18.381954z" fill-rule="evenodd"/><path fill="#134f5c" d="m602.12494 89.7656l-10.841248 -17.375618l-27.455261 -11.234905l-14.746338 -8.9315605l-25.454102 -22.571722l20.535156 36.314163l21.693604 18.284233l20.507935 1.879715z" fill-rule="evenodd"/><path fill="#134f5c" d="m524.81366 46.05631l-26.759644 -25.49447l10.892639 18.870913z" fill-rule="evenodd"/><path fill="#134f5c" d="m562.5234 91.916664l12.760315 3.7986374l28.82727 -0.8167801l17.561401 3.537857l12.867065 6.7865067l8.119385 8.54248l-17.065735 -6.558449l-8.481567 -1.786438l-19.200378 1.042923l-16.905579 -2.0753937l-14.014526 -5.228607z" fill-rule="evenodd"/><path fill="#134f5c" d="m624.42194 175.38829l-6.026062 33.265137l-5.8129883 5.556549l-14.4279785 0.03465271l9.333252 -7.9923706l8.307739 -19.913834z" fill-rule="evenodd"/><path fill="#134f5c" d="m629.756 191.63052l3.0751953 23.484634l-5.0811768 14.190094l-17.893555 -0.42022705l13.03717 -10.445755z" fill-rule="evenodd"/><path fill="#134f5c" d="m717.67395 157.49042l7.767273 6.184265l4.731262 10.590836l10.132874 11.478409l9.588867 3.2379608l12.047791 -4.9225616l12.700623 -12.386353l-10.246887 4.9714966l-13.817627 0.38955688l-12.560669 -7.801941l-13.146118 -10.059479z" fill-rule="evenodd"/><path fill="#134f5c" d="m756.672 164.47986l11.44165 -4.192383l16.28894 -10.051422l14.539856 -17.572113l9.029358 -2.7579498l-9.055298 6.496338l-15.140808 17.55661l-10.882141 10.190826l-10.842651 4.2078247z" fill-rule="evenodd"/><path fill="#134f5c" d="m706.43964 131.7757l2.9458618 8.29985l15.542847 10.872101l19.778809 6.4914093l15.029907 -1.8549194l16.889954 -10.033417l-15.617432 -0.40263367l-16.162537 -7.897339l-13.172058 -6.3210754l-12.008362 -1.0579071z" fill-rule="evenodd"/><path fill="#134f5c" d="m703.5093 121.22877l4.866028 -8.849289l25.862244 -4.5663986l22.191101 5.059494l18.006897 1.9583588l7.829468 -2.788887l-9.096741 12.479271l-10.267639 7.9617157l-10.82196 1.2151031l-13.776184 -5.588333l-9.578552 -4.734329l-13.213501 -0.34066772l-7.2336426 3.5525665z" fill-rule="evenodd"/><path fill="#134f5c" d="m833.49744 87.1895l-10.904907 13.178452l-9.651062 5.7351837l-8.480225 10.250221l-2.4537354 7.414856l14.454895 -5.6088104l7.2543945 -6.5452957z" fill-rule="evenodd"/><path fill="#134f5c" d="m813.6668 88.17234l-13.280884 9.380661l-4.871155 9.594955l-6.09906 13.304878l-7.8760376 9.517487l-9.656311 6.4833527l10.8012085 1.7725983l12.690308 -10.890007l9.190002 -25.936462z" fill-rule="evenodd"/><path fill="#134f5c" d="m810.1252 79.106285l9.702881 -13.209442l25.965942 -19.522472l-16.392578 25.004978l-11.46759 7.928261z" fill-rule="evenodd"/><path fill="#134f5c" d="m768.5023 104.20911l13.876709 -8.6169815l12.130737 -16.888428l13.980286 -23.570541l10.262451 -7.2135315l-7.8864746 11.016365l-6.7052 14.035042l-3.6867676 11.870438l-12.747253 19.11496l-8.433594 3.5216293z" fill-rule="evenodd"/><path fill="#134f5c" d="m766.6964 18.161703l-6.098999 13.302357l-16.320068 14.535475l-24.738037 15.815071l-12.153503 19.878586l-5.503235 14.06855l9.05011 -5.750679l11.448853 -4.9405212l12.0633545 -7.167099l12.109985 -13.895699l12.757629 -20.61132z" fill-rule="evenodd"/><path fill="#134f5c" d="m760.4471 53.148735l12.773193 -22.853348l38.635437 -27.422264l-13.990662 25.064384l-19.354004 18.944626z" fill-rule="evenodd"/><path fill="#134f5c" d="m739.79266 86.267746l10.334961 -17.68052l27.116089 -12.014706l14.480835 -9.349724l24.789856 -23.291851l-19.478394 36.89091l-21.154907 18.898197l-20.441956 2.4637146z" fill-rule="evenodd"/><path fill="#134f5c" d="m815.80145 40.365425l26.01056 -26.251123l-10.343323 19.176935z" fill-rule="evenodd"/><path fill="#134f5c" d="m779.43317 87.28974l-12.643616 4.1614l-28.834106 0.004928589l-17.449402 4.0374985l-12.664368 7.1516037l-7.8688965 8.771873l16.867188 -7.043251l8.425232 -2.0277252l19.2193 0.49549866l16.83606 -2.5566788l13.855896 -5.6267776z" fill-rule="evenodd"/><path fill="#134f5c" d="m719.9722 172.5059l6.9796753 33.085663l5.9694824 5.3896027l14.420654 -0.37654114l-9.5578 -7.724518l-8.875916 -19.67244z" fill-rule="evenodd"/><path fill="#134f5c" d="m715.1086 188.89636l-2.397705 23.566803l5.4865723 14.041977l17.871094 -0.9300537l-13.3302 -10.071777z" fill-rule="evenodd"/><path fill="#301907" d="m670.76776 66.40269c-2.088501 0 -4.0127563 1.1627808 -5.7023315 4.4347916c-4.177063 8.139481 -7.2980957 16.819786 -11.639404 24.82405c-2.5812988 4.7593 -5.303406 9.4374695 -6.805298 14.791679c-1.501831 5.273079 -1.5487671 11.465576 1.1264038 16.143745c2.6986694 4.651123 7.48584 6.949646 12.226074 7.4364014c0.79785156 0.08111572 1.5957031 0.13520813 2.3935547 0.13520813c3.9189453 0 7.8847656 -0.9734955 11.733276 -1.9199524l29.121948 -7.0578156c3.2852783 -0.83828735 6.899109 -1.7847366 9.011108 -4.8133774c3.6607666 -5.0567474 1.2906494 -12.70948 -1.7600098 -18.225937c-7.579651 -13.791138 -18.280396 -24.82405 -30.905334 -32.07116c-3.1914673 -1.8388214 -6.1482544 -3.6776352 -8.799988 -3.6776352z" fill-rule="evenodd"/><path fill="#e7b790" d="m668.5312 69.0687c1.9613037 -0.12666321 4.175354 -0.030967712 6.833008 0.75997925c2.6577148 0.79093933 7.1517334 3.1316833 9.113037 3.985672c1.9613037 0.8539963 1.5159912 0.6321945 2.6548462 1.1382828c1.138855 0.50608826 3.8933716 0.7594147 4.1782227 1.898262c0.28485107 1.1388474 -2.0575562 3.3844452 -2.4691162 4.934807c-0.41149902 1.5503616 0.47460938 4.620117 0 4.3673553c-0.47454834 -0.25276947 -2.2781982 -5.409378 -2.847351 -5.8839417c-0.56915283 -0.4745636 -0.75720215 1.6128464 -0.56744385 3.0365448c0.18969727 1.4236984 2.2123413 3.607376 1.7056885 5.505638c-0.50665283 1.898262 -3.5752563 4.5238495 -4.7456055 5.883934c-1.1704102 1.3600845 -0.44195557 1.5452957 -2.2766113 2.2765656c-1.8346558 0.73126984 -8.098572 1.6325455 -8.731323 2.1110535c-0.63275146 0.478508 5.725769 0.8900223 4.9348145 0.75997925c-0.7909546 -0.13004303 -7.529419 -0.90353394 -9.680481 -1.5402222c-2.151001 -0.63669586 -2.3395996 -1.4253845 -3.225647 -2.2799454c-0.8861084 -0.8545532 -1.616272 -1.7721634 -2.0908203 -2.8473892c-0.47454834 -1.0752335 -0.63049316 -2.1487732 -0.7565918 -3.6039963c-0.12609863 -1.4552231 -0.15820312 -3.418785 0 -5.1273346c0.15820312 -1.7085495 0.50665283 -3.4474945 0.9490967 -5.123955c0.44250488 -1.6764603 0.82025146 -3.163208 1.7057495 -4.934807c0.8855591 -1.7715988 3.5437622 -5.0620346 3.6073608 -5.694786c0.06365967 -0.63275146 -3.510498 1.8352127 -3.225647 1.898262c0.28485107 0.06304932 2.9734497 -1.3932953 4.9348145 -1.5199585z" fill-rule="evenodd"/><path fill="#000000" fill-opacity="0.0" d="m650.0304 169.73972c6.616333 0.5899811 33.081665 2.9498596 39.697998 3.5398254" fill-rule="evenodd"/><path stroke="#8b5a32" stroke-width="1.0" stroke-linejoin="round" stroke-linecap="butt" d="m650.0304 169.73972c6.616333 0.5899811 33.081665 2.9498596 39.697998 3.5398254" fill-rule="evenodd"/><path fill="#e7b790" d="m687.15265 151.78055l-34.118347 4.973358l-6.0775757 24.342102c0 0 11.791931 12.456223 24.967041 12.456223c0.60076904 0 1.2155151 -0.02281189 1.8302612 -0.06843567c13.929565 -1.2547455 17.939331 -6.6159363 17.939331 -6.6159363l-4.5407104 -35.08731z" fill-rule="evenodd"/><path fill="#e7b790" d="m668.51794 105.9273l-5.458374 14.460136l10.931824 7.0868225l12.545166 -2.1411285l-2.246643 -19.34552l-15.771973 -0.060310364z" fill-rule="evenodd"/><path fill="#e7b790" d="m683.35504 87.80312l-13.4800415 4.6139755l-0.3015747 2.3522263l-0.4975586 4.297325l-0.22619629 1.8847961l-0.19604492 1.8546371l-0.030151367 0.13570404l-0.3015747 2.4125366l-0.3015747 2.5482407l-0.52770996 4.508423l16.797302 -6.423378l-0.2111206 -3.5735626l-0.7237549 -14.610924z" fill-rule="evenodd"/><path fill="#ba68b3" d="m687.969 152.74557c-0.5578613 0 -0.9499512 0.48249817 -1.1760864 1.0253143l0.96502686 -0.030151367c0.07537842 0.13571167 0.15075684 0.18093872 0.22613525 0.18093872c0.36187744 0 0.6936035 -1.115799 0.04522705 -1.1761017c-0.030151367 0 -0.04522705 0 -0.060302734 0z" fill-rule="evenodd"/><path fill="#e7b790" d="m650.5747 113.76804c0 0 0 0.030151367 0 0.030151367c0.030151367 0 0.030151367 -0.030151367 0 -0.030151367z" fill-rule="evenodd"/><path fill="#e7b790" d="m650.5747 117.552704c-0.030151367 0 -0.030151367 0.030158997 0 0.030158997c0.030151367 0 0.030151367 -0.030158997 0 -0.030158997z" fill-rule="evenodd"/><path fill="#e7b790" d="m626.2986 191.69293l-2.7442627 0.5579071c0.22613525 1.1911926 -0.6936035 2.2466736 -1.4927979 3.1815338c-1.2966919 1.4927521 -2.2164917 3.2418365 -2.7140503 5.1266327c-0.46746826 1.9300232 -0.16589355 3.950531 0.7991333 5.669464c0.16583252 0.2563324 0.42218018 0.55789185 0.7237549 0.55789185c0.19604492 -0.030151367 0.36187744 -0.13569641 0.4975586 -0.2563324c0.46746826 -0.37695312 0.79919434 -0.9046936 0.9951782 -1.4626007c0.45239258 0.42219543 0.3920288 1.3269043 0.9951782 1.5832367c0.0904541 0.030151367 0.19604492 0.04522705 0.28649902 0.04522705c0.33172607 0 0.64837646 -0.15078735 0.7991333 -0.43727112c0.22619629 -0.3920288 0.33172607 -0.79914856 0.36187744 -1.221344c0.33172607 0.3920288 0.527771 0.9499359 0.9951782 1.1911926c0.07537842 0.030151367 0.16589355 0.04522705 0.24127197 0.04522705c0.43725586 0 0.88964844 -0.43727112 0.58807373 -0.7840729l0 0c0.46740723 0.24125671 1.0253296 0.4523468 1.5228882 0.4523468c0.36187744 0 0.67852783 -0.105545044 0.9348755 -0.37695312c0.19598389 -0.22618103 0.28649902 -0.5277405 0.36187744 -0.8293152c0.4975586 -2.216507 0.060302734 -4.538574 -0.66345215 -6.6947784c-0.73883057 -2.1411285 -1.7641602 -4.2068634 -2.487915 -6.347992z" fill-rule="evenodd"/><path fill="#e7b790" d="m625.86127 192.22069l1.2666016 7.4185333c0.24127197 -0.12062073 0.4824829 -0.18093872 0.7237549 -0.18093872c0.9047241 0 1.8244629 0.72377014 2.4276123 1.507843c0.75390625 0.9499359 1.5229492 2.1411285 2.774414 2.3069916c0.060302734 -1.7189331 0.8293457 -3.4680328 0.13574219 -5.126648c-0.7237549 -1.6586151 -2.6538086 -2.3220673 -4.206909 -3.2116852c-1.2213135 -0.6936035 -2.29187 -1.6284637 -3.1212158 -2.714096z" fill-rule="evenodd"/><path fill="#e7b790" d="m655.9728 113.04428c0 0 -26.492676 12.288849 -38.223633 28.648865c-11.715881 16.344925 4.116394 54.29712 4.116394 54.29712l6.2575073 -1.387207c0 0 -9.273193 -38.751343 14.203796 -49.38159c23.446838 -10.615143 40.364746 -31.649445 13.645935 -32.177185z" fill-rule="evenodd"/><path fill="#e7b790" d="m688.3912 110.480965c-3.3925781 0 -6.6344604 3.3323135 -9.1073 11.369072c0 0 4.538574 28.814713 17.023438 44.601746c7.7804565 9.831085 26.522827 11.68573 39.565613 11.68573c7.946289 0 13.781616 -0.6936188 13.781616 -0.6936188l0.42218018 -6.393219c0 0 -39.836975 -1.7490845 -43.576416 -27.246567c-2.5935059 -17.460724 -10.720703 -33.323143 -18.10913 -33.323143z" fill-rule="evenodd"/><path fill="#ba68b3" d="m668.51794 103.3687c-19.375671 1.6435394 -14.203796 20.461319 -13.645935 28.377457c0.527771 7.9161224 -7.9161377 25.135605 -7.9161377 25.135605l7.659851 2.442688c0 0 11.987244 -1.387207 16.616333 -1.6586151c0.572937 -0.030166626 1.100708 -0.04524231 1.6133423 -0.04524231c3.6489868 0 5.9710693 0.85946655 9.31842 2.8045807c2.1713257 1.2364197 5.36792 1.5078278 7.7352295 1.5078278c1.7943115 0 3.0910645 -0.15078735 3.0910645 -0.15078735c0 0 0.07537842 -17.490875 -0.19604492 -21.833435c-0.27142334 -4.3576508 3.2720337 -7.901062 3.2720337 -10.916733c0 -3.0156631 -11.776184 -25.603027 -11.776184 -25.603027l-0.76904297 10.856407l-15.00293 -10.916725z" fill-rule="evenodd"/><path fill="#ba68b3" d="m661.8965 105.002106c-2.9854736 1.4324417 -9.303345 3.2870789 -13.902222 5.940872c-4.644104 2.6688614 -8.413696 4.7949142 -8.413696 4.7949142c0 0 3.2719727 20.793037 15.756836 24.969734c1.6586304 0.5579071 3.1212158 0.7991638 4.4179688 0.7991638c8.57959 0 10.117554 -10.404068 10.117554 -10.404068l-7.9764404 -26.100616z" fill-rule="evenodd"/><path fill="#ba68b3" d="m684.2899 105.98761l4.7647095 33.02159l16.887756 -8.911316c0 0 -0.93481445 -5.3377304 -6.363037 -14.445053c-5.4282227 -9.107323 -15.289429 -9.665222 -15.289429 -9.665222z" fill-rule="evenodd"/><path fill="#301907" d="m673.59314 82.63129c-2.0205078 0 -2.0205078 3.1061401 0 3.1061401c1.9903564 0 1.9903564 -3.1061401 0 -3.1061401z" fill-rule="evenodd"/><path fill="#301907" d="m665.04926 81.015076c-1.7189331 0 -1.7189331 2.6839447 0 2.6839447c1.7189331 0 1.7189331 -2.6839447 0 -2.6839447z" fill-rule="evenodd"/><path fill="#301907" d="m668.4533 83.01104c-0.1116333 0 -0.23718262 0.06276703 -0.26507568 0.18131256c-0.09069824 0.3486786 -0.1395874 0.7043381 -0.18841553 1.0530167c-0.055786133 0.32078552 -0.16741943 0.61367035 -0.32092285 0.885643c-0.15344238 0.2789383 -0.383667 0.49512482 -0.6418457 0.6485443c-0.2930298 0.11854553 -0.5650635 0.27196503 -0.8302002 0.4741974c-0.23022461 0.18131256 -0.3348999 0.47420502 -0.28607178 0.7670975c0.055847168 0.2859192 0.30700684 0.47420502 0.5512085 0.6555176c0.5022583 0.38354492 1.1162109 0.7810364 1.7580566 0.8089371c0.09069824 0 0.15350342 -0.11855316 0.07678223 -0.18132019l0 -0.013946533c-0.42559814 -0.39749146 -0.9767456 -0.6415634 -1.4232178 -1.0111694c-0.12561035 -0.07670593 -0.23028564 -0.18131256 -0.3348999 -0.29288483c-0.07672119 -0.11855316 -0.020935059 -0.21618652 0.09069824 -0.32078552c0.23022461 -0.1952591 0.5651245 -0.27197266 0.80926514 -0.42539215c0.4465332 -0.30683136 0.7813721 -0.7391968 0.9697876 -1.2273483c0.23022461 -0.5857773 0.32092285 -1.2134018 0.24414062 -1.8201065c-0.013916016 -0.1255188 -0.1116333 -0.18131256 -0.20928955 -0.18131256z" fill-rule="evenodd"/><path fill="#301907" d="m673.1235 78.1787c-0.33032227 0 -0.64630127 0.033607483 -0.9622803 0.10081482c-0.6893921 0.14562988 -0.6893921 0.8849716 0 1.0642014l0 0.022407532c0.47399902 0.10081482 0.947937 0.16802979 1.3931885 0.29125214l0.3734131 0.10082245l0.15802002 0.067214966c0.028686523 0.011199951 0.028686523 0.011199951 0.043029785 0.011199951c0 0 0 0 0 0l0 0c0.2154541 0.067214966 0.44525146 0.16802979 0.66070557 0.26885223c0.08618164 0.044807434 0.18670654 0.08961487 0.27288818 0.14562225l0.14361572 0.067214966l0 0c0.014404297 0 0.057495117 0.033607483 0.17236328 0.10082245l0.057434082 0.033599854l0 0c0 0 0 0 0 0l0 0c-0.014343262 0 0.057495117 0.044815063 0.07183838 0.044815063c0.1005249 0.06720734 0.18670654 0.14562225 0.28723145 0.22403717c0.3303833 0.23524475 0.7037964 0.6609268 1.1490479 0.7953491l0 0c0.15795898 0.10082245 0.33032227 0.19043732 0.5313721 0.19043732c0.04309082 0 0.08618164 -0.011199951 0.14367676 -0.011199951l0 0c0 0 0 0 0.014343262 0c0.114868164 0 0.22979736 -0.067214966 0.30163574 -0.14562988c0.043029785 -0.022399902 0.071777344 -0.067214966 0.1005249 -0.10081482c0.1005249 -0.12322998 0.1005249 -0.21284485 0.1005249 -0.3360672c-0.028747559 -0.067214966 -0.04309082 -0.12322235 -0.057434082 -0.17922974l0 0c0.04309082 -0.48169708 -0.47399902 -0.9745865 -0.8617554 -1.2994461c-0.44525146 -0.34726715 -0.9192505 -0.6385193 -1.4506226 -0.8625641c-0.789978 -0.34726715 -1.737915 -0.59371185 -2.6427612 -0.59371185z" fill-rule="evenodd"/><path fill="#301907" d="m669.5823 60.369415c-4.0148315 0.29824066 -7.2821655 0.88871 -8.44043 1.5795441c-0.5385132 0.28191757 -0.97558594 0.70750046 -1.2996216 1.2305222c1.2202148 -0.060401917 2.430481 0.15209198 3.5394287 0.6291466c1.2648926 0.5410652 1.944519 1.5489616 3.1108398 2.1880684c0.68011475 0.40307617 1.2164917 0.49931335 1.7578125 0.45909882c0.5413208 -0.04021454 1.0875854 -0.21687317 1.7737427 -0.3434372c0.20825195 -0.045715332 0.43267822 -0.07750702 0.6732788 -0.09537506c2.4960938 -0.1854248 6.6487427 0.76103973 6.07959 3.4795227l0.13757324 0.020019531c0 0 0.39556885 6.1394806 2.4950562 8.145653c2.0844727 2.007286 5.050415 0.8192978 3.6947632 5.773445c-1.2192993 4.550911 -0.18029785 6.121788 0.79711914 6.049179c0.09020996 -0.0066986084 0.17932129 -0.028442383 0.26843262 -0.050178528c0.39593506 -0.1654892 0.57232666 -0.84386444 0.7838135 -1.6609192c0.023254395 -0.50068665 0.15405273 -0.9791107 0.39343262 -1.4202499c0.26934814 -0.85160065 0.7387085 -1.6575699 1.6213989 -1.7836227l0.13531494 -0.010047913c0.36364746 -0.19332886 0.74902344 -0.29756165 1.1099243 -0.3243637c1.4134521 -0.10500336 2.6712036 0.95066833 3.104248 2.5060806c0.76745605 2.800621 -0.4326172 5.777649 -2.9240112 7.247902c-1.0563354 0.6379013 -2.2219238 1.026886 -3.4398804 1.117363c-0.16540527 0.012283325 -0.34698486 0.010650635 -0.52856445 0.009017944l-0.030090332 0.0022354126c-0.3788452 2.0239487 -0.69976807 4.0133667 -0.54559326 6.08844c2.1690674 -0.72055817 5.3082275 -1.8155746 6.807312 -2.8038788c2.4384155 -1.5721588 10.522583 -7.9484406 10.125488 -18.381836c-0.440979 -10.415001 -3.2730713 -13.530975 -9.99823 -17.355656c-4.3233643 -2.4306412 -13.984497 -2.831833 -21.202148 -2.2956734z" fill-rule="evenodd"/><path fill="#ffffff" d="m664.95856 89.615204c0 0 0 3.5434113 2.3823853 4.8250732c0.37695312 0.1960144 0.7237549 0.28648376 1.055481 0.28648376c1.8847656 0 3.2267456 -2.5331573 3.2267456 -2.5331573l-6.664612 -2.5783997z" fill-rule="evenodd"/><path fill="#301907" d="m680.9576 65.86413c-0.07537842 0 -0.15081787 0.04523468 -0.18096924 0.12062836c-0.6030884 1.7189331 -1.6887817 3.2418442 -3.1212158 4.372719c-0.6936035 0.5578995 -1.4475098 1.0253296 -2.246643 1.3872147c-0.3920288 0.16585541 -0.7991333 0.33171844 -1.1912231 0.4674225c-0.43725586 0.13571167 -0.93481445 0.22618103 -1.3570557 0.39204407c-0.2713623 0.07538605 -0.19598389 0.4674225 0.06036377 0.49758148c0.9649658 0 1.9299927 -0.19602203 2.7894897 -0.61820984c0.8895874 -0.40711975 1.7189331 -0.9348602 2.4728394 -1.5681534c1.4324341 -1.251503 2.487915 -2.940277 2.9553223 -4.7949142c0.045288086 -0.16585541 -0.060302734 -0.2563324 -0.1809082 -0.2563324z" fill-rule="evenodd"/><path fill="#e79e5f" d="m678.70856 97.59045c-0.11010742 0 -0.2753296 0.060317993 -0.5093384 0.19602966c-1.3215942 0.8142624 -3.7444458 1.010292 -5.7406006 1.010292c-1.555603 0 -2.8634033 -0.12062836 -3.1525269 -0.15078735l-0.20648193 1.8547211l0 0.13570404l-0.2753296 2.4126434c0.05505371 0 0.11010742 0 0.16516113 0c6.676758 0 10.737854 -5.458603 9.719116 -5.458603z" fill-rule="evenodd"/><path fill="#ba68b3" d="m692.9706 86.3077l-0.015075684 0.030158997l0 0c0 0 0.015075684 -0.015075684 0.015075684 -0.030158997zm0.13568115 0.30156708l-0.04522705 0.030158997l0 0c0.015075684 -0.015075684 0.030151367 -0.015075684 0.04522705 -0.030158997zm-0.6030884 -0.060310364l0.060302734 0.12062836l0 0c-0.030151367 -0.04523468 -0.04522705 -0.07539368 -0.060302734 -0.12062836zm0.85943604 0.39203644l-0.07537842 0.015075684l0 0c0.030151367 0 0.04522705 -0.015075684 0.07537842 -0.015075684zm0.060302734 0.15077972c0.04522705 0.015083313 0.07543945 0.015083313 0.10559082 0.015083313l-0.10559082 -0.015083313zm0.07543945 -11.293678c-1.2666016 0 -2.5181274 0.2261734 -3.6791382 0.67852783c-2.246704 0.90470123 -4.206848 2.2919083 -5.4282227 4.4481125c-1.1911621 2.110962 -1.5530396 4.598892 -0.9951782 6.9511185c0 0.015075684 0.015075684 0.04523468 0.015075684 0.060310364l0 0c0.27142334 2.1109695 1.1459961 4.1314697 2.6085815 5.7297745c1.914917 2.1562042 4.644104 3.3323135 7.418518 3.3323135c1.34198 0 2.7141113 -0.2714157 3.9957886 -0.84439087c3.9505005 -1.7189331 6.3027344 -5.8353195 5.8654785 -10.102493c-0.19604492 -2.0204926 -0.55792236 -4.538582 -1.7490845 -6.257515c-1.7792358 -2.608551 -4.9155273 -3.995758 -8.051819 -3.995758z" fill-rule="evenodd"/><path fill="#e79e5f" d="m694.121 82.37492c-0.66345215 0 -1.2967529 0.16586304 -1.8847656 0.49758148l-0.7388916 0.60313416c-0.45233154 0.42219543 -0.7840576 1.0253296 -0.94989014 1.6435394l0 -0.030151367l0 0c-0.24127197 0.9650116 -0.10559082 1.9903412 0.36187744 2.8498077c0.52770996 0.82930756 1.3269043 1.4324417 2.2164917 1.7189255l0.9951782 0.13571167c0.66345215 0 1.2816772 -0.19602203 1.8546143 -0.5277481l0.7539673 -0.5578995c0.46740723 -0.4674225 0.7991333 -1.025322 0.9649658 -1.6284561c0.13574219 -0.4975891 0.16589355 -0.9951706 0.06036377 -1.4927597c-0.22619629 -1.4475174 -1.2515259 -2.63871 -2.638733 -3.0759811l-0.9951782 -0.13570404z" fill-rule="evenodd"/><path fill="#e79e5f" d="m674.242 58.139145c-1.2666626 0 -2.548462 0.067920685 -3.6793823 0.31243515c-1.4476318 0.2988472 -2.8499756 1.2904854 -2.3222046 2.784729c0.16583252 0.52978134 0.64837646 0.774292 1.1309204 0.774292c0.58813477 0 1.1762085 -0.36676788 1.1912842 -1.0459709l0 -0.027168274c0.015075684 -0.16300964 0.3920288 -0.23093033 0.99523926 -0.23093033c2.5333252 0 9.062683 1.154644 9.876953 1.2769012c1.9452515 0.3260193 3.9055786 0.7063713 5.8206787 1.1818123c0.527771 0.1494255 1.8547363 0.27168274 2.2920532 0.6656189c0 0 0.12060547 1.4942474 0.16583252 1.8202667c0.39208984 3.5454407 1.3119507 7.009369 1.6889038 10.55481l1.1159058 11.125343c0.105529785 0.9916382 1.0404663 1.4942474 1.9150391 1.4942474c0.8746338 0 1.6889038 -0.48902893 1.5682983 -1.4942474c-0.49761963 -4.713669 -1.1912842 -9.386581 -1.4928589 -14.10025c-0.16589355 -2.3636246 -0.030212402 -4.6865005 -0.22619629 -7.050125c-0.16589355 -2.024025 0 -4.61858 -2.2619019 -5.8139763c-1.9452515 -1.0188065 -4.7349243 -1.1003113 -6.8762207 -1.4263268c-2.5182495 -0.42110443 -5.1118774 -0.6656189 -7.6602783 -0.7471237c-1.010315 0 -2.1262207 -0.054336548 -3.2420654 -0.054336548z" fill-rule="evenodd"/><path fill="#e7b790" d="m755.4446 168.83417c-0.04522705 0 -0.105529785 0 -0.16583252 0c-2.246643 0.04522705 -4.4330444 0.99516296 -6.363037 2.1863556c-1.914978 1.1911926 -3.6640625 2.6839447 -5.6242676 3.8751373l1.2213745 2.548233c0.28649902 -0.13569641 0.57299805 -0.18093872 0.85943604 -0.18093872c0.8594971 0 1.7792358 0.48251343 2.5935059 0.8745575c1.7189331 0.934845 3.63385 1.4324341 5.594055 1.4625854c0.04522705 0 0.07537842 0 0.12060547 0c1.9451294 0 3.8148193 -0.75390625 5.217102 -2.050644c0.25634766 -0.19602966 0.39208984 -0.5277405 0.36193848 -0.8293152c-0.07543945 -0.16586304 -0.2111206 -0.33172607 -0.33172607 -0.43727112c-0.49761963 -0.36187744 -1.0706177 -0.55789185 -1.6586304 -0.61820984c0.3015747 -0.5729828 1.1911621 -0.6936035 1.2967529 -1.326889c0.060302734 -0.43728638 -0.24127197 -0.85946655 -0.6333008 -0.9951782c-0.25634766 -0.060317993 -0.49761963 -0.09046936 -0.75390625 -0.09046936c-0.16589355 0 -0.34680176 0.015075684 -0.5126953 0.060317993c0.3015747 -0.43727112 0.82928467 -0.7689972 0.9348755 -1.2665863c0.07537842 -0.37695312 -0.33172607 -0.79914856 -0.64837646 -0.79914856c-0.0904541 0 -0.18096924 0.04522705 -0.24127197 0.13569641c0.16589355 -0.85946655 0.25634766 -1.9450989 -0.4975586 -2.38237c-0.25634766 -0.105545044 -0.49761963 -0.16586304 -0.76904297 -0.16586304z" fill-rule="evenodd"/><path fill="#713f6d" d="m754.6907 165.66771c-1.6887817 0.3166504 -5.2020264 -0.04522705 -6.664612 1.055481c-1.4173584 1.0554962 -1.6134033 3.1061401 -2.156189 4.8250732c-0.3920288 1.3269043 -1.055481 2.563324 -1.9451294 3.6489563l6.951111 -2.9101105c-0.82928467 -0.9650116 -0.22613525 -2.4276123 0.55792236 -3.3775482c0.76898193 -0.9951782 3.3775635 -1.9903412 3.256897 -3.2418518z" fill-rule="evenodd"/><path fill="#301907" d="m751.5996 162.83298c-0.060302734 0 -0.105529785 0 -0.16583252 0.015090942c-4.0410156 0.060302734 -8.036743 0.8594513 -11.776184 2.322052l3.4077148 20.521637c4.598877 -0.9499359 9.273132 -1.4927521 13.9776 -1.5832214c-1.5379639 -6.83049 -3.0910645 -13.645905 -4.644104 -20.461319c0 -0.4523468 -0.37695312 -0.8142395 -0.79919434 -0.8142395z" fill-rule="evenodd"/><path fill="#e79e5f" d="m751.2679 164.34082l-9.63501 1.9450989c0 0 2.5482178 16.390167 2.5482178 16.601273l11.0373535 -1.1007233l-3.9505615 -17.445648z" fill-rule="evenodd"/><path fill="#e7b790" d="m755.3089 168.804c0 0 -7.177307 2.623642 -6.619385 4.3727264c0.105529785 0.36187744 0.45233154 0.5126648 0.9348755 0.5126648c0.24121094 0 0.54278564 -0.04522705 0.85943604 -0.12062073l0 0c-0.45233154 0.28648376 -0.73883057 0.55789185 -0.73883057 0.7689972c0 0.21109009 0.3015747 0.28648376 0.76898193 0.28648376c0.6333008 0 1.6134033 -0.15078735 2.5482788 -0.34680176l0 0c-0.96502686 0.30155945 -1.7943726 0.67852783 -1.7943726 1.0856323c0 0.37696838 0.6936035 0.48251343 1.5229492 0.48251343c1.3269043 0 3.0458374 -0.28648376 3.0458374 -0.28648376l0 0c0 0 -2.880005 0.6936035 -2.6085815 1.4324341c0.15081787 0.36187744 1.1912231 0.46743774 2.2316284 0.46743774c1.0705566 0 2.1411133 -0.1055603 2.1411133 -0.1055603l-0.66345215 -2.6839447c-0.33172607 -0.79914856 -0.6333008 -1.6284485 -0.88964844 -2.4577637c0.030151367 -0.2563324 -0.73883057 -3.4077148 -0.73883057 -3.4077148z" fill-rule="evenodd"/><path fill="#e79e5f" d="m670.5686 138.05927c-0.42218018 0 -0.81427 0.33171082 -0.66345215 0.8443756l-0.030151367 0c2.9553223 10.630234 13.088013 17.159164 23.61267 18.576523c1.8999023 0.27142334 3.8148193 0.39204407 5.7147217 0.39204407c4.4179077 0 8.820801 -0.66345215 13.088013 -1.7490845c6.604309 -1.6586304 13.072876 -4.237015 19.97876 -4.237015c0.13574219 0 0.27142334 0 0.39208984 0c7.0566406 0.13569641 14.535522 3.8449707 15.771912 11.429382c0.07537842 0.48251343 0.5126953 0.7086792 0.9499512 0.7086792c0.5428467 0 1.100708 -0.36187744 1.0253296 -0.9800873c-0.527771 -4.9306183 -3.7092896 -8.971619 -8.112183 -11.188141c-2.9100952 -1.4927521 -6.136841 -2.0657349 -9.393799 -2.0657349c-2.819641 0 -5.654358 0.42219543 -8.353394 1.0404053c-6.9209595 1.5530701 -13.540344 4.1616364 -20.657349 4.8250732c-1.4475098 0.13571167 -2.925171 0.21110535 -4.3877563 0.21110535c-5.232239 0 -10.479492 -0.9348602 -15.153748 -3.3172455c-5.89563 -2.9553528 -10.76593 -7.7502594 -13.118164 -14.007782c-0.120666504 -0.33172607 -0.3920288 -0.48249817 -0.66345215 -0.48249817z" fill-rule="evenodd"/><path fill="#e79e5f" d="m693.30676 96.39778c-0.13574219 0 -0.27142334 0.09047699 -0.24127197 0.2864914c0.3166504 4.3425674 -0.16589355 8.94146 -2.6236572 12.680893c-0.43725586 0.6332855 -1.0253296 1.1610336 -1.4173584 1.7943192c-1.1308594 1.6887741 -1.628418 3.6037292 -3.015625 5.2321854c-3.3172607 3.8751373 -7.6900024 6.6194 -11.5651245 9.891396c-1.7189331 1.4626007 -3.347412 3.1212158 -4.1314697 5.2623444c-0.1809082 0.4975891 -0.3166504 0.9951782 -0.4071045 1.507843l0 0c-5.217102 -11.534943 -16.812378 -22.225487 -9.167664 -34.951614c0.3166504 -0.5428238 -0.19598389 -1.1610336 -0.7086792 -1.1610336c-0.16583252 0 -0.34680176 0.07539368 -0.4824829 0.24125671l0.030151367 -0.030158997l0 0c-4.6591797 5.1567917 -3.2719727 13.374496 -0.7237549 19.164581c3.3323364 7.614563 9.333496 13.947464 11.2786255 22.180252l0 0c0.04522705 0.2563324 0.0904541 0.5126648 0.15075684 0.76898193l0.030151367 0l0 0c0 0 0 0 0 0c0.0904541 0.40711975 0.3920288 0.5880585 0.7086792 0.5880585c0.46740723 0 0.98010254 -0.3920288 0.87457275 -1.0102386c-0.66345215 -3.5886536 -0.7237549 -6.8003387 1.7943115 -9.7104645c1.6134033 -1.8546371 3.6791382 -3.3473892 5.563904 -4.8703003c3.7997437 -3.0759888 7.509033 -6.317833 9.635071 -10.826256c0.3015747 -0.7991562 0.6936035 -1.5832291 1.1911621 -2.3220673c0.6333008 -0.7840729 1.1912231 -1.6435394 1.6586304 -2.5783997c1.8848267 -3.6791153 2.3070068 -7.780426 1.8848267 -11.851578c-0.015075684 -0.18093872 -0.18096924 -0.2864914 -0.3166504 -0.2864914z" fill-rule="evenodd"/><path fill="#301907" d="m664.36084 60.920563c-0.98779297 0.119449615 -1.9501953 0.3149414 -2.913391 0.6371002c-3.7114868 1.2557144 -6.9801025 4.435524 -7.194763 8.274376c-0.014892578 0.14419556 0.0020751953 0.28453064 0.04901123 0.40542603c0.13226318 0.15803528 0.27667236 0.28295898 0.5091553 0.33395386c2.1345825 0.6753082 4.439392 0.8870392 6.68573 0.61538696c0.84436035 -0.10211182 1.6971436 -0.26852417 2.508606 -0.50904846l0 0c-0.55181885 1.5855637 -3.1069336 1.3091736 -4.1087646 2.6485596c1.6715088 0.5889206 3.4233398 0.77259827 5.1279907 0.566452c2.0233154 -0.24468231 3.9805908 -1.0351257 5.6348267 -2.3268356l0 0c-0.286438 1.774971 -2.1517334 2.791603 -3.8325195 3.5960693c0.996521 0.35411835 2.0565796 0.43160248 3.1239624 0.30251312c1.0355835 -0.12522888 2.0466309 -0.45317078 2.9788208 -0.8981476c1.876648 -0.9230728 3.442566 -2.40979 4.8951416 -3.8986053c1.0545044 -1.1717148 2.183838 -2.5265121 2.152649 -4.1206894l5.510071 -1.2200775c-4.0444336 -1.6309357 -8.242249 -2.9268913 -12.5026245 -3.8039398c-2.831787 -0.5593529 -5.788086 -0.9454346 -8.623901 -0.6024933z" fill-rule="evenodd"/><path fill="#301907" d="m667.90137 78.648094c0.21374512 0.1531601 0.40124512 0.32330322 0.5718384 0.5170822c0.37261963 0.422081 -6.1035156E-5 0.9421692 -0.53656006 0.7486191l-0.011291504 0.0157547c-0.3574829 -0.1488266 -0.6980591 -0.3212967 -1.0482788 -0.44104767l-0.29241943 -0.10221863l-0.1361084 -0.025970459c-0.024291992 -0.005432129 -0.024291992 -0.005432129 -0.033569336 -0.01209259c0 0 0 0 0 0l0 0c-0.17327881 -0.052604675 -0.37280273 -0.08823395 -0.5630493 -0.11719513c-0.078308105 -0.00843811 -0.16595459 -0.023529053 -0.24993896 -0.024085999l-0.12683105 -0.019309998l0 0c-0.009277344 -0.006652832 -0.054138184 -0.0029907227 -0.16235352 -0.008987427l-0.054138184 -0.0029907227l0 0c0 0 0 0 0 0l0 0c0.009338379 0.006652832 -0.059753418 0.0048828125 -0.06903076 -0.0017776489c-0.09893799 6.637573E-4 -0.19421387 0.01587677 -0.29882812 0.024421692c-0.33233643 0.012321472 -0.7885742 0.13863373 -1.1444702 0.026756287l0 0c-0.15301514 -0.0023269653 -0.30975342 -0.019195557 -0.43981934 -0.11241913c-0.027893066 -0.019981384 -0.050109863 -0.047836304 -0.08728027 -0.07447052l0 0c0 0 0 0 -0.009338379 -0.0066604614c-0.07434082 -0.053276062 -0.11480713 -0.15383148 -0.1217041 -0.24228668c-0.016601562 -0.035736084 -0.012573242 -0.080574036 -0.014221191 -0.11753082c-0.0029296875 -0.13330078 0.042236328 -0.19634247 0.10437012 -0.28302002c0.0524292 -0.033966064 0.08996582 -0.0667038 0.12750244 -0.09944916l0 0c0.21496582 -0.35881805 0.79803467 -0.4658203 1.2127075 -0.51454926c0.4631958 -0.037849426 0.916687 -0.022987366 1.3735352 0.06580353c0.6861572 0.1219635 1.4237671 0.38809967 2.0092773 0.8076248z" fill-rule="evenodd"/><path fill="#0b5394" d="m654.2027 165.44293c6.7700195 -0.17170715 29.173645 2.8012238 35.330627 4.245743c6.1569824 1.4445343 -1.2705688 -2.9492798 1.611145 4.421402c2.8817139 7.370682 11.524658 29.416306 15.67926 39.802704c4.154541 10.386398 6.9698486 15.278412 9.248108 22.515686c2.2782593 7.237259 5.3012695 13.762955 4.4213867 20.907898c-0.8798828 7.144928 -4.6674194 12.54361 -9.700745 21.961731c-5.033325 9.418152 -15.884155 26.1073 -20.499207 34.547028c-4.6150513 8.439728 -4.7231445 14.003357 -7.191101 16.091309c-2.4679565 2.0879822 -6.347229 -1.7670898 -7.616699 -3.563446c-1.2694092 -1.7963867 -0.12664795 -3.7346191 0 -7.214752c0.12670898 -3.4801636 0.19030762 -8.541046 0.76000977 -13.666138c0.56970215 -5.1250916 1.5531616 -11.570831 2.6582642 -17.08435c1.1050415 -5.5135193 2.732544 -11.915375 3.972107 -15.996735c1.239624 -4.0813904 2.3182373 -5.2832947 3.4655151 -8.491516c1.1473389 -3.208252 3.5820923 -7.0565796 3.418274 -10.75795c-0.16381836 -3.7013855 -1.9512329 -5.6840973 -4.401184 -11.450378c-2.4499512 -5.766281 -8.44812 -23.443985 -10.298523 -23.147308c-1.8504639 0.29667664 -0.7369385 17.355133 -0.80389404 24.927353c-0.0670166 7.57222 1.8762817 11.727341 0.4019165 20.50595c-1.4743652 8.7786255 -6.2999268 20.639954 -9.248108 32.16574c-2.9481812 11.525818 -5.760681 30.958221 -8.440857 36.989105c-2.6801758 6.0308533 -5.1453247 4.7991333 -7.64032 -0.80389404c-2.494995 -5.6030273 -6.12323 -24.698242 -7.32959 -32.81427c-1.2064209 -8.116028 -0.5944824 -9.087677 0.09118652 -15.881897c0.68566895 -6.79422 3.4868774 -18.189972 4.022827 -24.883453c0.5359497 -6.6934357 0.14074707 -8.380035 -0.807251 -15.277283c-0.94799805 -6.8972473 -4.1331787 -19.323761 -4.8807983 -26.10617c-0.7475586 -6.7823944 -1.0194702 -6.810547 0.39520264 -14.588242c1.4146729 -7.7776947 5.862549 -25.85228 8.092957 -32.077927c2.2304077 -6.225647 -1.4805298 -5.104248 5.2894897 -5.27594z" fill-rule="evenodd"/><path fill="#301907" d="m655.44586 336.16797c-1.1610107 0.3015747 -2.3673096 0.45236206 -3.5584717 0.45236206c-0.98010254 0 -1.9602051 -0.09048462 -2.925232 -0.28649902c-0.13568115 0 -0.27142334 -0.060302734 -0.37695312 -0.060302734c-0.16583252 0.9197693 -0.3166504 1.8546448 -0.45233154 2.774414c-0.07537842 0.27139282 -0.030151367 0.55789185 0.13568115 0.7991333c0.16589355 0.13571167 0.36187744 0.24127197 0.58807373 0.24127197c0.030151367 0 0.060302734 -0.015075684 0.105529785 -0.015075684c3.9053345 0.3015747 7.8256836 0.45233154 11.746033 0.45233154c2.925232 0 5.850403 -0.07537842 8.775635 -0.25631714l-14.037964 -4.1013184z" fill-rule="evenodd"/><path fill="#301907" d="m659.0194 327.12097l-12.047607 0.21109009l1.387207 11.68573c0.6031494 0.060302734 1.1912231 0.13568115 1.7642212 0.22616577c0.61816406 0.030151367 1.2213135 0.1055603 1.8093872 0.13571167l5.503601 -2.0808105l1.5831909 -10.177887z" fill-rule="evenodd"/><path fill="#301907" d="m680.1552 334.93185c-1.3360596 0.40701294 -2.7005005 0.5385437 -4.048462 0.43707275c-0.8722534 -0.06567383 -1.7376709 -0.22845459 -2.5947876 -0.50775146c-0.26489258 1.2686157 -0.52978516 2.537201 -0.76293945 3.808197c-0.09088135 0.38360596 -0.08520508 0.75497437 0.030151367 1.1541443c0.19110107 0.22912598 0.46691895 0.38656616 0.73657227 0.40686035c4.746826 0.96261597 9.561829 1.6375122 14.398804 2.001709c2.3787842 0.17907715 4.7631226 0.28051758 7.152893 0.30426025l-14.912231 -7.604492z" fill-rule="evenodd"/><path fill="#301907" d="m673.68445 324.48914l-0.7281494 13.850037l0 0l8.866943 -2.07724l5.9017944 -12.995636l-14.040588 1.2228394z" fill-rule="evenodd"/><path fill="#6fa8dc" d="m428.40274 325.01044l0 0c0 -23.794525 18.485474 -43.08377 41.288483 -43.08377l0 0c10.950409 0 21.452301 4.539154 29.195374 12.618927c7.743103 8.079773 12.09314 19.03833 12.09314 30.464844l0 0c0 23.794525 -18.485504 43.0838 -41.288513 43.0838l0 0c-22.803009 0 -41.288483 -19.289276 -41.288483 -43.0838z" fill-rule="evenodd"/><path fill="#6fa8dc" d="m476.40976 351.33942l0 0c0 -23.794525 18.485504 -43.08377 41.288483 -43.08377l0 0c10.950439 0 21.45227 4.539154 29.195374 12.618927c7.743103 8.079803 12.09314 19.03833 12.09314 30.464844l0 0c0 23.794525 -18.485474 43.0838 -41.288513 43.0838l0 0c-22.802979 0 -41.288483 -19.289276 -41.288483 -43.0838z" fill-rule="evenodd"/><path fill="#6fa8dc" d="m521.5311 325.01044l0 0c0 -23.794525 18.485474 -43.08377 41.288452 -43.08377l0 0c10.950439 0 21.452332 4.539154 29.195374 12.618927c7.743103 8.079773 12.09314 19.03833 12.09314 30.464844l0 0c0 23.794525 -18.485474 43.0838 -41.288513 43.0838l0 0c-22.802979 0 -41.288452 -19.289276 -41.288452 -43.0838z" fill-rule="evenodd"/><path fill="#6fa8dc" d="m549.4813 372.99658l0 0c0 -18.795197 22.114258 -34.031708 49.393555 -34.031708l0 0c27.279358 0 49.393616 15.236511 49.393616 34.031708l0 0c0 18.795197 -22.114258 34.03174 -49.393616 34.03174l0 0c-27.279297 0 -49.393555 -15.236542 -49.393555 -34.03174z" fill-rule="evenodd"/><path fill="#6fa8dc" d="m596.4881 332.3799l0 0c0 -13.324036 15.752319 -24.125305 35.1839 -24.125305l0 0c19.431519 0 35.1839 10.80127 35.1839 24.125305l0 0c0 13.324036 -15.75238 24.125275 -35.1839 24.125275l0 0c-19.43158 0 -35.1839 -10.801239 -35.1839 -24.125275z" fill-rule="evenodd"/><path fill="#6fa8dc" d="m639.12286 363.94452l0 0c0 -23.794525 18.485474 -43.0838 41.288452 -43.0838l0 0c10.950378 0 21.45227 4.5391846 29.195374 12.6189575c7.743103 8.079773 12.09314 19.0383 12.09314 30.464844l0 0c0 23.794525 -18.485474 43.0838 -41.288513 43.0838l0 0c-22.802979 0 -41.288452 -19.289276 -41.288452 -43.0838z" fill-rule="evenodd"/><path fill="#6fa8dc" d="m491.42316 309.63208l0 0c0 -15.30127 11.763489 -27.705414 26.274475 -27.705414l0 0c6.968445 0 13.651428 2.9189453 18.578857 8.114716c4.927429 5.1957703 7.6956177 12.242767 7.6956177 19.590698l0 0c0 15.3013 -11.763489 27.705444 -26.274475 27.705444l0 0c-14.510986 0 -26.274475 -12.404144 -26.274475 -27.705444z" fill-rule="evenodd"/><path fill="#6fa8dc" d="m665.07776 325.01044l0 0c0 -18.795197 14.0164795 -34.031708 31.30664 -34.031708l0 0c8.30304 0 16.266052 3.5854797 22.137146 9.967651c5.871155 6.382202 9.169556 15.0383 9.169556 24.064056l0 0c0 18.795197 -14.0164795 34.031708 -31.306702 34.031708l0 0c-17.290161 0 -31.30664 -15.236511 -31.30664 -34.031708z" fill-rule="evenodd"/><path fill="#6fa8dc" d="m703.81683 351.33942l0 0c0 -23.794525 18.485474 -43.08377 41.288452 -43.08377l0 0c10.950378 0 21.45227 4.539154 29.195374 12.618927c7.743103 8.079803 12.09314 19.03833 12.09314 30.464844l0 0c0 23.794525 -18.485474 43.0838 -41.288513 43.0838l0 0c-22.802979 0 -41.288452 -19.289276 -41.288452 -43.0838z" fill-rule="evenodd"/><path fill="#6fa8dc" d="m756.71454 391.59232l0 0c0 -23.794525 18.485535 -43.08377 41.288513 -43.08377l0 0c10.950378 0 21.45227 4.539154 29.195374 12.618927c7.743103 8.079803 12.09314 19.03833 12.09314 30.464844l0 0c0 23.794525 -18.485535 43.0838 -41.288513 43.0838l0 0c-22.802979 0 -41.288513 -19.289276 -41.288513 -43.0838z" fill-rule="evenodd"/><path fill="#6fa8dc" d="m816.03687 380.42133l0 0c0 -23.794525 18.485474 -43.0838 41.288513 -43.0838l0 0c10.950378 0 21.45227 4.5391846 29.195312 12.6189575c7.743103 8.079773 12.09314 19.0383 12.09314 30.464844l0 0c0 23.794525 -18.485474 43.08377 -41.288452 43.08377l0 0c-22.80304 0 -41.288513 -19.289246 -41.288513 -43.08377z" fill-rule="evenodd"/><path fill="#6fa8dc" d="m890.07355 391.59232l0 0c0 -23.794525 18.485474 -43.08377 41.288513 -43.08377l0 0c10.950378 0 21.45227 4.539154 29.195374 12.618927c7.743103 8.079803 12.093079 19.03833 12.093079 30.464844l0 0c0 23.794525 -18.485474 43.0838 -41.288452 43.0838l0 0c-22.80304 0 -41.288513 -19.289276 -41.288513 -43.0838z" fill-rule="evenodd"/><path fill="#6fa8dc" d="m944.3981 360.24573l0 0c0 -23.794525 18.485474 -43.0838 41.288513 -43.0838l0 0c10.950378 0 21.45227 4.539154 29.195374 12.6189575c7.743042 8.079773 12.09314 19.0383 12.09314 30.464844l0 0c0 23.794495 -18.485535 43.08377 -41.288513 43.08377l0 0c-22.80304 0 -41.288513 -19.289276 -41.288513 -43.08377z" fill-rule="evenodd"/><path fill="#6fa8dc" d="m782.60736 339.0298l0 0c0 -12.077026 11.763489 -21.86737 26.274536 -21.86737l0 0c14.510986 0 26.274475 9.790344 26.274475 21.86737l0 0c0 12.076996 -11.763489 21.86734 -26.274475 21.86734l0 0c-14.511047 0 -26.274536 -9.790344 -26.274536 -21.86734z" fill-rule="evenodd"/><path fill="#6fa8dc" d="m881.787 360.24573l0 0c0 -18.795227 14.016418 -34.03174 31.30664 -34.03174l0 0c8.30304 0 16.265991 3.5854797 22.137146 9.967651c5.871155 6.382202 9.169495 15.0383 9.169495 24.064087l0 0c0 18.795197 -14.0164795 34.031708 -31.30664 34.031708l0 0c-17.290222 0 -31.30664 -15.236511 -31.30664 -34.031708z" fill-rule="evenodd"/><path fill="#6fa8dc" d="m917.78 372.99658l0 0c0 -23.794525 18.485535 -43.08377 41.288513 -43.08377l0 0c10.950378 0 21.45227 4.539154 29.195374 12.618927c7.743103 8.079803 12.09314 19.03833 12.09314 30.464844l0 0c0 23.794525 -18.485535 43.0838 -41.288513 43.0838l0 0c-22.802979 0 -41.288513 -19.289276 -41.288513 -43.0838z" fill-rule="evenodd"/></g></svg>