<svg version="1.1" viewBox="0.0 0.0 875.6929133858267 391.26771653543307" fill="none" stroke="none" stroke-linecap="square" stroke-miterlimit="10" xmlns:xlink="http://www.w3.org/1999/xlink" xmlns="http://www.w3.org/2000/svg"><clipPath id="p.0"><path d="m0 0l875.69293 0l0 391.26773l-875.69293 0l0 -391.26773z" clip-rule="nonzero"/></clipPath><g clip-path="url(#p.0)"><path fill="#000000" fill-opacity="0.0" d="m0 0l875.69293 0l0 391.26773l-875.69293 0z" fill-rule="evenodd"/><path fill="#5b0f00" d="m683.86975 121.81209c0.9445801 -9.583382 8.772644 -17.476036 14.576599 -21.14032c5.803955 -3.6642761 13.363159 -3.2410736 20.247131 -0.8453598c6.883972 2.3957138 17.412354 6.623047 21.056763 15.21965c3.6444092 8.596603 2.2944946 29.17231 0.8096924 36.359962c-1.4848633 7.187668 -1.755249 5.6383667 -9.71875 6.766037c-7.963562 1.1276703 -30.233765 6.0599976 -38.062378 0c-7.8285522 -6.0599976 -9.853699 -26.776596 -8.909058 -36.35997z" fill-rule="evenodd"/><path fill="#134f5c" d="m758.5278 198.09152l6.5096436 4.1605225l4.0046387 7.278702l8.511902 7.798996l8.010986 2.0793762l10.013245 -3.6384735l10.514282 -8.839554l-8.511963 3.6402283l-11.514587 0.51852417l-10.514282 -5.1993256l-11.015259 -6.758423z" fill-rule="evenodd"/><path fill="#134f5c" d="m791.0726 202.25204l9.512268 -3.1199493l13.518555 -7.2804565l12.017273 -12.478043l7.5099487 -2.0793762l-7.5099487 4.6790314l-12.5182495 12.478043l-9.0112915 7.2804565l-9.012939 3.1199493z" fill-rule="evenodd"/><path fill="#134f5c" d="m749.0155 180.41415l2.503296 5.717865l13.017578 7.2804565l16.52295 4.1587677l12.516541 -1.5590973l14.019592 -7.278702l-13.019287 0l-13.516846 -5.2010803l-11.01532 -4.1587677l-10.014954 -0.52027893z" fill-rule="evenodd"/><path fill="#134f5c" d="m746.51215 173.1337l4.0046387 -6.2398987l21.529541 -3.6384735l18.525269 3.1199493l15.019897 1.0388184l6.5095825 -2.0793915l-7.5099487 8.839569l-8.511902 5.7196045l-9.0130005 1.0388184l-11.514587 -3.6384735l-8.010925 -3.1199493l-11.015259 0l-6.008667 2.5996552z" fill-rule="evenodd"/><path fill="#134f5c" d="m854.6592 147.13705l-9.012939 9.358093l-8.010986 4.160507l-7.008911 7.278717l-2.0023193 5.1993256l12.015564 -4.1587524l6.008667 -4.6808014z" fill-rule="evenodd"/><path fill="#134f5c" d="m838.1363 148.17587l-11.015259 6.7601776l-4.0046387 6.758423l-5.006653 9.359848l-6.5096436 6.758423l-8.010925 4.6808014l9.012939 1.0388184l10.514282 -7.798996l7.5099487 -18.197647z" fill-rule="evenodd"/><path fill="#134f5c" d="m835.13196 141.93597l8.010925 -9.358093l21.529541 -14.038879l-13.518555 17.679123l-9.512268 5.7178497z" fill-rule="evenodd"/><path fill="#134f5c" d="m800.58484 160.13538l11.516235 -6.2398987l10.013306 -11.959503l11.516235 -16.63855l8.511963 -5.1993256l-6.5096436 7.800743l-5.5076294 9.87838l-3.0042725 8.319275l-10.514282 13.5186l-7.008972 2.5996704z" fill-rule="evenodd"/><path fill="#134f5c" d="m798.5825 100.341354l-5.006653 9.358086l-13.518555 10.398659l-20.527527 11.439224l-10.014954 14.038879l-4.5056763 9.880127l7.5099487 -4.160507l9.513977 -3.6402283l10.013245 -5.1993256l10.013306 -9.878387l10.514221 -14.559166z" fill-rule="evenodd"/><path fill="#134f5c" d="m793.57587 124.77889l10.514282 -16.118263l32.043823 -19.7585l-11.516296 17.677368l-16.021912 13.5186z" fill-rule="evenodd"/><path fill="#134f5c" d="m776.552 148.17587l8.511902 -12.478043l22.531555 -8.839554l12.015625 -6.7601776l20.527527 -16.63855l-16.021912 25.998398l-17.523254 13.5186l-17.023865 2.0793762z" fill-rule="evenodd"/><path fill="#134f5c" d="m839.6393 114.89877l21.527832 -18.717934l-8.510254 13.5186z" fill-rule="evenodd"/><path fill="#134f5c" d="m809.5978 148.17587l-10.514282 3.1199493l-24.032837 0.52027893l-14.520569 3.1199493l-10.514282 5.1993256l-6.5079346 6.2398987l14.017883 -5.1993256l7.01062 -1.560852l16.021912 0l14.017883 -2.0793762l11.516296 -4.1605225z" fill-rule="evenodd"/><path fill="#134f5c" d="m760.5301 208.49019l6.008606 22.878448l5.006653 3.6402283l12.017273 -0.5202942l-8.010986 -5.1993256l-7.5115967 -13.5186z" fill-rule="evenodd"/><path fill="#134f5c" d="m756.571 219.9732l-1.8623047 16.42833l4.6540527 9.664658l14.890015 -0.96699524l-11.168762 -6.763672z" fill-rule="evenodd"/><path fill="#134f5c" d="m669.1202 220.93845l1.8623047 9.664642" fill-rule="evenodd"/><path fill="#134f5c" d="m669.1202 219.9732l1.8623047 16.42833l-4.6540527 9.664658l-14.890015 -0.96699524l11.168762 -6.763672z" fill-rule="evenodd"/><path fill="#134f5c" d="m665.1611 208.49019l-6.008606 22.878448l-5.006653 3.6402283l-12.017273 -0.5202942l8.010986 -5.1993256l7.5115967 -13.5186z" fill-rule="evenodd"/><path fill="#134f5c" d="m667.1634 198.09152l-6.5096436 4.1605225l-4.0046387 7.278702l-8.511902 7.798996l-8.010986 2.0793762l-10.013245 -3.6384735l-10.514282 -8.839554l8.511963 3.6402283l11.514587 0.51852417l10.514282 -5.1993256l11.015259 -6.758423z" fill-rule="evenodd"/><path fill="#134f5c" d="m634.6186 202.25204l-9.512268 -3.1199493l-13.518555 -7.2804565l-12.017273 -12.478043l-7.5099487 -2.0793762l7.5099487 4.6790314l12.5182495 12.478043l9.0112915 7.2804565l9.012939 3.1199493z" fill-rule="evenodd"/><path fill="#134f5c" d="m676.67566 180.41415l-2.503296 5.717865l-13.017578 7.2804565l-16.52295 4.1587677l-12.516541 -1.5590973l-14.019592 -7.278702l13.019287 0l13.516846 -5.2010803l11.01532 -4.1587677l10.014954 -0.52027893z" fill-rule="evenodd"/><path fill="#134f5c" d="m679.179 173.1337l-4.0046387 -6.2398987l-21.529541 -3.6384735l-18.525269 3.1199493l-15.019897 1.0388184l-6.5095825 -2.0793915l7.5099487 8.839569l8.511902 5.7196045l9.0130005 1.0388184l11.514587 -3.6384735l8.010925 -3.1199493l11.015259 0l6.008667 2.5996552z" fill-rule="evenodd"/><path fill="#134f5c" d="m571.032 147.13705l9.012939 9.358093l8.010986 4.160507l7.008911 7.278717l2.0023193 5.1993256l-12.015564 -4.1587524l-6.008667 -4.6808014z" fill-rule="evenodd"/><path fill="#134f5c" d="m587.5549 148.17587l11.015259 6.7601776l4.0046387 6.758423l5.006653 9.359848l6.5096436 6.758423l8.010925 4.6808014l-9.012939 1.0388184l-10.514282 -7.798996l-7.5099487 -18.197647z" fill-rule="evenodd"/><path fill="#134f5c" d="m590.5592 141.93597l-8.010925 -9.358093l-21.529541 -14.038879l13.518555 17.679123l9.512268 5.7178497z" fill-rule="evenodd"/><path fill="#134f5c" d="m625.1063 160.13538l-11.516235 -6.2398987l-10.013306 -11.959503l-11.516235 -16.63855l-8.511963 -5.1993256l6.5096436 7.800743l5.5076294 9.87838l3.0042725 8.319275l10.514282 13.5186l7.008972 2.5996704z" fill-rule="evenodd"/><path fill="#134f5c" d="m627.10864 100.341354l5.006653 9.358086l13.518555 10.398659l20.527527 11.439224l10.014954 14.038879l4.5056763 9.880127l-7.5099487 -4.160507l-9.513977 -3.6402283l-10.013245 -5.1993256l-10.013306 -9.878387l-10.514221 -14.559166z" fill-rule="evenodd"/><path fill="#134f5c" d="m632.1153 124.77889l-10.514282 -16.118263l-32.043823 -19.7585l11.516296 17.677368l16.021912 13.5186z" fill-rule="evenodd"/><path fill="#134f5c" d="m649.13916 148.17587l-8.511902 -12.478043l-22.531555 -8.839554l-12.015625 -6.7601776l-20.527527 -16.63855l16.021912 25.998398l17.523254 13.5186l17.023865 2.0793762z" fill-rule="evenodd"/><path fill="#134f5c" d="m586.0519 114.89877l-21.527832 -18.717934l8.510254 13.5186z" fill-rule="evenodd"/><path fill="#134f5c" d="m616.0934 148.17587l10.514282 3.1199493l24.032837 0.52027893l14.520569 3.1199493l10.514282 5.1993256l6.5079346 6.2398987l-14.017883 -5.1993256l-7.01062 -1.560852l-16.021912 0l-14.017883 -2.0793762l-11.516296 -4.1605225z" fill-rule="evenodd"/><path fill="#000000" d="m730.84937 155.69414l9.805542 4.549011l5.989258 24.457123l1.1029663 56.530487l-9.268799 0l-4.3641357 -49.129242l0 -13.086533l-5.99292 -9.669998z" fill-rule="evenodd"/><path stroke="#000000" stroke-width="1.0" stroke-linejoin="round" stroke-linecap="butt" d="m730.84937 155.69414l9.805542 4.549011l5.989258 24.457123l1.1029663 56.530487l-9.268799 0l-4.3641357 -49.129242l0 -13.086533l-5.99292 -9.669998z" fill-rule="evenodd"/><path fill="#000000" d="m703.69995 137.59647l-1.09198 21.64711l14.18811 -1.1362915l-1.091919 -21.65094z" fill-rule="evenodd"/><path stroke="#000000" stroke-width="1.0" stroke-linejoin="round" stroke-linecap="butt" d="m703.69995 137.59647l-1.09198 21.64711l14.18811 -1.1362915l-1.091919 -21.65094z" fill-rule="evenodd"/><path fill="#000000" d="m689.85016 125.88806l0 0c0 -12.275505 8.888855 -22.226768 19.85382 -22.226768l0 0c5.265503 0 10.31543 2.3417435 14.038757 6.510071c3.7232666 4.1683273 5.8150024 9.821793 5.8150024 15.716698l0 0c0 12.275513 -8.888855 22.226776 -19.85376 22.226776l0 0c-10.964966 0 -19.85382 -9.951263 -19.85382 -22.226776z" fill-rule="evenodd"/><path stroke="#000000" stroke-width="1.0" stroke-linejoin="round" stroke-linecap="butt" d="m689.85016 125.88806l0 0c0 -12.275505 8.888855 -22.226768 19.85382 -22.226768l0 0c5.265503 0 10.31543 2.3417435 14.038757 6.510071c3.7232666 4.1683273 5.8150024 9.821793 5.8150024 15.716698l0 0c0 12.275513 -8.888855 22.226776 -19.85376 22.226776l0 0c-10.964966 0 -19.85382 -9.951263 -19.85382 -22.226776z" fill-rule="evenodd"/><path fill="#000000" d="m688.41437 159.67737l45.222534 -3.9846954l-4.904602 44.944916l8.173157 35.271088l-46.310852 -6.8292694l9.261414 -30.1501z" fill-rule="evenodd"/><path stroke="#000000" stroke-width="1.0" stroke-linejoin="round" stroke-linecap="butt" d="m688.41437 159.67737l45.222534 -3.9846954l-4.904602 44.944916l8.173157 35.271088l-46.310852 -6.8292694l9.261414 -30.1501z" fill-rule="evenodd"/><path fill="#000000" d="m735.0019 234.99768l-8.173157 102.96484l-11.44165 -1.7044373l-3.8200684 -88.74585l-8.606995 38.79895l1.5479126 45.08313l-12.353516 6.4415283l-4.6325684 -48.303894l0.6213989 -61.36354z" fill-rule="evenodd"/><path stroke="#000000" stroke-width="1.0" stroke-linejoin="round" stroke-linecap="butt" d="m735.0019 234.99768l-8.173157 102.96484l-11.44165 -1.7044373l-3.8200684 -88.74585l-8.606995 38.79895l1.5479126 45.08313l-12.353516 6.4415283l-4.6325684 -48.303894l0.6213989 -61.36354z" fill-rule="evenodd"/><path fill="#000000" d="m688.4031 159.5983l5.739197 21.47821l-2.87146 18.97528l-3.750122 39.566742l-7.7209473 -1.6084747l2.3824463 -42.449677l0.9559326 -26.476349z" fill-rule="evenodd"/><path stroke="#000000" stroke-width="1.0" stroke-linejoin="round" stroke-linecap="butt" d="m688.4031 159.5983l5.739197 21.47821l-2.87146 18.97528l-3.750122 39.566742l-7.7209473 -1.6084747l2.3824463 -42.449677l0.9559326 -26.476349z" fill-rule="evenodd"/><path fill="#5b0f00" d="m686.6333 147.77618l3.220642 6.1617584l6.9749146 24.656403l6.9779663 7.8462067l-1.0735474 -30.821274z" fill-rule="evenodd"/><path fill="#5b0f00" d="m740.0668 152.35672l-9.931641 25.767899l-10.702332 -24.543686z" fill-rule="evenodd"/><path fill="#6fa8dc" d="m5.0964627 306.3596l0 0c0 -18.421082 14.2537 -33.35434 31.836529 -33.35434l0 0c8.443573 0 16.54132 3.5140991 22.511826 9.769257c5.9705048 6.2551575 9.324707 14.738953 9.324707 23.585083l0 0c0 18.421082 -14.253704 33.35431 -31.836533 33.35431l0 0c-17.582829 0 -31.836529 -14.933228 -31.836529 -33.35431z" fill-rule="evenodd"/><path fill="#6fa8dc" d="m42.11349 326.74277l0 0c0 -18.421082 14.2537 -33.35431 31.836529 -33.35431l0 0c8.443573 0 16.54132 3.5140991 22.511826 9.769257c5.9705048 6.2551575 9.324707 14.738953 9.324707 23.585052l0 0c0 18.421112 -14.2537 33.35434 -31.836533 33.35434l0 0c-17.582829 0 -31.836529 -14.933228 -31.836529 -33.35434z" fill-rule="evenodd"/><path fill="#6fa8dc" d="m76.90544 306.3596l0 0c0 -18.421082 14.2537 -33.35434 31.836525 -33.35434l0 0c8.443573 0 16.54132 3.5140991 22.511833 9.769257c5.9705048 6.2551575 9.324692 14.738953 9.324692 23.585083l0 0c0 18.421082 -14.253693 33.35431 -31.836525 33.35431l0 0c-17.582825 0 -31.836525 -14.933228 -31.836525 -33.35431z" fill-rule="evenodd"/><path fill="#6fa8dc" d="m98.45715 343.5092l0 0c0 -14.550751 17.05175 -26.346466 38.08615 -26.346466l0 0c21.034409 0 38.086166 11.795715 38.086166 26.346466l0 0c0 14.550751 -17.051758 26.346466 -38.086166 26.346466l0 0c-21.0344 0 -38.08615 -11.795715 -38.08615 -26.346466z" fill-rule="evenodd"/><path fill="#6fa8dc" d="m135.57721 311.8294l0 0c0 -10.184662 9.070526 -18.440948 20.259613 -18.440948l0 0c11.189072 0 20.259598 8.256287 20.259598 18.440948l0 0c0 10.184631 -9.070526 18.440948 -20.259598 18.440948l0 0c-11.189087 0 -20.259613 -8.256317 -20.259613 -18.440948z" fill-rule="evenodd"/><path fill="#6fa8dc" d="m167.57748 336.5013l0 0c0 -18.421082 14.253708 -33.35434 31.836533 -33.35434l0 0c8.443573 0 16.54132 3.5141296 22.511826 9.769257c5.9705048 6.2551575 9.324707 14.738953 9.324707 23.585083l0 0c0 18.421082 -14.253708 33.35434 -31.836533 33.35434l0 0c-17.582825 0 -31.836533 -14.933258 -31.836533 -33.35434z" fill-rule="evenodd"/><path fill="#6fa8dc" d="m53.689926 294.45407l0 0c0 -11.845856 9.070538 -21.448822 20.259613 -21.448822l0 0c5.3731766 0 10.526291 2.2597656 14.3257065 6.2822266c3.799408 4.0224304 5.933899 9.478027 5.933899 15.166595l0 0c0 11.845856 -9.070534 21.448822 -20.259605 21.448822l0 0c-11.189075 0 -20.259613 -9.602966 -20.259613 -21.448822z" fill-rule="evenodd"/><path fill="#6fa8dc" d="m187.59068 306.3596l0 0c0 -14.550751 10.8077545 -26.346466 24.139786 -26.346466l0 0c6.4022827 0 12.542328 2.7757874 17.069412 7.7167053c4.5270844 4.940918 7.0703735 11.642242 7.0703735 18.62976l0 0c0 14.550751 -10.807739 26.346436 -24.139786 26.346436l0 0c-13.332031 0 -24.139786 -11.795685 -24.139786 -26.346436z" fill-rule="evenodd"/><path fill="#6fa8dc" d="m217.4614 326.74277l0 0c0 -18.421082 14.253708 -33.35431 31.836533 -33.35431l0 0c8.443588 0 16.541306 3.5140991 22.511826 9.769257c5.97052 6.2551575 9.324707 14.738953 9.324707 23.585052l0 0c0 18.421112 -14.253693 33.35434 -31.836533 33.35434l0 0c-17.582825 0 -31.836533 -14.933228 -31.836533 -33.35434z" fill-rule="evenodd"/><path fill="#6fa8dc" d="m258.24954 357.90552l0 0c0 -18.421082 14.253693 -33.35434 31.836517 -33.35434l0 0c8.443573 0 16.54132 3.5140991 22.51184 9.769257c5.9704895 6.2551575 9.324707 14.738953 9.324707 23.585083l0 0c0 18.421082 -14.253723 33.35434 -31.836548 33.35434l0 0c-17.582825 0 -31.836517 -14.933258 -31.836517 -33.35434z" fill-rule="evenodd"/><path fill="#6fa8dc" d="m303.9915 349.25723l0 0c0 -18.421112 14.253693 -33.35434 31.836548 -33.35434l0 0c8.443573 0 16.54132 3.5140991 22.51181 9.769257c5.97052 6.2551575 9.324707 14.738953 9.324707 23.585083l0 0c0 18.421082 -14.253693 33.35431 -31.836517 33.35431l0 0c-17.582855 0 -31.836548 -14.933228 -31.836548 -33.35431z" fill-rule="evenodd"/><path fill="#6fa8dc" d="m361.07935 357.90552l0 0c0 -18.421082 14.253693 -33.35434 31.836548 -33.35434l0 0c8.443573 0 16.54132 3.5140991 22.51181 9.769257c5.97052 6.2551575 9.324707 14.738953 9.324707 23.585083l0 0c0 18.421082 -14.253693 33.35434 -31.836517 33.35434l0 0c-17.582855 0 -31.836548 -14.933258 -31.836548 -33.35434z" fill-rule="evenodd"/><path fill="#6fa8dc" d="m402.96762 333.6378l0 0c0 -18.421082 14.253723 -33.35431 31.836548 -33.35431l0 0c8.443573 0 16.54132 3.5140991 22.51181 9.769257c5.97052 6.255127 9.324707 14.738953 9.324707 23.585052l0 0c0 18.421082 -14.253693 33.35434 -31.836517 33.35434l0 0c-17.582825 0 -31.836548 -14.933258 -31.836548 -33.35434z" fill-rule="evenodd"/><path fill="#6fa8dc" d="m278.21484 317.21298l0 0c0 -9.349701 9.070557 -16.929138 20.259613 -16.929138l0 0c11.189087 0 20.259613 7.5794373 20.259613 16.929138l0 0c0 9.349701 -9.070526 16.929138 -20.259613 16.929138l0 0c-11.189056 0 -20.259613 -7.5794373 -20.259613 -16.929138z" fill-rule="evenodd"/><path fill="#6fa8dc" d="m354.68976 333.6378l0 0c0 -14.550751 10.807739 -26.346436 24.139801 -26.346436l0 0c6.402252 0 12.542297 2.7757568 17.069397 7.716675c4.5270996 4.940918 7.0703735 11.642242 7.0703735 18.62976l0 0c0 14.550751 -10.807739 26.346466 -24.13977 26.346466l0 0c-13.332062 0 -24.139801 -11.795715 -24.139801 -26.346466z" fill-rule="evenodd"/><path fill="#6fa8dc" d="m382.44315 343.5092l0 0c0 -18.421082 14.253693 -33.35434 31.836517 -33.35434l0 0c8.443573 0 16.54132 3.5141296 22.51184 9.769257c5.9704895 6.2551575 9.3246765 14.738953 9.3246765 23.585083l0 0c0 18.421082 -14.253693 33.35434 -31.836517 33.35434l0 0c-17.582825 0 -31.836517 -14.933258 -31.836517 -33.35434z" fill-rule="evenodd"/><path fill="#6fa8dc" d="m0.35695538 325.56693l466.58267 0l0 65.700806l-466.58267 0z" fill-rule="evenodd"/><path fill="#6fa8dc" d="m0.8506505 294.89566l0 0c6.907313 -4.056366 14.946094 -2.6193542 19.453323 3.477539c4.5072308 6.096863 4.311636 15.269196 -0.47332764 22.196472c-4.7849646 6.927246 -12.915847 9.809265 -19.676205 6.9742737z" fill-rule="evenodd"/><path fill="#6fa8dc" d="m393.73163 306.35565l0 0c0 -18.421112 14.253693 -33.35434 31.836548 -33.35434l0 0c8.443573 0 16.54129 3.5140991 22.51181 9.769257c5.97052 6.2551575 9.324707 14.738953 9.324707 23.585083l0 0c0 18.421082 -14.253693 33.35431 -31.836517 33.35431l0 0c-17.582855 0 -31.836548 -14.933228 -31.836548 -33.35431z" fill-rule="evenodd"/><path fill="#6fa8dc" d="m430.74866 326.73883l0 0c0 -18.421082 14.253693 -33.35431 31.836548 -33.35431l0 0c8.443573 0 16.54129 3.5140991 22.51181 9.769257c5.97052 6.2551575 9.324707 14.738953 9.324707 23.585052l0 0c0 18.421112 -14.253693 33.35434 -31.836517 33.35434l0 0c-17.582855 0 -31.836548 -14.933228 -31.836548 -33.35434z" fill-rule="evenodd"/><path fill="#6fa8dc" d="m465.54062 306.35565l0 0c0 -18.421112 14.253693 -33.35434 31.836517 -33.35434l0 0c8.443573 0 16.54132 3.5140991 22.51184 9.769257c5.97052 6.2551575 9.324707 14.738953 9.324707 23.585083l0 0c0 18.421082 -14.253723 33.35431 -31.836548 33.35431l0 0c-17.582825 0 -31.836517 -14.933228 -31.836517 -33.35431z" fill-rule="evenodd"/><path fill="#6fa8dc" d="m487.09232 343.50525l0 0c0 -14.550751 17.051758 -26.346466 38.08615 -26.346466l0 0c21.034424 0 38.08618 11.795715 38.08618 26.346466l0 0c0 14.550751 -17.051758 26.346466 -38.08618 26.346466l0 0c-21.034393 0 -38.08615 -11.795715 -38.08615 -26.346466z" fill-rule="evenodd"/><path fill="#6fa8dc" d="m524.2124 311.82547l0 0c0 -10.184662 9.070496 -18.440948 20.259583 -18.440948l0 0c11.189087 0 20.259583 8.256287 20.259583 18.440948l0 0c0 10.184631 -9.070496 18.440948 -20.259583 18.440948l0 0c-11.189087 0 -20.259583 -8.256317 -20.259583 -18.440948z" fill-rule="evenodd"/><path fill="#6fa8dc" d="m556.21265 336.49738l0 0c0 -18.421082 14.253723 -33.35434 31.836548 -33.35434l0 0c8.4435425 0 16.54132 3.5141296 22.51184 9.769257c5.970459 6.2551575 9.324707 14.738953 9.324707 23.585083l0 0c0 18.421082 -14.253723 33.35434 -31.836548 33.35434l0 0c-17.582825 0 -31.836548 -14.933258 -31.836548 -33.35434z" fill-rule="evenodd"/><path fill="#6fa8dc" d="m442.3251 294.45013l0 0c0 -11.845856 9.070526 -21.448822 20.259613 -21.448822l0 0c5.373169 0 10.526276 2.2597656 14.325684 6.2822266c3.7994385 4.0224304 5.9339294 9.477997 5.9339294 15.166595l0 0c0 11.845856 -9.070557 21.448822 -20.259613 21.448822l0 0c-11.189087 0 -20.259613 -9.602966 -20.259613 -21.448822z" fill-rule="evenodd"/><path fill="#6fa8dc" d="m576.2258 306.35565l0 0c0 -14.550751 10.8078 -26.346466 24.139832 -26.346466l0 0c6.4022827 0 12.542297 2.7757874 17.069397 7.7167053c4.5270996 4.940918 7.0703735 11.642242 7.0703735 18.62976l0 0c0 14.550751 -10.807739 26.346436 -24.13977 26.346436l0 0c-13.332031 0 -24.139832 -11.795685 -24.139832 -26.346436z" fill-rule="evenodd"/><path fill="#6fa8dc" d="m606.09656 326.73883l0 0c0 -18.421082 14.253723 -33.35431 31.836548 -33.35431l0 0c8.4435425 0 16.54132 3.5140991 22.51184 9.769257c5.970459 6.2551575 9.324707 14.738953 9.324707 23.585052l0 0c0 18.421112 -14.253723 33.35434 -31.836548 33.35434l0 0c-17.582825 0 -31.836548 -14.933228 -31.836548 -33.35434z" fill-rule="evenodd"/><path fill="#6fa8dc" d="m646.8847 357.90158l0 0c0 -18.421082 14.253723 -33.35434 31.836548 -33.35434l0 0c8.4435425 0 16.54132 3.5140991 22.51184 9.769257c5.970459 6.2551575 9.324646 14.738953 9.324646 23.585083l0 0c0 18.421082 -14.253662 33.35434 -31.836487 33.35434l0 0c-17.582825 0 -31.836548 -14.933258 -31.836548 -33.35434z" fill-rule="evenodd"/><path fill="#6fa8dc" d="m692.62665 349.2533l0 0c0 -18.421112 14.253723 -33.35434 31.836548 -33.35434l0 0c8.4435425 0 16.54132 3.5140991 22.51184 9.769257c5.970459 6.2551575 9.324707 14.738953 9.324707 23.585083l0 0c0 18.421082 -14.253723 33.35431 -31.836548 33.35431l0 0c-17.582825 0 -31.836548 -14.933228 -31.836548 -33.35431z" fill-rule="evenodd"/><path fill="#6fa8dc" d="m749.71454 357.90158l0 0c0 -18.421082 14.253662 -33.35434 31.836487 -33.35434l0 0c8.4436035 0 16.54132 3.5140991 22.51184 9.769257c5.97052 6.2551575 9.324707 14.738953 9.324707 23.585083l0 0c0 18.421082 -14.253662 33.35434 -31.836548 33.35434l0 0c-17.582825 0 -31.836487 -14.933258 -31.836487 -33.35434z" fill-rule="evenodd"/><path fill="#6fa8dc" d="m791.6028 333.63385l0 0c0 -18.421082 14.253723 -33.35431 31.836548 -33.35431l0 0c8.4435425 0 16.54132 3.5140991 22.51184 9.769257c5.97052 6.255127 9.324707 14.738953 9.324707 23.585052l0 0c0 18.421082 -14.253723 33.35434 -31.836548 33.35434l0 0c-17.582825 0 -31.836548 -14.933258 -31.836548 -33.35434z" fill-rule="evenodd"/><path fill="#6fa8dc" d="m666.85004 317.20905l0 0c0 -9.349701 9.070496 -16.929138 20.259583 -16.929138l0 0c11.189087 0 20.259644 7.5794373 20.259644 16.929138l0 0c0 9.349701 -9.070557 16.929138 -20.259644 16.929138l0 0c-11.189087 0 -20.259583 -7.5794373 -20.259583 -16.929138z" fill-rule="evenodd"/><path fill="#6fa8dc" d="m743.32495 333.63385l0 0c0 -14.550751 10.807739 -26.346436 24.13977 -26.346436l0 0c6.4022827 0 12.542297 2.7757568 17.069397 7.716675c4.5270996 4.940918 7.0703735 11.642242 7.0703735 18.62976l0 0c0 14.550751 -10.807739 26.346466 -24.13977 26.346466l0 0c-13.332031 0 -24.13977 -11.795715 -24.13977 -26.346466z" fill-rule="evenodd"/><path fill="#6fa8dc" d="m771.0783 343.50525l0 0c0 -18.421082 14.253723 -33.35434 31.836548 -33.35434l0 0c8.4435425 0 16.54132 3.5141296 22.51178 9.769257c5.97052 6.2551575 9.324707 14.738953 9.324707 23.585083l0 0c0 18.421082 -14.253662 33.35434 -31.836487 33.35434l0 0c-17.582825 0 -31.836548 -14.933258 -31.836548 -33.35434z" fill-rule="evenodd"/><path fill="#6fa8dc" d="m388.99213 325.563l466.5827 0l0 65.700806l-466.5827 0z" fill-rule="evenodd"/><path fill="#6fa8dc" d="m878.62537 375.43298c-12.737854 10.176331 -28.230408 9.325226 -37.286377 -2.0483704c-9.055969 -11.373596 -9.25177 -30.225922 -0.47131348 -45.372437c8.780518 -15.146515 24.1875 -22.533722 37.080444 -17.779022z" fill-rule="evenodd"/><path fill="#6fa8dc" d="m824.29395 351.76117l51.748047 0l0 39.496063l-51.748047 0z" fill-rule="evenodd"/></g></svg>