<svg version="1.1" viewBox="0.0 0.0 465.93175853018374 269.6430446194226" fill="none" stroke="none" stroke-linecap="square" stroke-miterlimit="10" xmlns:xlink="http://www.w3.org/1999/xlink" xmlns="http://www.w3.org/2000/svg"><clipPath id="p.0"><path d="m0 0l465.93176 0l0 269.64304l-465.93176 0l0 -269.64304z" clip-rule="nonzero"/></clipPath><g clip-path="url(#p.0)"><path fill="#000000" fill-opacity="0.0" d="m0 0l465.93176 0l0 269.64304l-465.93176 0z" fill-rule="evenodd"/><path fill="#5b0f00" d="m336.87512 77.81915c0.57470703 -5.592247 5.337311 -10.197891 8.868469 -12.336136c3.5311584 -2.138237 8.130188 -1.8912811 12.31842 -0.49329376c4.1882324 1.3979797 10.5937195 3.8647842 12.811005 8.88121c2.2172546 5.016426 1.3959656 17.023087 0.49258423 21.217346c-0.90338135 4.1942596 -1.0679016 3.290184 -5.912903 3.9482193c-4.8450317 0.6580429 -18.394318 3.5362244 -23.157227 0c-4.7629395 -3.5362244 -5.9950256 -15.625099 -5.420349 -21.217346z" fill-rule="evenodd"/><path fill="#134f5c" d="m382.29727 122.33095l3.9604797 2.4278107l2.436432 4.2473907l5.178711 4.5509796l4.873871 1.2133942l6.092102 -2.123169l6.3969116 -5.1582108l-5.178711 2.1242142l-7.005493 0.3025818l-6.3969116 -3.0340042l-6.701721 -3.943779z" fill-rule="evenodd"/><path fill="#134f5c" d="m402.09763 124.75876l5.7872925 -1.8206024l8.224731 -4.248413l7.3113403 -7.2813797l4.569092 -1.2133942l-4.569092 2.7303925l-7.61615 7.2813797l-5.482483 4.248413l-5.48349 1.8206024z" fill-rule="evenodd"/><path fill="#134f5c" d="m376.50998 112.01557l1.5230408 3.3365707l7.919922 4.248413l10.052582 2.4267883l7.6151123 -0.90979004l8.529572 -4.2473907l-7.9209595 0l-8.223724 -3.035019l-6.701721 -2.4267807l-6.093109 -0.30360413z" fill-rule="evenodd"/><path fill="#134f5c" d="m374.98697 107.76716l2.436432 -3.6412048l13.098633 -2.1231842l11.270782 1.8206024l9.138153 0.6061859l3.9604797 -1.2133942l-4.569092 5.158203l-5.1786804 3.3376007l-5.4835205 0.6061859l-7.005493 -2.1231842l-4.873871 -1.8206024l-6.701721 0l-3.6556702 1.5169983z" fill-rule="evenodd"/><path fill="#134f5c" d="m440.78387 92.59718l-5.48349 5.460785l-4.873871 2.427803l-4.264282 4.2473907l-1.2182007 3.0339966l7.3103027 -2.4267883l3.6556702 -2.7314148z" fill-rule="evenodd"/><path fill="#134f5c" d="m430.73132 93.20337l-6.701721 3.944809l-2.436432 3.943779l-3.046051 5.4618073l-3.9604797 3.9437866l-4.8739014 2.7314148l5.4835205 0.6061783l6.3969116 -4.5509872l4.5690613 -10.61898z" fill-rule="evenodd"/><path fill="#134f5c" d="m428.90347 89.562164l4.873871 -5.4607773l13.098633 -8.1922l-8.224731 10.316406l-5.7872925 3.3365707z" fill-rule="evenodd"/><path fill="#134f5c" d="m407.88492 100.182175l7.006531 -3.6412048l6.092102 -6.9788055l7.006531 -9.70919l5.1786804 -3.0339966l-3.9604797 4.552017l-3.3508606 5.764389l-1.8278198 4.8545914l-6.3969116 7.8885956l-4.264282 1.5169907z" fill-rule="evenodd"/><path fill="#134f5c" d="m406.6667 65.29021l-3.046051 5.460785l-8.224731 6.0679855l-12.489014 6.6752014l-6.093109 8.192192l-2.7412415 5.7654114l4.5690613 -2.4278107l5.78833 -2.1242065l6.092102 -3.0339966l6.092102 -5.7643814l6.396881 -8.495804z" fill-rule="evenodd"/><path fill="#134f5c" d="m403.62064 79.55039l6.3969116 -9.405586l19.495544 -11.529797l-7.006531 10.31538l-9.747772 7.888588z" fill-rule="evenodd"/><path fill="#134f5c" d="m393.26328 93.20337l5.1786804 -7.2813797l13.708252 -5.158203l7.3103027 -3.944809l12.489014 -9.70919l-9.747772 15.170998l-10.661163 7.888588l-10.357391 1.2133942z" fill-rule="evenodd"/><path fill="#134f5c" d="m431.64575 73.78499l13.097595 -10.922588l-5.1776733 7.888592z" fill-rule="evenodd"/><path fill="#134f5c" d="m413.3684 93.20337l-6.3969116 1.8206024l-14.621643 0.30360413l-8.834351 1.8206024l-6.3969116 3.0339966l-3.9594727 3.6411972l8.528534 -3.0339966l4.2652893 -0.91080475l9.747772 0l8.528534 -1.2133942l7.006531 -2.4278107z" fill-rule="evenodd"/><path fill="#134f5c" d="m383.5155 128.39894l3.6556702 13.350388l3.046051 2.1242065l7.3113403 -0.30360413l-4.8739014 -3.0339966l-4.570099 -7.8885803z" fill-rule="evenodd"/><path fill="#134f5c" d="m381.10678 135.09969l-1.1330261 9.586533l2.831543 5.6396637l9.059113 -0.56427l-6.795105 -3.9468536z" fill-rule="evenodd"/><path fill="#134f5c" d="m327.90146 135.66295l1.1330566 5.6396637" fill-rule="evenodd"/><path fill="#134f5c" d="m327.90146 135.09969l1.1330566 9.586533l-2.8315735 5.6396637l-9.059113 -0.56427l6.795105 -3.9468536z" fill-rule="evenodd"/><path fill="#134f5c" d="m325.49274 128.39894l-3.6556702 13.350388l-3.0460205 2.1242065l-7.3113403 -0.30360413l4.873871 -3.0339966l4.570099 -7.8885803z" fill-rule="evenodd"/><path fill="#134f5c" d="m326.71097 122.33095l-3.9604797 2.4278107l-2.436432 4.2473907l-5.1786804 4.5509796l-4.8739014 1.2133942l-6.092102 -2.123169l-6.3969116 -5.1582108l5.178711 2.1242142l7.005493 0.3025818l6.3969116 -3.0340042l6.701721 -3.943779z" fill-rule="evenodd"/><path fill="#134f5c" d="m306.9106 124.75876l-5.7872925 -1.8206024l-8.224731 -4.248413l-7.3113403 -7.2813797l-4.5690613 -1.2133942l4.5690613 2.7303925l7.61615 7.2813797l5.482483 4.248413l5.48349 1.8206024z" fill-rule="evenodd"/><path fill="#134f5c" d="m332.49826 112.01557l-1.5230408 3.3365707l-7.919922 4.248413l-10.052582 2.4267883l-7.6151123 -0.90979004l-8.529572 -4.2473907l7.9209595 0l8.223724 -3.035019l6.701721 -2.4267807l6.093109 -0.30360413z" fill-rule="evenodd"/><path fill="#134f5c" d="m334.02127 107.76716l-2.436432 -3.6412048l-13.098602 -2.1231842l-11.270813 1.8206024l-9.138153 0.6061859l-3.9604797 -1.2133942l4.569092 5.158203l5.1786804 3.3376007l5.4835205 0.6061859l7.005493 -2.1231842l4.873871 -1.8206024l6.701721 0l3.6556702 1.5169983z" fill-rule="evenodd"/><path fill="#134f5c" d="m268.22437 92.59718l5.48349 5.460785l4.8739014 2.427803l4.2642517 4.2473907l1.2182007 3.0339966l-7.3103027 -2.4267883l-3.6556702 -2.7314148z" fill-rule="evenodd"/><path fill="#134f5c" d="m278.27695 93.20337l6.701721 3.944809l2.4364014 3.943779l3.046051 5.4618073l3.9604797 3.9437866l4.8739014 2.7314148l-5.4835205 0.6061783l-6.3969116 -4.5509872l-4.5690613 -10.61898z" fill-rule="evenodd"/><path fill="#134f5c" d="m280.10477 89.562164l-4.873871 -5.4607773l-13.098633 -8.1922l8.224731 10.316406l5.7872925 3.3365707z" fill-rule="evenodd"/><path fill="#134f5c" d="m301.12332 100.182175l-7.006531 -3.6412048l-6.092102 -6.9788055l-7.0065002 -9.70919l-5.178711 -3.0339966l3.9604797 4.552017l3.3508606 5.764389l1.8278503 4.8545914l6.396881 7.8885956l4.264282 1.5169907z" fill-rule="evenodd"/><path fill="#134f5c" d="m302.34155 65.29021l3.046051 5.460785l8.224731 6.0679855l12.489014 6.6752014l6.093109 8.192192l2.7412415 5.7654114l-4.5690613 -2.4278107l-5.78833 -2.1242065l-6.0920715 -3.0339966l-6.092102 -5.7643814l-6.3969116 -8.495804z" fill-rule="evenodd"/><path fill="#134f5c" d="m305.3876 79.55039l-6.3969116 -9.405586l-19.495544 -11.529797l7.006531 10.31538l9.747772 7.888588z" fill-rule="evenodd"/><path fill="#134f5c" d="m315.745 93.20337l-5.178711 -7.2813797l-13.708252 -5.158203l-7.3103027 -3.944809l-12.489014 -9.70919l9.747772 15.170998l10.661163 7.888588l10.357391 1.2133942z" fill-rule="evenodd"/><path fill="#134f5c" d="m277.36252 73.78499l-13.097626 -10.922588l5.1776733 7.888592z" fill-rule="evenodd"/><path fill="#134f5c" d="m295.63983 93.20337l6.3969116 1.8206024l14.621643 0.30360413l8.834351 1.8206024l6.3969116 3.0339966l3.9594727 3.6411972l-8.528534 -3.0339966l-4.2652893 -0.91080475l-9.747772 0l-8.528534 -1.2133942l-7.006531 -2.4278107z" fill-rule="evenodd"/><path fill="#000000" d="m365.45767 97.59055l5.9657288 2.6545029l3.6438599 14.271614l0.671051 32.98757l-5.6391296 0l-2.655182 -28.668678l0 -7.636467l-3.6460876 -5.642784z" fill-rule="evenodd"/><path stroke="#000000" stroke-width="1.0" stroke-linejoin="round" stroke-linecap="butt" d="m365.45767 97.59055l5.9657288 2.6545029l3.6438599 14.271614l0.671051 32.98757l-5.6391296 0l-2.655182 -28.668678l0 -7.636467l-3.6460876 -5.642784z" fill-rule="evenodd"/><path fill="#000000" d="m348.93988 87.02991l-0.66433716 12.631866l8.63208 -0.66306305l-0.66433716 -12.6341095z" fill-rule="evenodd"/><path stroke="#000000" stroke-width="1.0" stroke-linejoin="round" stroke-linecap="butt" d="m348.93988 87.02991l-0.66433716 12.631866l8.63208 -0.66306305l-0.66433716 -12.6341095z" fill-rule="evenodd"/><path fill="#000000" d="m340.51364 80.19763l0 0c0 -7.1632004 5.4079895 -12.970123 12.079102 -12.970123l0 0c3.2035828 0 6.27594 1.3664932 8.541229 3.7988663c2.2652588 2.4323654 3.5378723 5.731369 3.5378723 9.171257l0 0c0 7.1632004 -5.4079895 12.970123 -12.079102 12.970123l0 0c-6.671112 0 -12.079102 -5.806923 -12.079102 -12.970123z" fill-rule="evenodd"/><path stroke="#000000" stroke-width="1.0" stroke-linejoin="round" stroke-linecap="butt" d="m340.51364 80.19763l0 0c0 -7.1632004 5.4079895 -12.970123 12.079102 -12.970123l0 0c3.2035828 0 6.27594 1.3664932 8.541229 3.7988663c2.2652588 2.4323654 3.5378723 5.731369 3.5378723 9.171257l0 0c0 7.1632004 -5.4079895 12.970123 -12.079102 12.970123l0 0c-6.671112 0 -12.079102 -5.806923 -12.079102 -12.970123z" fill-rule="evenodd"/><path fill="#000000" d="m339.6401 99.9149l27.51352 -2.3252106l-2.9839783 26.226974l4.9725647 20.58194l-28.17566 -3.9851227l5.634674 -17.593658z" fill-rule="evenodd"/><path stroke="#000000" stroke-width="1.0" stroke-linejoin="round" stroke-linecap="butt" d="m339.6401 99.9149l27.51352 -2.3252106l-2.9839783 26.226974l4.9725647 20.58194l-28.17566 -3.9851227l5.634674 -17.593658z" fill-rule="evenodd"/><path fill="#000000" d="m367.98407 143.867l-4.9725647 60.083694l-6.961151 -0.9945984l-2.3240967 -51.786392l-5.236511 22.64058l0.9417114 26.307617l-7.5158997 3.7588806l-2.818451 -28.187057l0.37805176 -35.80783z" fill-rule="evenodd"/><path stroke="#000000" stroke-width="1.0" stroke-linejoin="round" stroke-linecap="butt" d="m367.98407 143.867l-4.9725647 60.083694l-6.961151 -0.9945984l-2.3240967 -51.786392l-5.236511 22.64058l0.9417114 26.307617l-7.5158997 3.7588806l-2.818451 -28.187057l0.37805176 -35.80783z" fill-rule="evenodd"/><path fill="#000000" d="m339.63324 99.86877l3.4917603 12.533302l-1.7470093 11.072762l-2.2816162 23.088615l-4.697418 -0.93859863l1.4494934 -24.77092l0.5815735 -15.449898z" fill-rule="evenodd"/><path stroke="#000000" stroke-width="1.0" stroke-linejoin="round" stroke-linecap="butt" d="m339.63324 99.86877l3.4917603 12.533302l-1.7470093 11.072762l-2.2816162 23.088615l-4.697418 -0.93859863l1.4494934 -24.77092l0.5815735 -15.449898z" fill-rule="evenodd"/><path fill="#5b0f00" d="m338.55652 92.97014l1.9594116 3.595604l4.2435913 14.387894l4.245392 4.5785446l-0.6531372 -17.985321z" fill-rule="evenodd"/><path fill="#5b0f00" d="m371.06558 95.64304l-6.04245 15.036491l-6.511322 -14.322121z" fill-rule="evenodd"/><path fill="#6fa8dc" d="m4.739507 184.74278l0 0c0 -18.421082 14.2537 -33.354324 31.83653 -33.354324l0 0c8.443569 0 16.541317 3.5140991 22.511826 9.769257c5.9705086 6.255142 9.324703 14.738953 9.324703 23.585068l0 0c0 18.421082 -14.2537 33.354324 -31.836529 33.354324l0 0c-17.58283 0 -31.83653 -14.933243 -31.83653 -33.354324z" fill-rule="evenodd"/><path fill="#6fa8dc" d="m41.756535 205.12599l0 0c0 -18.421097 14.2537 -33.35434 31.836529 -33.35434l0 0c8.443573 0 16.54132 3.5141144 22.511826 9.769257c5.9705124 6.2551575 9.324707 14.738953 9.324707 23.585083l0 0c0 18.421082 -14.2537 33.354324 -31.836533 33.354324l0 0c-17.582829 0 -31.836529 -14.933243 -31.836529 -33.354324z" fill-rule="evenodd"/><path fill="#6fa8dc" d="m76.548485 184.74278l0 0c0 -18.421082 14.2537 -33.354324 31.836525 -33.354324l0 0c8.443573 0 16.54132 3.5140991 22.511826 9.769257c5.9705048 6.255142 9.324707 14.738953 9.324707 23.585068l0 0c0 18.421082 -14.2537 33.354324 -31.836533 33.354324l0 0c-17.582825 0 -31.836525 -14.933243 -31.836525 -33.354324z" fill-rule="evenodd"/><path fill="#6fa8dc" d="m98.1002 221.8924l0 0c0 -14.550751 17.05175 -26.346466 38.08616 -26.346466l0 0c21.034409 0 38.08615 11.795715 38.08615 26.346466l0 0c0 14.550735 -17.051743 26.34645 -38.08615 26.34645l0 0c-21.034409 0 -38.08616 -11.795715 -38.08616 -26.34645z" fill-rule="evenodd"/><path fill="#6fa8dc" d="m135.22025 190.2126l0 0c0 -10.184662 9.070541 -18.440948 20.259613 -18.440948l0 0c11.189072 0 20.259613 8.256287 20.259613 18.440948l0 0c0 10.184647 -9.070541 18.440948 -20.259613 18.440948l0 0c-11.189072 0 -20.259613 -8.256302 -20.259613 -18.440948z" fill-rule="evenodd"/><path fill="#6fa8dc" d="m167.22054 214.88452l0 0c0 -18.421097 14.253693 -33.35434 31.836533 -33.35434l0 0c8.443573 0 16.54132 3.5141144 22.511826 9.769257c5.9705048 6.2551575 9.324692 14.738953 9.324692 23.585083l0 0c0 18.421082 -14.253693 33.354324 -31.836517 33.354324l0 0c-17.58284 0 -31.836533 -14.933243 -31.836533 -33.354324z" fill-rule="evenodd"/><path fill="#6fa8dc" d="m53.33297 172.83727l0 0c0 -11.845856 9.070538 -21.448807 20.259613 -21.448807l0 0c5.3731766 0 10.526291 2.2597656 14.3257065 6.2822113c3.7994156 4.0224304 5.933899 9.478027 5.933899 15.166595l0 0c0 11.845856 -9.070534 21.448822 -20.259605 21.448822l0 0c-11.189075 0 -20.259613 -9.602966 -20.259613 -21.448822z" fill-rule="evenodd"/><path fill="#6fa8dc" d="m187.23373 184.74278l0 0c0 -14.550751 10.8077545 -26.34645 24.139786 -26.34645l0 0c6.4022675 0 12.542313 2.775772 17.069412 7.71669c4.5270844 4.940918 7.0703735 11.642242 7.0703735 18.62976l0 0c0 14.550751 -10.8077545 26.34645 -24.139786 26.34645l0 0c-13.332031 0 -24.139786 -11.7957 -24.139786 -26.34645z" fill-rule="evenodd"/><path fill="#6fa8dc" d="m217.10445 205.12599l0 0c0 -18.421097 14.253693 -33.35434 31.836533 -33.35434l0 0c8.443573 0 16.54132 3.5141144 22.51181 9.769257c5.97052 6.2551575 9.324707 14.738953 9.324707 23.585083l0 0c0 18.421082 -14.253693 33.354324 -31.836517 33.354324l0 0c-17.58284 0 -31.836533 -14.933243 -31.836533 -33.354324z" fill-rule="evenodd"/><path fill="#6fa8dc" d="m257.89258 236.28871l0 0c0 -18.421082 14.253693 -33.354324 31.836548 -33.354324l0 0c8.443573 0 16.54132 3.5140991 22.51181 9.769257c5.97052 6.255142 9.324707 14.738953 9.324707 23.585068l0 0c0 18.421097 -14.253693 33.354324 -31.836517 33.354324l0 0c-17.582855 0 -31.836548 -14.933228 -31.836548 -33.354324z" fill-rule="evenodd"/><path fill="#6fa8dc" d="m303.63452 227.64043l0 0c0 -18.421097 14.253723 -33.35434 31.836548 -33.35434l0 0c8.443573 0 16.54132 3.5141144 22.51181 9.769257c5.97052 6.2551575 9.324707 14.738953 9.324707 23.585083l0 0c0 18.421082 -14.253693 33.354324 -31.836517 33.354324l0 0c-17.582825 0 -31.836548 -14.933243 -31.836548 -33.354324z" fill-rule="evenodd"/><path fill="#6fa8dc" d="m360.7224 236.28871l0 0c0 -18.421082 14.253693 -33.354324 31.836517 -33.354324l0 0c8.443573 0 16.54132 3.5140991 22.51181 9.769257c5.97052 6.255142 9.324707 14.738953 9.324707 23.585068l0 0c0 18.421097 -14.253693 33.354324 -31.836517 33.354324l0 0c-17.582825 0 -31.836517 -14.933228 -31.836517 -33.354324z" fill-rule="evenodd"/><path fill="#6fa8dc" d="m402.6107 212.021l0 0c0 -18.421082 14.253693 -33.354324 31.836517 -33.354324l0 0c8.443573 0 16.54132 3.5140991 22.51184 9.769257c5.9704895 6.255142 9.3246765 14.738953 9.3246765 23.585068l0 0c0 18.421097 -14.253693 33.35434 -31.836517 33.35434l0 0c-17.582825 0 -31.836517 -14.933243 -31.836517 -33.35434z" fill-rule="evenodd"/><path fill="#6fa8dc" d="m277.8579 195.59618l0 0c0 -9.349701 9.070526 -16.929123 20.259583 -16.929123l0 0c11.189087 0 20.259613 7.579422 20.259613 16.929123l0 0c0 9.349701 -9.070526 16.929138 -20.259613 16.929138l0 0c-11.189056 0 -20.259583 -7.5794373 -20.259583 -16.929138z" fill-rule="evenodd"/><path fill="#6fa8dc" d="m354.3328 212.021l0 0c0 -14.550751 10.80777 -26.34645 24.139801 -26.34645l0 0c6.402252 0 12.542328 2.775772 17.069397 7.71669c4.5270996 4.940918 7.0703735 11.642242 7.0703735 18.62976l0 0c0 14.550751 -10.807739 26.34645 -24.13977 26.34645l0 0c-13.332031 0 -24.139801 -11.7957 -24.139801 -26.34645z" fill-rule="evenodd"/><path fill="#6fa8dc" d="m382.08618 221.8924l0 0c0 -18.421097 14.253693 -33.35434 31.836517 -33.35434l0 0c8.443573 0 16.54132 3.5141144 22.51184 9.769257c5.9704895 6.2551575 9.324707 14.738953 9.324707 23.585083l0 0c0 18.421082 -14.253693 33.354324 -31.836548 33.354324l0 0c-17.582825 0 -31.836517 -14.933243 -31.836517 -33.354324z" fill-rule="evenodd"/><path fill="#6fa8dc" d="m0 203.95013l466.58267 0l0 65.700775l-466.58267 0z" fill-rule="evenodd"/><path fill="#6fa8dc" d="m0.4936951 172.75394l0 0c6.9073124 -4.056381 14.946094 -2.6193542 19.453325 3.4775238c4.5072308 6.096863 4.311634 15.269211 -0.47332954 22.196472c-4.7849627 6.9272614 -12.915846 9.809265 -19.676203 6.974289z" fill-rule="evenodd"/></g></svg>