<svg version="1.1" viewBox="0.0 0.0 246.31496062992127 246.31496062992127" fill="none" stroke="none" stroke-linecap="square" stroke-miterlimit="10" xmlns:xlink="http://www.w3.org/1999/xlink" xmlns="http://www.w3.org/2000/svg"><clipPath id="p.0"><path d="m0 0l246.31496 0l0 246.31496l-246.31496 0l0 -246.31496z" clip-rule="nonzero"/></clipPath><g clip-path="url(#p.0)"><path fill="#000000" fill-opacity="0.0" d="m0 0l246.31496 0l0 246.31496l-246.31496 0z" fill-rule="evenodd"/><path fill="#000000" fill-opacity="0.0" d="m9.472441 63.786606l0 0c0 -29.996883 24.317282 -54.314163 54.314163 -54.314163l118.741745 0l0 0c14.405014 0 28.220032 5.722369 38.405914 15.908251c10.185883 10.185883 15.908249 24.0009 15.908249 38.405914l0 118.741745c0 29.996887 -24.317276 54.314163 -54.314163 54.314163l-118.741745 0c-29.996883 0 -54.314163 -24.317276 -54.314163 -54.314163z" fill-rule="evenodd"/><path stroke="#ffffff" stroke-width="16.0" stroke-linejoin="round" stroke-linecap="butt" d="m9.472441 63.786606l0 0c0 -29.996883 24.317282 -54.314163 54.314163 -54.314163l118.741745 0l0 0c14.405014 0 28.220032 5.722369 38.405914 15.908251c10.185883 10.185883 15.908249 24.0009 15.908249 38.405914l0 118.741745c0 29.996887 -24.317276 54.314163 -54.314163 54.314163l-118.741745 0c-29.996883 0 -54.314163 -24.317276 -54.314163 -54.314163z" fill-rule="evenodd"/><path fill="#000000" fill-opacity="0.0" d="m71.362206 123.15748l0 0c0 -28.605736 23.189537 -51.795273 51.795273 -51.795273l0 0c13.736961 0 26.911293 5.4569855 36.624794 15.170486c9.713501 9.713493 15.170486 22.887825 15.170486 36.624786l0 0c0 28.605736 -23.189545 51.79528 -51.79528 51.79528l0 0c-28.605736 0 -51.795273 -23.189545 -51.795273 -51.79528z" fill-rule="evenodd"/><path stroke="#ffffff" stroke-width="16.0" stroke-linejoin="round" stroke-linecap="butt" d="m71.362206 123.15748l0 0c0 -28.605736 23.189537 -51.795273 51.795273 -51.795273l0 0c13.736961 0 26.911293 5.4569855 36.624794 15.170486c9.713501 9.713493 15.170486 22.887825 15.170486 36.624786l0 0c0 28.605736 -23.189545 51.79528 -51.79528 51.79528l0 0c-28.605736 0 -51.795273 -23.189545 -51.795273 -51.79528z" fill-rule="evenodd"/><path fill="#ffffff" d="m174.95276 54.27034l0 0c0 -8.25383 6.6910553 -14.944881 14.944885 -14.944881l0 0c3.963623 0 7.764908 1.5745468 10.567627 4.3772545c2.8027039 2.8027115 4.377243 6.604 4.377243 10.567627l0 0c0 8.25383 -6.69104 14.944885 -14.94487 14.944885l0 0c-8.25383 0 -14.944885 -6.6910553 -14.944885 -14.944885z" fill-rule="evenodd"/><path stroke="#ffffff" stroke-width="1.0" stroke-linejoin="round" stroke-linecap="butt" d="m174.95276 54.27034l0 0c0 -8.25383 6.6910553 -14.944881 14.944885 -14.944881l0 0c3.963623 0 7.764908 1.5745468 10.567627 4.3772545c2.8027039 2.8027115 4.377243 6.604 4.377243 10.567627l0 0c0 8.25383 -6.69104 14.944885 -14.94487 14.944885l0 0c-8.25383 0 -14.944885 -6.6910553 -14.944885 -14.944885z" fill-rule="evenodd"/></g></svg>