<svg version="1.1" viewBox="0.0 0.0 100.0 100.0" fill="none" stroke="none" stroke-linecap="square" stroke-miterlimit="10" xmlns:xlink="http://www.w3.org/1999/xlink" xmlns="http://www.w3.org/2000/svg"><clipPath id="p.0"><path d="m0 0l100.0 0l0 100.0l-100.0 0l0 -100.0z" clip-rule="nonzero"/></clipPath><g clip-path="url(#p.0)"><path fill="#000000" fill-opacity="0.0" d="m0 0l100.0 0l0 100.0l-100.0 0z" fill-rule="evenodd"/><path fill="#134f5c" d="m4.708845 84.19988l2.6219382 5.2639008l13.63443 6.7024384l17.305851 3.8285828l13.109688 -1.435318l14.683914 -6.700821l-13.6362 0l-14.157402 -4.788147l-11.537235 -3.8285904l-10.489517 -0.4789734z" fill-rule="evenodd"/><path fill="#134f5c" d="m2.9269211 74.02065l3.723983 -7.956871l24.331135 -7.3319016l20.757448 1.6157646l19.92247 -5.9295464l17.784943 -9.145824l-19.33799 21.84328l-9.001019 7.9721146l-10.253475 2.499855l-13.810467 -2.6980133l-9.7023945 -2.5760803l-12.708302 1.5395508l-6.562894 3.9327087z" fill-rule="evenodd"/><path fill="#134f5c" d="m96.711266 50.92664l-13.276085 6.9203415l-4.8428497 6.905102l-6.045212 9.587875l-7.865448 6.9203415l-9.652298 4.786316l10.871361 1.0517731l15.196518 -6.280136l8.08255 -18.855648z" fill-rule="evenodd"/><path fill="#134f5c" d="m56.08421 10.51428l-5.2438736 8.615118l-14.159172 9.573072l-21.500244 10.531023l-10.489517 12.92429l-4.719135 9.095707l7.8658133 -3.8301964l9.964777 -3.3512192l10.487751 -4.7865334l10.487753 -9.094097l11.012489 -13.403265z" fill-rule="evenodd"/><path fill="#134f5c" d="m50.830193 33.01436l11.012493 -14.838583l33.562214 -18.189802l-12.061974 16.2739l-16.781105 12.445314z" fill-rule="evenodd"/><path fill="#134f5c" d="m32.998642 54.53786l8.917522 -11.478016l23.596355 -8.139786l12.591408 -6.21916l21.492218 -15.319261l-8.800621 22.193874l-21.54232 13.45961l-22.611092 2.6370468z" fill-rule="evenodd"/></g></svg>